SplineFontDB: 3.0
FontName: KeterYG-MediumOblique
FullName: Keter YG Medium Oblique
FamilyName: Keter YG
Weight: Medium
Copyright: Copyright 2009 by Yoram Gnat (yoram.gnat@gmail.com)\nDistributed under the terms of GNU General Public License version 2(http://www.gnu.org/licenses/gpl.html). \n\nHebrew OpenType Layout logic copyright (c) 2003 & 2007, Ralph Hancock & John Hudson. This layout logic for Biblical Hebrew is open source software under the MIT License; for details  contact copyright holders at <license@tiro.com>.\n\nAs a special exception, if you create a document which uses this font, and embed this font or unaltered portions of this font into the document, this font does not by itself cause the resulting document to be covered by the GNU General Public License. This exception does not however invalidate any other reasons why the document might be covered by the GNU General Public License. If you modify this font, you may extend this exception to your version of the font, but you are not obligated to do so. If you do not wish to do so, delete this exception statement from your version.
Version: 0.103.1yg
ItalicAngle: 13
UnderlinePosition: -170
UnderlineWidth: 70
Ascent: 1638
Descent: 410
LayerCount: 2
Layer: 0 0 "Back"  1
Layer: 1 0 "Fore"  0
XUID: [1021 594 1227166039 1121043]
FSType: 0
OS2Version: 0
OS2_WeightWidthSlopeOnly: 0
OS2_UseTypoMetrics: 0
CreationTime: 1244295734
ModificationTime: 1345830659
PfmFamily: 17
TTFWeight: 500
TTFWidth: 5
LineGap: 184
VLineGap: 0
Panose: 2 0 0 0 0 0 0 0 0 0
OS2TypoAscent: 0
OS2TypoAOffset: 1
OS2TypoDescent: 0
OS2TypoDOffset: 1
OS2TypoLinegap: 184
OS2WinAscent: 0
OS2WinAOffset: 1
OS2WinDescent: 0
OS2WinDOffset: 1
HheadAscent: 0
HheadAOffset: 1
HheadDescent: 0
HheadDOffset: 1
OS2SubXSize: 1433
OS2SubYSize: 1331
OS2SubXOff: 0
OS2SubYOff: 286
OS2SupXSize: 1433
OS2SupYSize: 1331
OS2SupXOff: 0
OS2SupYOff: 976
OS2StrikeYSize: 102
OS2StrikeYPos: 512
OS2Vendor: 'YGNT'
OS2CodePages: 00000021.00000000

StartChar: .notdef
Encoding: 248 -1 0
Width: 942
GlyphClass: 2
Flags: W
HStem: 0 98<87 776> 178 171<242.795 370.261> 1035 118<30.0938 201.345> 1313 99<-193 496>
VStem: 143 84<565.758 667> 222 173<198.11 324.775> 326 75<775 928.383>
LayerCount: 2
Fore
SplineSet
71 1153 m 0xfa
 198 1153 359 1002 394 851 c 1
 399 829 401 810 401 793 c 0
 401 757 390 732 367 718 c 2
 265 657 l 2
 240 641 227 623 227 604 c 0
 227 600 227 597 228 594 c 0
 234 568 246 538 262 506 c 1
 265 493 244 489 233 498 c 1
 183 561 154 611 146 646 c 0
 144 653 143 660 143 667 c 0
 143 699 163 727 202 751 c 2
 267 790 l 2
 306 814 326 843 326 875 c 0
 326 882 325 889 323 896 c 0
 302 989 223 1035 87 1035 c 0
 55 1035 34 1056 25 1096 c 0
 23 1103 23 1109 23 1115 c 0
 23 1140 39 1153 71 1153 c 0xfa
287 349 m 0
 338 349 381 306 392 260 c 0
 394 252 395 245 395 239 c 0xf4
 395 199 365 178 326 178 c 0xf2
 274 178 234 219 225 260 c 0
 223 269 222 277 222 284 c 0xf4
 222 323 247 349 287 349 c 0
776 98 m 1
 496 1313 l 1
 -193 1313 l 1
 87 98 l 1
 776 98 l 1
556 1412 m 1
 882 0 l 1
 27 0 l 1
 -299 1412 l 1
 556 1412 l 1
EndSplineSet
Validated: 1
EndChar

StartChar: dotnosp
Encoding: 96 775 3
Width: 0
GlyphClass: 4
Flags: W
HStem: 1308 217<-699.532 -609.421>
VStem: -760 211<1370.51 1463.98>
AnchorPoint: "A-23" 0 0 mark 0
AnchorPoint: "A-0" 0 0 mark 0
LayerCount: 2
Fore
SplineSet
-604 1308 m 256
 -655 1308 -717 1353 -746 1417 c 256
 -755 1437 -760 1455 -760 1471 c 0
 -760 1504 -739 1525 -704 1525 c 256
 -650 1525 -590 1477 -562 1417 c 0
 -553 1397 -549 1379 -549 1363 c 0
 -549 1329 -569 1308 -604 1308 c 256
EndSplineSet
Validated: 1
LCarets2: 1 0 
EndChar

StartChar: dieresisnosp
Encoding: 97 776 4
Width: 0
GlyphClass: 4
Flags: W
HStem: 1310 213<-911.025 -820.459 -486.521 -395.519>
VStem: -970 207<1368.77 1465.46> -545 207<1368.77 1465.46>
AnchorPoint: "A-1" 0 0 mark 0
LayerCount: 2
Fore
SplineSet
-817 1310 m 256
 -872 1310 -930 1359 -957 1417 c 256
 -966 1437 -970 1455 -970 1470 c 0
 -970 1503 -950 1523 -915 1523 c 256
 -862 1523 -804 1476 -776 1417 c 256
 -767 1397 -763 1380 -763 1364 c 0
 -763 1331 -783 1310 -817 1310 c 256
-393 1310 m 256
 -447 1310 -506 1359 -532 1417 c 256
 -541 1437 -545 1455 -545 1470 c 0
 -545 1503 -525 1523 -491 1523 c 256
 -437 1523 -379 1476 -351 1417 c 256
 -342 1398 -338 1380 -338 1365 c 0
 -338 1331 -358 1310 -393 1310 c 256
EndSplineSet
Validated: 1
EndChar

StartChar: ringnosp
Encoding: 98 778 5
Width: 0
GlyphClass: 4
Flags: W
HStem: 1234 66<-678.423 -544.605> 1533 66<-763.55 -630.318>
VStem: -834 67<1397.93 1529.08> -541 67<1304.7 1436.95>
AnchorPoint: "A-2" 0.0751953 0 mark 0
LayerCount: 2
Fore
SplineSet
-570 1234 m 0
 -669 1234 -767 1321 -811 1416 c 256
 -826 1449 -834 1480 -834 1507 c 0
 -834 1561 -803 1599 -738 1599 c 256
 -647 1599 -544 1521 -496 1416 c 0
 -482 1385 -474 1355 -474 1328 c 0
 -474 1273 -506 1234 -570 1234 c 0
-708 1533 m 256
 -750 1533 -767 1510 -767 1478 c 0
 -767 1460 -761 1438 -751 1416 c 0
 -725 1360 -668 1300 -600 1300 c 256
 -558 1300 -541 1323 -541 1354 c 0
 -541 1373 -547 1395 -557 1416 c 0
 -585 1477 -642 1533 -708 1533 c 256
EndSplineSet
Validated: 1
EndChar

StartChar: atnah
Encoding: 100 1425 7
Width: 0
GlyphClass: 4
Flags: W
HStem: -585 421
VStem: -47 75<-583.56 -376.686> 211 72<-585 -506.63>
AnchorPoint: "A-42" -191.325 0 mark 0
AnchorPoint: "A-54" -331.575 0 basemark 0
AnchorPoint: "A-53" -382.575 0 basemark 0
AnchorPoint: "A-52" -382.575 0 basemark 0
AnchorPoint: "A-51" -382.575 0 basemark 0
AnchorPoint: "A-52" -0.0751953 0 mark 0
AnchorPoint: "A-50" -382.575 0 basemark 0
AnchorPoint: "A-49" -297.575 0 basemark 0
AnchorPoint: "A-44" 50.9248 0 mark 0
AnchorPoint: "A-40" -0.0751953 0 mark 0
LayerCount: 2
Fore
SplineSet
-35 -511 m 1
 -44 -473 -47 -442 -47 -416 c 0
 -47 -313 12 -299 31 -294 c 1
 0 -164 l 1
 74 -164 l 1
 104 -294 l 1
 194 -313 242 -388 268 -503 c 1
 283 -585 l 1
 211 -585 l 1
 208 -570 208 -555 199 -517 c 0
 181 -439 151 -373 86 -373 c 0
 43 -373 28 -400 28 -442 c 0
 28 -462 31 -486 37 -511 c 0
 40 -526 46 -548 58 -585 c 1
 -14 -585 l 1
 -35 -511 l 1
EndSplineSet
Validated: 1
LCarets2: 1 0 
MultipleSubs2: "Add hairspace after last low mark subtable" atnah hairspace
MultipleSubs2: "Add thinspace before narrow letter subtable" atnah thinspace
MultipleSubs2: "Add hairspace before low marked Qof" atnah hairspace
EndChar

StartChar: segolta
Encoding: 101 1426 8
Width: 0
GlyphClass: 4
Flags: W
HStem: 1222 164<-473.09 -364.91 -237.09 -128.91> 1466 164<-411.253 -302.91>
VStem: -492 146<1239.27 1368.73> -430 146<1482.08 1612.73> -256 146<1239.27 1368.73>
AnchorPoint: "A-55" -127.5 0 mark 0
AnchorPoint: "A-36" 0 0 mark 0
AnchorPoint: "A-35" 0 0 mark 0
AnchorPoint: "A-57" -425 0 basemark 0
AnchorPoint: "A-56" 0 0 basemark 0
AnchorPoint: "A-57" 0 0 mark 0
AnchorPoint: "A-25" 0 0 mark 0
LayerCount: 2
Fore
SplineSet
-400 1222 m 256xe8
 -442 1222 -478 1258 -489 1304 c 256
 -491 1312 -492 1320 -492 1327 c 0
 -492 1363 -470 1386 -438 1386 c 256
 -396 1386 -360 1350 -349 1304 c 256
 -347 1296 -346 1288 -346 1281 c 0
 -346 1245 -368 1222 -400 1222 c 256xe8
-338 1466 m 256
 -380 1466 -417 1502 -427 1548 c 256
 -429 1557 -430 1565 -430 1572 c 0
 -430 1608 -408 1630 -376 1630 c 256
 -334 1630 -298 1594 -287 1548 c 256
 -285 1540 -284 1532 -284 1525 c 0xd8
 -284 1489 -306 1466 -338 1466 c 256
-164 1222 m 256
 -206 1222 -242 1258 -253 1304 c 256
 -255 1312 -256 1320 -256 1327 c 0
 -256 1363 -234 1386 -202 1386 c 256
 -160 1386 -124 1350 -113 1304 c 256
 -111 1296 -110 1288 -110 1281 c 0
 -110 1245 -132 1222 -164 1222 c 256
EndSplineSet
Validated: 1
LCarets2: 1 0 
EndChar

StartChar: shalshelet
Encoding: 102 1427 9
Width: 0
GlyphClass: 4
Flags: W
HStem: 1207 449
VStem: -474 288
AnchorPoint: "A-55" 0.0751953 0 mark 0
AnchorPoint: "A-57" -424.925 0 basemark 0
AnchorPoint: "A-56" 0.0751953 0 basemark 0
AnchorPoint: "A-57" 0.0751953 0 mark 0
AnchorPoint: "A-23" 0.0751953 0 mark 0
LayerCount: 2
Fore
SplineSet
-231 1475 m 1
 -344 1388 l 1
 -186 1301 l 1
 -304 1207 l 1
 -389 1207 l 1
 -270 1301 l 1
 -430 1388 l 1
 -316 1475 l 1
 -474 1562 l 1
 -356 1656 l 1
 -272 1656 l 1
 -389 1562 l 1
 -231 1475 l 1
EndSplineSet
Validated: 1
LCarets2: 1 0 
EndChar

StartChar: zaqefqatan
Encoding: 103 1428 10
Width: 0
GlyphClass: 4
Flags: W
HStem: 1222 164<-355.09 -246.91> 1476 164<-414.09 -305.747>
VStem: -433 146<1493.27 1623.92> -374 146<1239.27 1368.73>
AnchorPoint: "A-55" 0 0 mark 0
AnchorPoint: "A-57" -425 0 basemark 0
AnchorPoint: "A-56" 0 0 basemark 0
AnchorPoint: "A-57" 0 0 mark 0
AnchorPoint: "A-23" 0 0 mark 0
LayerCount: 2
Fore
SplineSet
-282 1222 m 256xd0
 -324 1222 -360 1258 -371 1304 c 256
 -373 1312 -374 1320 -374 1327 c 0
 -374 1363 -352 1386 -320 1386 c 256
 -278 1386 -242 1350 -231 1304 c 256
 -229 1296 -228 1288 -228 1281 c 0
 -228 1245 -250 1222 -282 1222 c 256xd0
-341 1476 m 256
 -383 1476 -419 1512 -430 1558 c 256
 -432 1566 -433 1574 -433 1581 c 0
 -433 1617 -411 1640 -379 1640 c 256
 -337 1640 -300 1604 -290 1558 c 256
 -288 1549 -287 1541 -287 1534 c 0xe0
 -287 1498 -309 1476 -341 1476 c 256
EndSplineSet
Validated: 1
LCarets2: 1 0 
EndChar

StartChar: zaqefgadol
Encoding: 104 1429 11
Width: 0
GlyphClass: 4
Flags: W
HStem: 1222 164<-264.09 -157.124> 1476 164<-323.09 -215.443>
VStem: -342 145<1493.27 1623.92> -283 145<1239.27 1369.92>
AnchorPoint: "A-55" -56.4248 0 mark 0
AnchorPoint: "A-57" -421.925 0 basemark 0
AnchorPoint: "A-56" 3.0752 0 basemark 0
AnchorPoint: "A-57" 3.0752 0 mark 0
AnchorPoint: "A-23" 3.0752 0 mark 0
LayerCount: 2
Fore
SplineSet
-191 1222 m 256xd0
 -233 1222 -269 1258 -280 1304 c 256
 -282 1312 -283 1320 -283 1327 c 0
 -283 1363 -261 1386 -229 1386 c 256
 -188 1386 -152 1350 -141 1304 c 256
 -139 1295 -138 1287 -138 1280 c 0
 -138 1245 -159 1222 -191 1222 c 256xd0
-250 1476 m 256
 -292 1476 -328 1512 -339 1558 c 256
 -341 1566 -342 1574 -342 1581 c 0
 -342 1617 -320 1640 -288 1640 c 256
 -247 1640 -210 1604 -200 1558 c 256
 -198 1549 -197 1541 -197 1533 c 0xe0
 -197 1498 -218 1476 -250 1476 c 256
-333 1237 m 1
 -405 1237 l 1
 -496 1635 l 1
 -424 1635 l 1
 -333 1237 l 1
EndSplineSet
Validated: 1
LCarets2: 1 3 
EndChar

StartChar: tipeha
Encoding: 105 1430 12
Width: 0
GlyphClass: 4
Flags: W
HStem: -587 410
VStem: 15 259
AnchorPoint: "A-42" -183.675 0 mark 0
AnchorPoint: "A-54" -213.425 0 basemark 0
AnchorPoint: "A-53" -264.425 0 basemark 0
AnchorPoint: "A-52" -264.425 0 basemark 0
AnchorPoint: "A-51" -264.425 0 basemark 0
AnchorPoint: "A-51" 7.5752 0 mark 0
AnchorPoint: "A-50" -281.425 0 basemark 0
AnchorPoint: "A-49" -204.925 0 basemark 0
AnchorPoint: "A-43" 7.5752 0 mark 0
AnchorPoint: "A-40" 7.5752 0 mark 0
LayerCount: 2
Fore
SplineSet
119 -353 m 1
 140 -442 184 -477 253 -500 c 1
 274 -587 l 1
 165 -562 77 -493 44 -350 c 0
 28 -282 17 -194 15 -177 c 1
 90 -177 l 1
 90 -177 114 -328 119 -353 c 1
EndSplineSet
Validated: 1
LCarets2: 1 8 
MultipleSubs2: "Add hairspace after last low mark subtable" tipeha hairspace
MultipleSubs2: "Add thinspace before narrow letter subtable" tipeha thinspace
MultipleSubs2: "Add hairspace before low marked Qof" tipeha hairspace
EndChar

StartChar: revia
Encoding: 106 1431 13
Width: 0
GlyphClass: 4
Flags: W
HStem: 1213 288
VStem: -416 208
AnchorPoint: "A-55" 0.0751953 0 mark 0
AnchorPoint: "A-57" -424.925 0 basemark 0
AnchorPoint: "A-56" 0.0751953 0 basemark 0
AnchorPoint: "A-57" 0.0751953 0 mark 0
AnchorPoint: "A-23" 0.0751953 0 mark 0
LayerCount: 2
Fore
SplineSet
-350 1501 m 1
 -208 1353 l 1
 -276 1213 l 1
 -416 1356 l 1
 -350 1501 l 1
EndSplineSet
Validated: 1
LCarets2: 1 0 
EndChar

StartChar: zarqa
Encoding: 107 1432 14
Width: 0
GlyphClass: 4
Flags: W
HStem: 1249 80<-262.772 -166.485> 1447 78<-473.879 -376.565>
VStem: -549 74<1332.52 1445.76> -166 74<1331.66 1393.67>
AnchorPoint: "A-55" -127.5 0 mark 0
AnchorPoint: "A-57" -425 0 basemark 0
AnchorPoint: "A-56" 0 0 basemark 0
AnchorPoint: "A-57" 0 0 mark 0
AnchorPoint: "A-31" 0 0 mark 0
LayerCount: 2
Fore
SplineSet
-166 1394 m 0
 -173 1427 -201 1447 -224 1457 c 1
 -245 1546 l 1
 -193 1530 -116 1476 -97 1395 c 1
 -93 1380 -92 1366 -92 1352 c 0
 -92 1287 -132 1249 -183 1249 c 0
 -257 1249 -306 1314 -341 1362 c 2
 -363 1392 l 2
 -400 1441 -423 1447 -436 1447 c 0
 -460 1447 -475 1429 -475 1401 c 0
 -475 1395 -475 1388 -473 1381 c 0
 -467 1355 -447 1330 -412 1317 c 1
 -392 1230 l 1
 -468 1254 -529 1315 -544 1380 c 1
 -547 1395 -549 1410 -549 1423 c 0
 -549 1487 -510 1525 -456 1525 c 0
 -393 1525 -348 1480 -298 1413 c 2
 -275 1382 l 1
 -248 1349 -228 1329 -205 1329 c 0
 -181 1329 -166 1347 -166 1374 c 0
 -166 1381 -164 1387 -166 1394 c 0
EndSplineSet
Validated: 1
LCarets2: 1 0 
EndChar

StartChar: pashta
Encoding: 108 1433 15
Width: 0
GlyphClass: 4
Flags: W
HStem: 1232 410
VStem: -850 259
AnchorPoint: "A-34" -57.5254 0 mark 0
AnchorPoint: "A-29" -74.5254 0 mark 0
LayerCount: 2
Fore
SplineSet
-696 1408 m 1
 -717 1497 -761 1532 -830 1555 c 1
 -850 1642 l 1
 -741 1617 -653 1548 -620 1405 c 0
 -605 1337 -593 1249 -591 1232 c 1
 -666 1232 l 1
 -666 1232 -690 1383 -696 1408 c 1
EndSplineSet
Validated: 1
LCarets2: 1 -58 
EndChar

StartChar: yetiv
Encoding: 109 1434 16
Width: 0
GlyphClass: 4
Flags: W
HStem: -587 416
VStem: 436 309
AnchorPoint: "A-69" 200.625 0 mark 0
AnchorPoint: "A-68" 98.625 0 mark 0
AnchorPoint: "A-67" 5.125 0 mark 0
AnchorPoint: "A-66" 149.625 0 mark 0
AnchorPoint: "A-65" 39.125 0 mark 0
AnchorPoint: "A-64" -71.375 0 mark 0
AnchorPoint: "A-47" 90.125 0 mark 0
AnchorPoint: "A-41" 73.125 0 mark 0
LayerCount: 2
Fore
SplineSet
745 -515 m 1
 712 -587 l 1
 436 -379 l 1
 615 -171 l 1
 682 -243 l 1
 550 -376 l 1
 745 -515 l 1
EndSplineSet
Validated: 1
LCarets2: 1 73 
MultipleSubs2: "Add thinspace before narrow letter subtable" yetiv thinspace
EndChar

StartChar: tevir
Encoding: 110 1435 17
Width: 0
GlyphClass: 4
Flags: W
HStem: -411 154<-63.2107 40.533>
VStem: -80 136<-396.647 -271.069> 139 77<-481.172 -247.729>
AnchorPoint: "A-42" -193.425 0 mark 0
AnchorPoint: "A-54" -299.675 0 basemark 0
AnchorPoint: "A-53" -376.175 0 basemark 0
AnchorPoint: "A-52" -350.675 0 basemark 0
AnchorPoint: "A-51" -350.675 0 basemark 0
AnchorPoint: "A-51" -2.1748 0 mark 0
AnchorPoint: "A-50" -401.675 0 basemark 0
AnchorPoint: "A-49" -282.675 0 basemark 0
AnchorPoint: "A-44" 48.8252 0 mark 0
AnchorPoint: "A-40" -2.1748 0 mark 0
LayerCount: 2
Fore
SplineSet
132 -353 m 1
 127 -328 80 -177 80 -177 c 1
 156 -177 l 1
 162 -194 190 -282 206 -350 c 0
 213 -378 216 -404 216 -426 c 0
 216 -519 165 -567 87 -587 c 1
 66 -500 l 1
 112 -482 139 -457 139 -405 c 0
 139 -390 137 -373 132 -353 c 1
6 -411 m 0
 -33 -411 -67 -376 -77 -334 c 0
 -79 -327 -80 -319 -80 -312 c 0
 -80 -281 -61 -257 -30 -257 c 0
 9 -257 45 -294 54 -334 c 0
 56 -341 56 -348 56 -355 c 0
 56 -389 36 -411 6 -411 c 0
EndSplineSet
Validated: 1
LCarets2: 1 -2 
MultipleSubs2: "Add hairspace after last low mark subtable" tevir hairspace
MultipleSubs2: "Add thinspace before narrow letter subtable" tevir thinspace
MultipleSubs2: "Add hairspace before low marked Qof" tevir hairspace
EndChar

StartChar: gereshaccent
Encoding: 111 1436 18
Width: 0
GlyphClass: 4
Flags: W
HStem: 1233 410<-325.691 -238.704>
VStem: -373 78<1303.73 1537.53>
AnchorPoint: "A-55" 7.4248 0 mark 0
AnchorPoint: "A-57" -417.575 0 basemark 0
AnchorPoint: "A-56" 7.4248 0 basemark 0
AnchorPoint: "A-57" 7.4248 0 mark 0
AnchorPoint: "A-23" 7.4248 0 mark 0
LayerCount: 2
Fore
SplineSet
-288 1409 m 1
 -283 1384 -237 1233 -237 1233 c 1
 -312 1233 l 1
 -318 1250 -347 1338 -363 1406 c 0
 -369 1434 -373 1459 -373 1482 c 0
 -373 1574 -321 1623 -242 1643 c 1
 -222 1556 l 1
 -268 1538 -295 1513 -295 1461 c 0
 -295 1446 -293 1429 -288 1409 c 1
EndSplineSet
Validated: 1
LCarets2: 1 7 
EndChar

StartChar: gereshmuqdam
Encoding: 112 1437 19
Width: 0
GlyphClass: 4
Flags: W
HStem: 1231 410<8.11578 94.2956>
VStem: -39 78<1301.73 1535.52>
AnchorPoint: "A-27" 57.375 0 mark 0
LayerCount: 2
Fore
SplineSet
45 1407 m 1
 51 1382 97 1231 97 1231 c 1
 22 1231 l 1
 16 1248 -13 1336 -29 1404 c 0
 -35 1432 -39 1457 -39 1480 c 0
 -39 1572 13 1621 91 1641 c 1
 111 1554 l 1
 66 1536 39 1511 39 1458 c 0
 39 1443 41 1426 45 1407 c 1
EndSplineSet
Validated: 1
LCarets2: 1 57 
EndChar

StartChar: gershayimaccent
Encoding: 113 1438 20
Width: 0
GlyphClass: 4
Flags: W
HStem: 1231 411<-420.307 -333.742 -224.884 -138.742>
VStem: -467 77<1301.73 1535.16> -272 77<1303.16 1535.4>
AnchorPoint: "A-55" -77.2002 0 mark 0
AnchorPoint: "A-57" -417.2 0 basemark 0
AnchorPoint: "A-56" -697.7 0 basemark 0
AnchorPoint: "A-57" 7.7998 0 mark 0
AnchorPoint: "A-23" 7.7998 0 mark 0
LayerCount: 2
Fore
SplineSet
-383 1407 m 1
 -377 1382 -331 1231 -331 1231 c 1
 -407 1231 l 1
 -413 1248 -441 1336 -457 1404 c 0
 -464 1432 -467 1458 -467 1480 c 0
 -467 1573 -416 1621 -337 1641 c 1
 -317 1554 l 1
 -363 1536 -390 1511 -390 1458 c 0
 -390 1444 -387 1427 -383 1407 c 1
-188 1408 m 1
 -182 1382 -135 1231 -135 1231 c 1
 -212 1231 l 1
 -216 1247 -246 1336 -262 1404 c 0
 -268 1432 -272 1457 -272 1480 c 0
 -272 1573 -220 1621 -142 1642 c 1
 -122 1554 l 1
 -168 1537 -195 1511 -195 1459 c 0
 -195 1444 -192 1427 -188 1408 c 1
EndSplineSet
Validated: 1
LCarets2: 1 8 
EndChar

StartChar: qarneypara
Encoding: 114 1439 21
Width: 0
GlyphClass: 4
Flags: W
HStem: 1311 68<-619.472 -478.932 -173.489 -30.9566> 1627 69<-662.15 -520.717 -215.636 -72.3551>
VStem: -741 64<1441.42 1613.16> -465 64<1394.28 1565.02> -293 64<1440.3 1612.64> -17 64<1392.71 1564.05>
AnchorPoint: "A-55" -323 0 mark 0
AnchorPoint: "A-57" -425 0 basemark 0
AnchorPoint: "A-56" 0 0 basemark 0
AnchorPoint: "A-57" 0 0 mark 0
AnchorPoint: "A-32" 0 0 mark 0
LayerCount: 2
Fore
SplineSet
41 1503 m 256
 45 1485 47 1467 47 1451 c 0
 47 1372 2 1311 -79 1311 c 0
 -115 1311 -149 1323 -181 1347 c 1
 -277 1199 l 1
 -441 1347 l 1
 -461 1323 -491 1311 -527 1311 c 0
 -625 1311 -711 1400 -735 1503 c 256
 -739 1521 -741 1539 -741 1555 c 0
 -741 1633 -698 1696 -616 1696 c 256
 -518 1696 -431 1608 -407 1503 c 0
 -403 1485 -401 1469 -401 1454 c 0
 -401 1431 -405 1412 -412 1395 c 1
 -299 1295 l 1
 -232 1395 l 1
 -247 1412 -275 1449 -287 1503 c 0
 -291 1522 -293 1540 -293 1557 c 0
 -293 1636 -249 1696 -168 1696 c 256
 -68 1696 18 1603 41 1503 c 256
-542 1379 m 0
 -490 1379 -465 1418 -465 1467 c 0
 -465 1478 -466 1491 -469 1503 c 256
 -484 1568 -536 1627 -600 1627 c 0
 -651 1627 -677 1588 -677 1539 c 0
 -677 1527 -676 1515 -673 1503 c 0
 -658 1438 -605 1379 -542 1379 c 0
-152 1627 m 0
 -204 1627 -229 1588 -229 1539 c 0
 -229 1528 -228 1515 -225 1503 c 256
 -210 1438 -158 1379 -94 1379 c 0
 -43 1379 -17 1418 -17 1467 c 0
 -17 1479 -18 1491 -21 1503 c 0
 -36 1568 -89 1627 -152 1627 c 0
EndSplineSet
Validated: 1
LCarets2: 1 0 
EndChar

StartChar: telishagedola
Encoding: 115 1440 22
Width: 0
GlyphClass: 4
Flags: W
HStem: 1311 68<34.499 146.043> 1627 69<-38.6364 104.645>
VStem: -116 64<1440.39 1612.05> -61 67<1208.66 1243.41> 160 64<1392.76 1562.35>
AnchorPoint: "A-55" 228.875 0 mark 0
AnchorPoint: "A-39" 347.875 0 mark 0
AnchorPoint: "A-57" -366.125 0 basemark 0
AnchorPoint: "A-56" 58.875 0 basemark 0
AnchorPoint: "A-56" 58.875 0 mark 0
AnchorPoint: "A-26" 228.875 0 mark 0
LayerCount: 2
Fore
SplineSet
25 1627 m 0xe8
 -27 1627 -52 1588 -52 1539 c 0
 -52 1528 -51 1515 -48 1503 c 256
 -33 1438 19 1379 83 1379 c 0
 134 1379 160 1418 160 1467 c 0
 160 1479 159 1491 156 1503 c 0
 141 1568 88 1627 25 1627 c 0xe8
-19 1358 m 1
 -55 1389 -94 1435 -110 1503 c 0
 -114 1522 -116 1540 -116 1557 c 0xe8
 -116 1636 -72 1696 9 1696 c 256
 109 1696 195 1603 218 1503 c 256
 222 1485 224 1467 224 1451 c 0
 224 1372 179 1311 98 1311 c 0
 87 1311 63 1316 38 1324 c 1
 6 1178 l 1
 -61 1217 l 1xd8
 -19 1358 l 1
EndSplineSet
Validated: 1
LCarets2: 1 59 
EndChar

StartChar: pazer
Encoding: 116 1441 23
Width: 0
GlyphClass: 4
Flags: W
HStem: 1340 80<-302 -235.704>
VStem: -233 76<1422.4 1631.32>
AnchorPoint: "A-55" -24.625 0 mark 0
AnchorPoint: "A-57" -415.625 0 basemark 0
AnchorPoint: "A-56" 9.375 0 basemark 0
AnchorPoint: "A-57" 9.375 0 mark 0
AnchorPoint: "A-23" 9.375 0 mark 0
LayerCount: 2
Fore
SplineSet
-169 1551 m 0
 -161 1519 -157 1487 -157 1459 c 0
 -157 1390 -183 1340 -255 1340 c 0
 -269 1340 -284 1342 -302 1346 c 1
 -277 1237 l 1
 -350 1237 l 1
 -441 1635 l 1
 -368 1635 l 1
 -319 1423 l 1
 -309 1420 -298 1420 -287 1420 c 0
 -247 1420 -233 1445 -233 1483 c 0
 -233 1502 -236 1525 -242 1550 c 0
 -245 1565 -254 1597 -266 1633 c 1
 -193 1633 l 1
 -184 1608 -176 1580 -169 1551 c 0
EndSplineSet
Validated: 1
LCarets2: 1 9 
EndChar

StartChar: atnahhafukh
Encoding: 117 1442 24
Width: 0
GlyphClass: 4
Flags: W
HStem: -595 421
VStem: -108 72<-315.99 -174> 147 75<-382.314 -175.44>
AnchorPoint: "A-42" -191.175 0 mark 0
AnchorPoint: "A-54" -331.425 0 basemark 0
AnchorPoint: "A-53" -382.425 0 basemark 0
AnchorPoint: "A-52" -382.425 0 basemark 0
AnchorPoint: "A-51" -382.425 0 basemark 0
AnchorPoint: "A-52" 0.0751953 0 mark 0
AnchorPoint: "A-50" -382.425 0 basemark 0
AnchorPoint: "A-49" -297.425 0 basemark 0
AnchorPoint: "A-44" 51.0752 0 mark 0
AnchorPoint: "A-40" 0.0751953 0 mark 0
LayerCount: 2
Fore
SplineSet
210 -248 m 1
 219 -286 222 -317 222 -343 c 0
 222 -446 163 -460 144 -465 c 1
 174 -595 l 1
 101 -595 l 1
 71 -465 l 1
 -19 -446 -66 -371 -93 -256 c 1
 -98 -232 -108 -174 -108 -174 c 1
 -36 -174 l 1
 -35 -189 -33 -204 -24 -242 c 0
 -6 -320 24 -386 89 -386 c 0
 132 -386 147 -359 147 -317 c 0
 147 -297 144 -273 138 -248 c 0
 135 -233 130 -211 117 -174 c 1
 189 -174 l 1
 210 -248 l 1
EndSplineSet
Validated: 1
MultipleSubs2: "Add hairspace after last low mark subtable" atnahhafukh hairspace
MultipleSubs2: "Add thinspace before narrow letter subtable" atnahhafukh thinspace
MultipleSubs2: "Add hairspace before low marked Qof" atnahhafukh hairspace
EndChar

StartChar: munah
Encoding: 118 1443 25
Width: 0
GlyphClass: 4
Flags: W
HStem: -572 85<16 165>
VStem: -4 262
AnchorPoint: "A-42" -190.5 0 mark 0
AnchorPoint: "A-54" -279.75 0 basemark 0
AnchorPoint: "A-53" -330.75 0 basemark 0
AnchorPoint: "A-52" -330.75 0 basemark 0
AnchorPoint: "A-51" -330.75 0 basemark 0
AnchorPoint: "A-52" 0.75 0 mark 0
AnchorPoint: "A-50" -288.25 0 basemark 0
AnchorPoint: "A-49" -211.75 0 basemark 0
AnchorPoint: "A-45" 51.75 0 mark 0
AnchorPoint: "A-40" 0.75 0 mark 0
LayerCount: 2
Fore
SplineSet
258 -572 m 1
 16 -572 l 1
 -4 -487 l 1
 165 -487 l 1
 95 -183 l 1
 168 -183 l 1
 258 -572 l 1
EndSplineSet
Validated: 1
LCarets2: 1 1 
MultipleSubs2: "Add hairspace after last low mark subtable" munah hairspace
MultipleSubs2: "Add thinspace before narrow letter subtable" munah thinspace
MultipleSubs2: "Add hairspace before low marked Qof" munah hairspace
EndChar

StartChar: mahapakh
Encoding: 119 1444 26
Width: 0
GlyphClass: 4
Flags: W
HStem: -587 416
VStem: -56 309
AnchorPoint: "A-42" -191.925 0 mark 0
AnchorPoint: "A-54" -289.675 0 basemark 0
AnchorPoint: "A-53" -340.675 0 basemark 0
AnchorPoint: "A-52" -340.675 0 basemark 0
AnchorPoint: "A-51" -340.675 0 basemark 0
AnchorPoint: "A-52" -0.674805 0 mark 0
AnchorPoint: "A-50" -357.675 0 basemark 0
AnchorPoint: "A-49" -298.175 0 basemark 0
AnchorPoint: "A-44" 50.3252 0 mark 0
AnchorPoint: "A-40" -0.674805 0 mark 0
LayerCount: 2
Fore
SplineSet
253 -515 m 1
 220 -587 l 1
 -56 -379 l 1
 123 -171 l 1
 190 -243 l 1
 58 -376 l 1
 253 -515 l 1
EndSplineSet
Validated: 1
LCarets2: 1 -1 
MultipleSubs2: "Add hairspace after last low mark subtable" mahapakh hairspace
MultipleSubs2: "Add thinspace before narrow letter subtable" mahapakh thinspace
MultipleSubs2: "Add hairspace before low marked Qof" mahapakh hairspace
EndChar

StartChar: merkha
Encoding: 120 1445 27
Width: 0
GlyphClass: 4
Flags: W
HStem: -584 86<-3.66735 34.0285>
VStem: 50 77<-478.972 -245.347>
AnchorPoint: "A-42" -198.75 0 mark 0
AnchorPoint: "A-54" -330.5 0 basemark 0
AnchorPoint: "A-53" -381.5 0 basemark 0
AnchorPoint: "A-52" -381.5 0 basemark 0
AnchorPoint: "A-51" -381.5 0 basemark 0
AnchorPoint: "A-51" -75.5 0 mark 0
AnchorPoint: "A-50" -313.5 0 basemark 0
AnchorPoint: "A-49" -305 0 basemark 0
AnchorPoint: "A-43" -50 0 mark 0
AnchorPoint: "A-40" -7.5 0 mark 0
LayerCount: 2
Fore
SplineSet
43 -350 m 1
 37 -326 -8 -174 -8 -174 c 1
 66 -174 l 1
 72 -192 102 -280 117 -348 c 0
 124 -376 127 -402 127 -425 c 0
 127 -516 77 -565 0 -584 c 1
 -22 -498 l 1
 22 -479 50 -455 50 -402 c 0
 50 -387 48 -370 43 -350 c 1
EndSplineSet
Validated: 1
LCarets2: 1 -7 
MultipleSubs2: "Add hairspace after last low mark subtable" merkha hairspace
MultipleSubs2: "Add thinspace before narrow letter subtable" merkha thinspace
MultipleSubs2: "Add hairspace before low marked Qof" merkha hairspace
EndChar

StartChar: merkhakefula
Encoding: 121 1446 28
Width: 0
GlyphClass: 4
Flags: W
HStem: -587 410<-104.334 -19.3063 91.6268 176.663>
VStem: -51 78<-483.731 -244.913> 147 76<-483.111 -249.347>
AnchorPoint: "A-42" -199.125 0 mark 0
AnchorPoint: "A-54" -415.875 0 basemark 0
AnchorPoint: "A-53" -466.875 0 basemark 0
AnchorPoint: "A-52" -466.875 0 basemark 0
AnchorPoint: "A-51" -466.875 0 basemark 0
AnchorPoint: "A-53" -7.875 0 mark 0
AnchorPoint: "A-50" -407.375 0 basemark 0
AnchorPoint: "A-49" -347.875 0 basemark 0
AnchorPoint: "A-45" 43.125 0 mark 0
AnchorPoint: "A-40" -7.875 0 mark 0
LayerCount: 2
Fore
SplineSet
-58 -353 m 1
 -63 -329 -108 -177 -108 -177 c 1
 -33 -177 l 1
 -27 -195 1 -283 17 -351 c 0
 24 -379 27 -406 27 -429 c 0
 27 -521 -24 -568 -101 -587 c 1
 -121 -501 l 1
 -77 -482 -51 -458 -51 -406 c 0
 -51 -391 -53 -374 -58 -353 c 1
140 -354 m 1
 134 -330 88 -178 88 -178 c 1
 163 -178 l 1
 169 -196 198 -284 213 -352 c 0
 220 -380 223 -406 223 -429 c 0
 223 -521 172 -568 95 -587 c 1
 75 -502 l 1
 119 -483 147 -459 147 -406 c 0
 147 -391 145 -374 140 -354 c 1
EndSplineSet
Validated: 1
LCarets2: 1 -8 
MultipleSubs2: "Add hairspace after last low mark subtable" merkhakefula hairspace
MultipleSubs2: "Add thinspace before narrow letter subtable" merkhakefula thinspace
MultipleSubs2: "Add hairspace before low marked Qof" merkhakefula hairspace
EndChar

StartChar: darga
Encoding: 122 1447 29
Width: 0
GlyphClass: 4
Flags: W
HStem: -593 81<40.6372 131.687> -244 82<42.0973 122.147>
VStem: -36 73<-328.836 -258.91> 137 73<-495.016 -437.328>
AnchorPoint: "A-42" -191.25 0 mark 0
AnchorPoint: "A-54" -272 0 basemark 0
AnchorPoint: "A-53" -323 0 basemark 0
AnchorPoint: "A-52" -323 0 basemark 0
AnchorPoint: "A-51" -323 0 basemark 0
AnchorPoint: "A-52" 0 0 mark 0
AnchorPoint: "A-50" -331.5 0 basemark 0
AnchorPoint: "A-49" -255 0 basemark 0
AnchorPoint: "A-43" 0 0 mark 0
AnchorPoint: "A-40" 0 0 mark 0
LayerCount: 2
Fore
SplineSet
115 -247 m 0
 74 -256 37 -265 37 -301 c 0
 37 -306 38 -311 39 -316 c 0
 41 -326 170 -345 193 -400 c 0
 197 -409 201 -419 204 -432 c 0
 208 -449 210 -465 210 -479 c 0
 210 -551 155 -575 44 -593 c 1
 25 -512 l 1
 93 -495 137 -498 137 -456 c 0
 137 -451 139 -444 137 -437 c 0
 134 -424 4 -409 -20 -353 c 0
 -24 -344 -27 -334 -30 -321 c 1
 -34 -303 -36 -286 -36 -272 c 0
 -36 -199 19 -178 119 -162 c 1
 137 -244 l 1
 131 -246 128 -245 122 -247 c 0
 119 -247 117 -247 115 -247 c 0
EndSplineSet
Validated: 1
LCarets2: 1 0 
MultipleSubs2: "Add hairspace after last low mark subtable" darga hairspace
MultipleSubs2: "Add thinspace before narrow letter subtable" darga thinspace
MultipleSubs2: "Add hairspace before low marked Qof" darga hairspace
EndChar

StartChar: qadma
Encoding: 123 1448 30
Width: 0
GlyphClass: 4
Flags: W
HStem: 1553 87<-498 -418.687>
VStem: -518 259
AnchorPoint: "A-55" -67.2246 0 mark 0
AnchorPoint: "A-57" -432.725 0 basemark 0
AnchorPoint: "A-56" -7.72461 0 basemark 0
AnchorPoint: "A-57" -7.72461 0 mark 0
AnchorPoint: "A-23" -7.72461 0 mark 0
LayerCount: 2
Fore
SplineSet
-364 1406 m 1
 -384 1495 -428 1530 -498 1553 c 1
 -518 1640 l 1
 -409 1615 -321 1546 -288 1403 c 0
 -272 1335 -261 1247 -259 1230 c 1
 -334 1230 l 1
 -334 1230 -358 1381 -364 1406 c 1
EndSplineSet
Validated: 1
LCarets2: 1 -8 
EndChar

StartChar: telishaqetana
Encoding: 124 1449 31
Width: 0
GlyphClass: 4
Flags: W
HStem: 1311 68<-796.472 -655.711> 1627 69<-839.15 -697.717>
VStem: -918 64<1442.6 1613.08> -642 64<1393.26 1564.29>
AnchorPoint: "A-55" -492.375 0 mark 0
AnchorPoint: "A-36" -347.875 0 mark 0
AnchorPoint: "A-57" -483.875 0 basemark 0
AnchorPoint: "A-56" -58.875 0 basemark 0
AnchorPoint: "A-57" -58.875 0 mark 0
AnchorPoint: "A-30" 26.125 0 mark 0
LayerCount: 2
Fore
SplineSet
-719 1379 m 0
 -667 1379 -642 1418 -642 1467 c 0
 -642 1478 -643 1491 -646 1503 c 256
 -661 1568 -713 1627 -777 1627 c 0
 -828 1627 -854 1588 -854 1539 c 0
 -854 1527 -853 1515 -850 1503 c 0
 -835 1438 -782 1379 -719 1379 c 0
-793 1696 m 256
 -695 1696 -608 1608 -584 1503 c 0
 -580 1487 -578 1471 -578 1455 c 0
 -578 1420 -588 1386 -609 1358 c 1
 -501 1217 l 1
 -550 1178 l 1
 -650 1324 l 1
 -671 1316 -693 1311 -704 1311 c 0
 -802 1311 -888 1400 -912 1503 c 256
 -916 1521 -918 1539 -918 1555 c 0
 -918 1633 -875 1696 -793 1696 c 256
EndSplineSet
Validated: 1
LCarets2: 1 -59 
EndChar

StartChar: yerahbenyomo
Encoding: 125 1450 32
Width: 0
GlyphClass: 4
Flags: W
HStem: -596 421
VStem: -108 72<-253.37 -175> 148 75<-383.077 -176.469>
AnchorPoint: "A-42" -191.175 0 mark 0
AnchorPoint: "A-54" -331.425 0 basemark 0
AnchorPoint: "A-53" -382.425 0 basemark 0
AnchorPoint: "A-52" -382.425 0 basemark 0
AnchorPoint: "A-51" -382.425 0 basemark 0
AnchorPoint: "A-52" 0.0751953 0 mark 0
AnchorPoint: "A-50" -399.425 0 basemark 0
AnchorPoint: "A-49" -339.925 0 basemark 0
AnchorPoint: "A-44" 51.0752 0 mark 0
AnchorPoint: "A-40" 0.0751953 0 mark 0
LayerCount: 2
Fore
SplineSet
210 -249 m 0
 219 -287 223 -319 223 -344 c 0
 223 -447 163 -461 145 -466 c 1
 175 -596 l 1
 102 -596 l 1
 72 -466 l 1
 -19 -447 -66 -372 -93 -257 c 1
 -108 -175 l 1
 -36 -175 l 1
 -36 -175 -33 -206 -24 -243 c 0
 -6 -321 24 -387 89 -387 c 0
 132 -387 148 -360 148 -318 c 0
 148 -298 144 -274 138 -249 c 0
 135 -234 130 -212 117 -175 c 1
 189 -175 l 1
 195 -201 204 -220 210 -249 c 0
EndSplineSet
Validated: 1
LCarets2: 1 0 
MultipleSubs2: "Add hairspace after last low mark subtable" yerahbenyomo hairspace
MultipleSubs2: "Add thinspace before narrow letter subtable" yerahbenyomo thinspace
MultipleSubs2: "Add hairspace before low marked Qof" yerahbenyomo hairspace
EndChar

StartChar: ole
Encoding: 126 1451 33
Width: 0
GlyphClass: 4
Flags: W
HStem: 1223 416
VStem: -416 308
AnchorPoint: "A-55" -51.625 0 mark 0
AnchorPoint: "A-57" -417.125 0 basemark 0
AnchorPoint: "A-56" 7.875 0 basemark 0
AnchorPoint: "A-57" 7.875 0 mark 0
AnchorPoint: "A-23" 7.875 0 mark 0
LayerCount: 2
Fore
SplineSet
-108 1295 m 1
 -141 1223 l 1
 -416 1431 l 1
 -237 1639 l 1
 -171 1567 l 1
 -303 1434 l 1
 -108 1295 l 1
EndSplineSet
Validated: 1
LCarets2: 1 8 
EndChar

StartChar: iluy
Encoding: 127 1452 34
Width: 0
GlyphClass: 4
Flags: W
HStem: 1203 85<-398 -239>
VStem: -417 269
AnchorPoint: "A-55" -75.75 0 mark 0
AnchorPoint: "A-57" -424.25 0 basemark 0
AnchorPoint: "A-56" 0.75 0 basemark 0
AnchorPoint: "A-57" 0.75 0 mark 0
AnchorPoint: "A-23" 0.75 0 mark 0
LayerCount: 2
Fore
SplineSet
-148 1203 m 1
 -398 1203 l 1
 -417 1288 l 1
 -239 1288 l 1
 -310 1592 l 1
 -238 1592 l 1
 -148 1203 l 1
EndSplineSet
Validated: 1
LCarets2: 1 1 
EndChar

StartChar: dehi
Encoding: 128 1453 35
Width: 0
GlyphClass: 4
Flags: W
HStem: -590 410
VStem: 443 258
AnchorPoint: "A-69" 173.625 0 mark 0
AnchorPoint: "A-68" 71.625 0 mark 0
AnchorPoint: "A-67" -13.375 0 mark 0
AnchorPoint: "A-66" 122.625 0 mark 0
AnchorPoint: "A-65" 12.125 0 mark 0
AnchorPoint: "A-64" -98.375 0 mark 0
AnchorPoint: "A-46" 71.625 0 mark 0
AnchorPoint: "A-41" 71.625 0 mark 0
LayerCount: 2
Fore
SplineSet
547 -356 m 1
 568 -445 612 -480 681 -503 c 1
 701 -590 l 1
 592 -565 505 -496 471 -353 c 0
 456 -285 444 -197 443 -180 c 1
 518 -180 l 1
 518 -180 541 -331 547 -356 c 1
EndSplineSet
Validated: 1
LCarets2: 1 72 
MultipleSubs2: "Add hairspace after last low mark subtable" dehi hairspace
MultipleSubs2: "Add thinspace before narrow letter subtable" dehi thinspace
EndChar

StartChar: tsinor
Encoding: 129 1454 36
Width: 0
GlyphClass: 4
Flags: W
HStem: 1247 80<-741.745 -644.985> 1445 78<-952.922 -855.581>
VStem: -1027 73<1330.52 1442.51> -644 73<1329.66 1391.67>
AnchorPoint: "A-33" -71.8496 0 mark 0
AnchorPoint: "A-28" -71.8496 0 mark 0
LayerCount: 2
Fore
SplineSet
-644 1392 m 0
 -652 1425 -680 1445 -703 1455 c 1
 -723 1544 l 1
 -672 1528 -594 1474 -576 1393 c 1
 -572 1378 -571 1364 -571 1350 c 0
 -571 1285 -611 1247 -662 1247 c 0
 -736 1247 -785 1312 -820 1360 c 2
 -843 1390 l 2
 -878 1439 -902 1445 -915 1445 c 0
 -939 1445 -954 1427 -954 1400 c 0
 -954 1393 -953 1386 -951 1379 c 0
 -945 1353 -926 1328 -891 1315 c 1
 -871 1228 l 1
 -947 1252 -1007 1313 -1022 1378 c 1
 -1025 1393 -1027 1407 -1027 1420 c 0
 -1027 1483 -989 1523 -935 1523 c 0
 -872 1523 -826 1478 -777 1411 c 2
 -754 1380 l 1
 -727 1347 -706 1327 -683 1327 c 0
 -659 1327 -644 1345 -644 1373 c 0
 -644 1379 -643 1385 -644 1392 c 0
EndSplineSet
Validated: 1
LCarets2: 1 -72 
EndChar

StartChar: masoracircle
Encoding: 130 1455 37
Width: 0
GlyphClass: 4
Flags: W
HStem: 1306 53<-384.079 -255.595> 1643 53<-439.8 -308.067>
VStem: -519 55<1444.17 1619.94> -232 57<1380.14 1561.04>
AnchorPoint: "A-55" -76.5 0 mark 0
AnchorPoint: "A-57" -425 0 basemark 0
AnchorPoint: "A-56" 0 0 basemark 0
AnchorPoint: "A-57" 0 0 mark 0
AnchorPoint: "A-24" 0 0 mark 0
LayerCount: 2
Fore
SplineSet
-302 1306 m 0
 -395 1306 -488 1394 -513 1501 c 0
 -517 1518 -519 1535 -519 1551 c 0
 -519 1631 -472 1696 -392 1696 c 0
 -303 1696 -206 1612 -181 1501 c 0
 -177 1483 -175 1472 -175 1454 c 0
 -175 1372 -225 1306 -302 1306 c 0
-379 1643 m 0
 -432 1643 -464 1602 -464 1542 c 0
 -464 1530 -463 1516 -460 1502 c 256
 -441 1420 -376 1359 -314 1359 c 0
 -264 1359 -232 1398 -232 1460 c 0
 -232 1472 -234 1486 -236 1500 c 256
 -256 1586 -319 1643 -379 1643 c 0
EndSplineSet
Validated: 1
LCarets2: 1 0 
EndChar

StartChar: sheva
Encoding: 131 1456 38
Width: 0
GlyphClass: 4
Flags: W
HStem: -587 164<-67.2529 41.0902> -333 164<-126.09 -16.5183>
VStem: -145 148<-315.731 -186.974> -86 146<-570.919 -440.269>
AnchorPoint: "A-17" -172.5 0 mark 0
AnchorPoint: "A-14" -172.5 0 mark 0
AnchorPoint: "A-11" -427.5 0 mark 0
AnchorPoint: "A-8" -278.75 0 mark 0
AnchorPoint: "A-70" -130 0 mark 0
AnchorPoint: "A-50" -130 0 basemark 0
AnchorPoint: "A-49" -342.5 0 basemark 0
AnchorPoint: "A-49" -130 0 mark 0
AnchorPoint: "A-48" -351 0 basemark 0
AnchorPoint: "A-47" -308.5 0 basemark 0
AnchorPoint: "A-46" -283 0 basemark 0
AnchorPoint: "A-45" -385 0 basemark 0
AnchorPoint: "A-44" -385 0 basemark 0
AnchorPoint: "A-43" -385 0 basemark 0
AnchorPoint: "A-4" -130 0 mark 0
LayerCount: 2
Fore
SplineSet
6 -587 m 256xd0
 -36 -587 -73 -551 -83 -505 c 256
 -85 -496 -86 -488 -86 -481 c 0
 -86 -445 -64 -423 -32 -423 c 256
 10 -423 46 -459 57 -505 c 256
 59 -513 60 -521 60 -528 c 0
 60 -564 38 -587 6 -587 c 256xd0
-53 -333 m 256
 -95 -333 -131 -297 -142 -251 c 256
 -144 -243 -145 -235 -145 -228 c 0
 -145 -192 -123 -169 -91 -169 c 256
 -49 -169 -11 -205 0 -251 c 256
 2 -259 3 -266 3 -273 c 0xe0
 3 -310 -20 -333 -53 -333 c 256
EndSplineSet
Validated: 1
LCarets2: 1 0 
MultipleSubs2: "Add hairspace after last low mark subtable" sheva hairspace
MultipleSubs2: "Add thinspace before narrow letter subtable" sheva thinspace
MultipleSubs2: "Add hairspace before low marked Qof" sheva hairspace
EndChar

StartChar: hatafsegol
Encoding: 132 1457 39
Width: 0
GlyphClass: 4
Flags: W
HStem: -587 164<-52.5566 54.6826 297.747 404.876> -333 164<-228.876 -121.91 6.90985 113.876 238.91 345.876>
VStem: -248 145<-316.919 -186.269> -71 145<-570.919 -440.269> -12 145<-315.731 -185.081> 220 145<-315.731 -185.081> 279 145<-570.919 -439.451>
AnchorPoint: "A-19" -42.4248 0 mark 0
AnchorPoint: "A-16" -42.4248 0 mark 0
AnchorPoint: "A-13" -297.425 0 mark 0
AnchorPoint: "A-10" -148.675 0 mark 0
AnchorPoint: "A-73" 0.0751953 0 mark 0
AnchorPoint: "A-50" 0.0751953 0 basemark 0
AnchorPoint: "A-49" -475.925 0 basemark 0
AnchorPoint: "A-48" -450.425 0 basemark 0
AnchorPoint: "A-47" 34.0752 0 basemark 0
AnchorPoint: "A-46" 68.0752 0 basemark 0
AnchorPoint: "A-45" -467.425 0 basemark 0
AnchorPoint: "A-44" -467.425 0 basemark 0
AnchorPoint: "A-43" -467.425 0 basemark 0
AnchorPoint: "A-6" 0.0751953 0 mark 0
LayerCount: 2
Fore
SplineSet
371 -587 m 256xe2
 329 -587 292 -551 282 -505 c 256
 280 -496 279 -488 279 -481 c 0
 279 -445 301 -423 333 -423 c 256
 374 -423 410 -459 421 -505 c 256
 423 -514 424 -522 424 -529 c 0
 424 -564 403 -587 371 -587 c 256xe2
312 -333 m 256
 270 -333 234 -297 223 -251 c 256
 221 -243 220 -235 220 -228 c 0
 220 -192 242 -169 274 -169 c 256
 315 -169 351 -205 362 -251 c 256
 364 -260 365 -268 365 -275 c 0xe4
 365 -310 344 -333 312 -333 c 256
42 -169 m 256
 83 -169 119 -205 130 -251 c 256
 132 -260 133 -268 133 -275 c 0
 133 -310 112 -333 80 -333 c 256
 38 -333 2 -297 -9 -251 c 256
 -11 -243 -12 -235 -12 -228 c 0xe8
 -12 -192 10 -169 42 -169 c 256
-18 -423 m 256
 24 -423 60 -459 71 -505 c 256
 73 -514 74 -522 74 -529 c 0
 74 -564 53 -587 20 -587 c 256
 -21 -587 -58 -551 -68 -505 c 256
 -70 -496 -71 -488 -71 -480 c 0xf0
 -71 -445 -50 -423 -18 -423 c 256
-195 -169 m 256
 -153 -169 -117 -205 -106 -251 c 256
 -104 -259 -103 -267 -103 -274 c 0
 -103 -310 -125 -333 -157 -333 c 256
 -198 -333 -234 -297 -245 -251 c 256
 -247 -242 -248 -234 -248 -227 c 0
 -248 -192 -227 -169 -195 -169 c 256
EndSplineSet
Validated: 1
LCarets2: 1 0 
MultipleSubs2: "Add hairspace after last low mark subtable" hatafsegol hairspace
MultipleSubs2: "Add thinspace before narrow letter subtable" hatafsegol thinspace
MultipleSubs2: "Add hairspace before low marked Qof" hatafsegol hairspace
EndChar

StartChar: hatafpatah
Encoding: 133 1458 40
Width: 0
GlyphClass: 4
Flags: W
HStem: -587 164<264.443 372.09> -333 164<206.124 313.09> -288 94<-197 80>
VStem: 187 145<-316.919 -186.269> 246 145<-570.919 -440.269>
AnchorPoint: "A-19" -41.9004 0 mark 0
AnchorPoint: "A-16" -41.9004 0 mark 0
AnchorPoint: "A-13" -296.9 0 mark 0
AnchorPoint: "A-10" -148.15 0 mark 0
AnchorPoint: "A-73" 0.599609 0 mark 0
AnchorPoint: "A-50" 0.599609 0 basemark 0
AnchorPoint: "A-49" -432.9 0 basemark 0
AnchorPoint: "A-48" -415.9 0 basemark 0
AnchorPoint: "A-47" 34.5996 0 basemark 0
AnchorPoint: "A-46" 51.5996 0 basemark 0
AnchorPoint: "A-45" -449.9 0 basemark 0
AnchorPoint: "A-44" -441.4 0 basemark 0
AnchorPoint: "A-43" -449.9 0 basemark 0
AnchorPoint: "A-6" 0.599609 0 mark 0
LayerCount: 2
Fore
SplineSet
101 -288 m 1xa0
 -197 -288 l 1
 -218 -194 l 1
 80 -194 l 1
 101 -288 l 1xa0
337 -587 m 256
 296 -587 259 -551 249 -505 c 256
 247 -496 246 -488 246 -480 c 0
 246 -445 267 -423 299 -423 c 256
 341 -423 377 -459 388 -505 c 256
 390 -513 391 -521 391 -528 c 0x88
 391 -564 369 -587 337 -587 c 256
278 -333 m 256xd0
 237 -333 201 -297 190 -251 c 256
 188 -242 187 -234 187 -227 c 0
 187 -192 208 -169 240 -169 c 256
 282 -169 318 -205 329 -251 c 256
 331 -259 332 -267 332 -274 c 0
 332 -310 310 -333 278 -333 c 256xd0
EndSplineSet
Validated: 1
LCarets2: 1 1 
MultipleSubs2: "Add hairspace after last low mark subtable" hatafpatah hairspace
MultipleSubs2: "Add thinspace before narrow letter subtable" hatafpatah thinspace
MultipleSubs2: "Add hairspace before low marked Qof" hatafpatah hairspace
EndChar

StartChar: hatafqamats
Encoding: 134 1459 41
Width: 0
GlyphClass: 4
Flags: W
HStem: -587 164<257.443 365.09> -333 164<199.124 306.09> -288 94<-203 -69.0029 -35 72>
VStem: -76 41<-321.984 -288> -69 133<-570.082 -476.96> 180 145<-316.919 -186.269> 239 145<-570.919 -440.269>
AnchorPoint: "A-19" -42.875 0 mark 0
AnchorPoint: "A-16" -42.875 0 mark 0
AnchorPoint: "A-13" -297.875 0 mark 0
AnchorPoint: "A-10" -149.125 0 mark 0
AnchorPoint: "A-73" -0.375 0 mark 0
AnchorPoint: "A-50" -0.375 0 basemark 0
AnchorPoint: "A-49" -450.875 0 basemark 0
AnchorPoint: "A-48" -433.875 0 basemark 0
AnchorPoint: "A-47" 25.125 0 basemark 0
AnchorPoint: "A-46" 33.625 0 basemark 0
AnchorPoint: "A-45" -467.875 0 basemark 0
AnchorPoint: "A-44" -467.875 0 basemark 0
AnchorPoint: "A-43" -467.875 0 basemark 0
AnchorPoint: "A-6" -0.375 0 mark 0
LayerCount: 2
Fore
SplineSet
-76 -288 m 1xb0
 -203 -288 l 1
 -224 -194 l 1
 72 -194 l 1
 93 -288 l 1
 -35 -288 l 1xb0
 -27 -322 l 1
 -26 -324 l 0
 -19 -356 -7 -386 8 -410 c 9
 64 -500 l 17
 59 -530 54 -558 34 -584 c 1
 20 -588 6 -588 -8 -584 c 1
 -39 -562 -51 -536 -69 -504 c 9
 -60 -410 l 17
 -59 -407 -59 -403 -59 -398 c 0
 -59 -374 -67 -336 -69 -326 c 0
 -69 -322 l 9xa8
 -69 -322 -73 -300 -76 -288 c 1xb0
330 -587 m 256
 289 -587 252 -551 242 -505 c 256
 240 -496 239 -488 239 -480 c 0
 239 -445 260 -423 292 -423 c 256
 334 -423 370 -459 381 -505 c 256
 383 -513 384 -521 384 -528 c 0x82
 384 -564 362 -587 330 -587 c 256
271 -333 m 256xc4
 230 -333 194 -297 183 -251 c 256
 181 -242 180 -234 180 -227 c 0
 180 -192 201 -169 233 -169 c 256
 275 -169 311 -205 322 -251 c 256
 324 -259 325 -267 325 -274 c 0
 325 -310 303 -333 271 -333 c 256xc4
EndSplineSet
Validated: 1
LCarets2: 1 0 
MultipleSubs2: "Add hairspace after last low mark subtable" hatafqamats hairspace
MultipleSubs2: "Add thinspace before narrow letter subtable" hatafqamats thinspace
MultipleSubs2: "Add hairspace before low marked Qof" hatafqamats hairspace
EndChar

StartChar: hiriq
Encoding: 135 1460 42
Width: 0
GlyphClass: 4
Flags: W
HStem: -333 164<-264.09 -155.91>
VStem: -283 146<-315.731 -186.269>
AnchorPoint: "A-59" -37.6504 0 mark 0
AnchorPoint: "A-17" -310.5 0 mark 0
AnchorPoint: "A-14" -310.5 0 mark 0
AnchorPoint: "A-11" -565.5 0 mark 0
AnchorPoint: "A-8" -416.75 0 mark 0
AnchorPoint: "A-70" -268 0 mark 0
AnchorPoint: "A-50" -268 0 basemark 0
AnchorPoint: "A-49" -480.5 0 basemark 0
AnchorPoint: "A-49" -268 0 mark 0
AnchorPoint: "A-48" -472 0 basemark 0
AnchorPoint: "A-47" -446.5 0 basemark 0
AnchorPoint: "A-46" -429.5 0 basemark 0
AnchorPoint: "A-45" -523 0 basemark 0
AnchorPoint: "A-44" -523 0 basemark 0
AnchorPoint: "A-43" -523 0 basemark 0
AnchorPoint: "A-4" -268 0 mark 0
LayerCount: 2
Fore
SplineSet
-191 -333 m 256
 -233 -333 -269 -297 -280 -251 c 256
 -282 -243 -283 -235 -283 -228 c 0
 -283 -192 -261 -169 -229 -169 c 256
 -187 -169 -151 -205 -140 -251 c 256
 -138 -259 -137 -267 -137 -274 c 0
 -137 -310 -159 -333 -191 -333 c 256
EndSplineSet
Validated: 1
LCarets2: 1 -40 
MultipleSubs2: "Add hairspace after last low mark subtable" hiriq hairspace
MultipleSubs2: "Add thinspace before narrow letter subtable" hiriq thinspace
MultipleSubs2: "Add hairspace before low marked Qof" hiriq hairspace
EndChar

StartChar: tsere
Encoding: 136 1461 43
Width: 0
GlyphClass: 4
Flags: W
HStem: -333 164<-104.09 4.09015 111.91 220.09>
VStem: -123 146<-315.731 -186.269> 93 146<-315.731 -186.269>
AnchorPoint: "A-18" -42.5 0 mark 0
AnchorPoint: "A-15" -42.5 0 mark 0
AnchorPoint: "A-12" -297.5 0 mark 0
AnchorPoint: "A-9" -148.75 0 mark 0
AnchorPoint: "A-71" 0 0 mark 0
AnchorPoint: "A-50" 0 0 basemark 0
AnchorPoint: "A-49" -348.5 0 basemark 0
AnchorPoint: "A-48" -331.5 0 basemark 0
AnchorPoint: "A-47" -85 0 basemark 0
AnchorPoint: "A-46" -68 0 basemark 0
AnchorPoint: "A-45" -365.5 0 basemark 0
AnchorPoint: "A-44" -340 0 basemark 0
AnchorPoint: "A-43" -365.5 0 basemark 0
AnchorPoint: "A-5" 0 0 mark 0
LayerCount: 2
Fore
SplineSet
236 -251 m 256
 238 -259 239 -267 239 -274 c 0
 239 -310 217 -333 185 -333 c 256
 143 -333 107 -297 96 -251 c 256
 94 -243 93 -235 93 -228 c 0
 93 -192 115 -169 147 -169 c 256
 189 -169 225 -205 236 -251 c 256
20 -251 m 256
 22 -259 23 -267 23 -274 c 0
 23 -310 1 -333 -31 -333 c 256
 -73 -333 -109 -297 -120 -251 c 256
 -122 -243 -123 -235 -123 -228 c 0
 -123 -192 -101 -169 -69 -169 c 256
 -27 -169 9 -205 20 -251 c 256
EndSplineSet
Validated: 1
LCarets2: 1 0 
MultipleSubs2: "Add hairspace after last low mark subtable" tsere hairspace
MultipleSubs2: "Add thinspace before narrow letter subtable" tsere thinspace
MultipleSubs2: "Add hairspace before low marked Qof" tsere hairspace
EndChar

StartChar: segol
Encoding: 137 1462 44
Width: 0
GlyphClass: 4
Flags: W
HStem: -577 164<59.9098 168.253> -333 164<-114.09 -5.90985 121.91 230.09>
VStem: -133 146<-315.731 -186.269> 41 146<-559.731 -429.081> 103 146<-315.731 -186.269>
AnchorPoint: "A-18" -42.5 0 mark 0
AnchorPoint: "A-15" -42.5 0 mark 0
AnchorPoint: "A-12" -297.5 0 mark 0
AnchorPoint: "A-9" -148.75 0 mark 0
AnchorPoint: "A-71" 0 0 mark 0
AnchorPoint: "A-50" 0 0 basemark 0
AnchorPoint: "A-49" -348.5 0 basemark 0
AnchorPoint: "A-48" -331.5 0 basemark 0
AnchorPoint: "A-47" -85 0 basemark 0
AnchorPoint: "A-46" -42.5 0 basemark 0
AnchorPoint: "A-45" -365.5 0 basemark 0
AnchorPoint: "A-44" -355 0 basemark 0
AnchorPoint: "A-43" -365.5 0 basemark 0
AnchorPoint: "A-5" 0 0 mark 0
LayerCount: 2
Fore
SplineSet
157 -169 m 256xe8
 199 -169 235 -205 246 -251 c 256
 248 -259 249 -267 249 -274 c 0
 249 -310 227 -333 195 -333 c 256
 153 -333 117 -297 106 -251 c 256
 104 -243 103 -235 103 -228 c 0
 103 -192 125 -169 157 -169 c 256xe8
95 -413 m 256
 137 -413 174 -449 184 -495 c 256
 186 -504 187 -512 187 -519 c 0
 187 -555 165 -577 133 -577 c 256
 91 -577 55 -541 44 -495 c 256
 42 -487 41 -479 41 -472 c 0xf0
 41 -436 63 -413 95 -413 c 256
-79 -169 m 256
 -37 -169 -1 -205 10 -251 c 256
 12 -259 13 -267 13 -274 c 0
 13 -310 -9 -333 -41 -333 c 256
 -83 -333 -119 -297 -130 -251 c 256
 -132 -243 -133 -235 -133 -228 c 0
 -133 -192 -111 -169 -79 -169 c 256
EndSplineSet
Validated: 1
LCarets2: 1 0 
MultipleSubs2: "Add hairspace after last low mark subtable" segol hairspace
MultipleSubs2: "Add thinspace before narrow letter subtable" segol thinspace
MultipleSubs2: "Add hairspace before low marked Qof" segol hairspace
EndChar

StartChar: patah
Encoding: 138 1463 45
Width: 0
GlyphClass: 4
Flags: W
HStem: -288 94<-84 194>
VStem: -105 320
AnchorPoint: "A-18" -42.5752 0 mark 0
AnchorPoint: "A-15" -42.5752 0 mark 0
AnchorPoint: "A-12" -297.575 0 mark 0
AnchorPoint: "A-9" -148.825 0 mark 0
AnchorPoint: "A-71" -0.0751953 0 mark 0
AnchorPoint: "A-50" -0.0751953 0 basemark 0
AnchorPoint: "A-49" -323.075 0 basemark 0
AnchorPoint: "A-50" -0.0751953 0 mark 0
AnchorPoint: "A-48" -289.075 0 basemark 0
AnchorPoint: "A-47" -93.5752 0 basemark 0
AnchorPoint: "A-46" -76.5752 0 basemark 0
AnchorPoint: "A-45" -340.075 0 basemark 0
AnchorPoint: "A-44" -314.575 0 basemark 0
AnchorPoint: "A-43" -340.075 0 basemark 0
AnchorPoint: "A-5" -0.0751953 0 mark 0
LayerCount: 2
Fore
SplineSet
215 -288 m 1
 -84 -288 l 1
 -105 -194 l 1
 194 -194 l 1
 215 -288 l 1
EndSplineSet
Validated: 1
LCarets2: 1 0 
MultipleSubs2: "Add hairspace after last low mark subtable" patah hairspace
MultipleSubs2: "Add thinspace before narrow letter subtable" patah thinspace
MultipleSubs2: "Add hairspace before low marked Qof" patah hairspace
EndChar

StartChar: qamats
Encoding: 139 1464 46
Width: 0
GlyphClass: 4
Flags: W
HStem: -288 94<-82 46 87 194>
VStem: 46 139<-563.673 -476.96> 54 42<-386.096 -322.047 -322 -288>
AnchorPoint: "A-18" -42.4248 0 mark 0
AnchorPoint: "A-15" -42.4248 0 mark 0
AnchorPoint: "A-12" -297.425 0 mark 0
AnchorPoint: "A-9" -148.675 0 mark 0
AnchorPoint: "A-71" 0.0751953 0 mark 0
AnchorPoint: "A-50" 0.0751953 0 basemark 0
AnchorPoint: "A-49" -322.925 0 basemark 0
AnchorPoint: "A-48" -288.925 0 basemark 0
AnchorPoint: "A-47" -93.4248 0 basemark 0
AnchorPoint: "A-46" -59.4248 0 basemark 0
AnchorPoint: "A-45" -339.925 0 basemark 0
AnchorPoint: "A-44" -305.925 0 basemark 0
AnchorPoint: "A-43" -339.925 0 basemark 0
AnchorPoint: "A-5" 0.0751953 0 mark 0
LayerCount: 2
Fore
SplineSet
46 -288 m 1xc0
 -82 -288 l 1
 -103 -194 l 1
 194 -194 l 1
 215 -288 l 1
 87 -288 l 1
 95 -322 l 1
 96 -323 96 -324 96 -325 c 0xa0
 103 -357 115 -386 129 -410 c 9
 185 -500 l 17
 181 -530 175 -559 155 -585 c 1
 142 -588 128 -588 114 -584 c 1
 82 -562 64 -532 46 -500 c 9xc0
 61 -410 l 17
 62 -406 62 -401 62 -395 c 0
 62 -372 56 -336 54 -326 c 0
 54 -323 l 9xa0
 54 -323 49 -301 46 -288 c 1xc0
EndSplineSet
Validated: 1
LCarets2: 1 0 
MultipleSubs2: "Add hairspace after last low mark subtable" qamats hairspace
MultipleSubs2: "Add thinspace before narrow letter subtable" qamats thinspace
MultipleSubs2: "Add hairspace before low marked Qof" qamats hairspace
EndChar

StartChar: holam
Encoding: 140 1465 47
Width: 0
GlyphClass: 4
Flags: W
HStem: 1222 164<-585.09 -476.91>
VStem: -604 146<1239.27 1368.73>
AnchorPoint: "A-35" -570 0 basemark 0
AnchorPoint: "A-34" 229 0 basemark 0
AnchorPoint: "A-33" -76.4238 200 basemark 0
AnchorPoint: "A-22" -442.5 0 mark 0
AnchorPoint: "A-21" -442.5 0 mark 0
AnchorPoint: "A-20" -442.5 0 mark 0
LayerCount: 2
Fore
SplineSet
-512 1222 m 256
 -554 1222 -590 1258 -601 1304 c 256
 -603 1312 -604 1320 -604 1327 c 0
 -604 1363 -582 1386 -550 1386 c 256
 -508 1386 -472 1350 -461 1304 c 256
 -459 1296 -458 1288 -458 1281 c 0
 -458 1245 -480 1222 -512 1222 c 256
EndSplineSet
Validated: 1
LCarets2: 1 -18 
Position2: "Move Holam to Left subtable" dx=-162 dy=0 dh=0 dv=0
EndChar

StartChar: holamhaser
Encoding: 141 1466 48
Width: 0
GlyphClass: 4
Flags: W
HStem: 1222 164<-585.09 -476.91>
VStem: -604 146<1239.27 1368.73>
AnchorPoint: "A-35" -570 0 basemark 0
AnchorPoint: "A-34" -102.5 0 basemark 0
AnchorPoint: "A-33" -76.4238 200 basemark 0
LayerCount: 2
Fore
SplineSet
-512 1222 m 256
 -554 1222 -590 1258 -601 1304 c 256
 -603 1312 -604 1320 -604 1327 c 0
 -604 1363 -582 1386 -550 1386 c 256
 -508 1386 -472 1350 -461 1304 c 256
 -459 1296 -458 1288 -458 1281 c 0
 -458 1245 -480 1222 -512 1222 c 256
EndSplineSet
Validated: 1
EndChar

StartChar: qubuts
Encoding: 142 1467 49
Width: 0
GlyphClass: 4
Flags: W
HStem: -591 159<222.145 327.795> -457 159<34.1453 139.795> -323 159<-154.855 -49.2051>
VStem: -172 141<-307.12 -179.947> 17 141<-441.12 -313.947> 205 141<-575.75 -447.947>
AnchorPoint: "A-18" -42.5 0 mark 0
AnchorPoint: "A-15" -42.5 0 mark 0
AnchorPoint: "A-12" -297.5 0 mark 0
AnchorPoint: "A-9" -148.75 0 mark 0
AnchorPoint: "A-72" 0 0 mark 0
AnchorPoint: "A-50" 0 0 basemark 0
AnchorPoint: "A-49" -374 0 basemark 0
AnchorPoint: "A-48" -357 0 basemark 0
AnchorPoint: "A-47" -59.5 0 basemark 0
AnchorPoint: "A-46" -25.5 0 basemark 0
AnchorPoint: "A-45" -382.5 0 basemark 0
AnchorPoint: "A-44" -382.5 0 basemark 0
AnchorPoint: "A-43" -382.5 0 basemark 0
AnchorPoint: "A-5" 0 0 mark 0
LayerCount: 2
Fore
SplineSet
-83 -323 m 256x3c
 -123 -323 -159 -287 -169 -244 c 256
 -171 -236 -172 -229 -172 -222 c 0
 -172 -188 -153 -164 -120 -164 c 256
 -80 -164 -44 -200 -34 -244 c 256
 -32 -252 -31 -260 -31 -267 c 0
 -31 -301 -52 -323 -83 -323 c 256x3c
293 -591 m 256x9c
 253 -591 218 -555 208 -512 c 256
 206 -504 205 -497 205 -490 c 0
 205 -456 224 -432 257 -432 c 256
 297 -432 333 -468 343 -512 c 256
 345 -520 346 -528 346 -535 c 0
 346 -569 325 -591 293 -591 c 256x9c
106 -457 m 256x5c
 66 -457 30 -421 20 -378 c 256
 18 -370 17 -363 17 -356 c 0
 17 -322 36 -298 69 -298 c 256
 109 -298 145 -334 155 -378 c 256
 157 -386 158 -394 158 -401 c 0
 158 -435 137 -457 106 -457 c 256x5c
EndSplineSet
Validated: 1
LCarets2: 1 0 
MultipleSubs2: "Add hairspace after last low mark subtable" qubuts hairspace
MultipleSubs2: "Add thinspace before narrow letter subtable" qubuts thinspace
MultipleSubs2: "Add hairspace before low marked Qof" qubuts hairspace
EndChar

StartChar: dagesh
Encoding: 143 1468 50
Width: 0
GlyphClass: 4
Flags: W
HStem: 437 164<-174.09 -65.7471>
VStem: -193 146<454.269 584.919>
AnchorPoint: "A-3" 0 0 mark 0
LayerCount: 2
Fore
SplineSet
-101 437 m 256
 -143 437 -179 473 -190 519 c 256
 -192 527 -193 535 -193 542 c 0
 -193 578 -171 601 -139 601 c 256
 -97 601 -60 565 -50 519 c 256
 -48 511 -47 503 -47 496 c 0
 -47 460 -69 437 -101 437 c 256
EndSplineSet
Validated: 1
LCarets2: 1 0 
EndChar

StartChar: meteg
Encoding: 144 1469 51
Width: 0
GlyphClass: 4
Flags: W
HStem: -572 390
VStem: -108 163
AnchorPoint: "A-63" -266.925 0 mark 0
AnchorPoint: "A-62" -385.925 0 mark 0
AnchorPoint: "A-61" -496.425 0 mark 0
AnchorPoint: "A-17" -156.425 0 mark 0
AnchorPoint: "A-11" -432.675 0 mark 0
AnchorPoint: "A-8" -283.925 0 mark 0
AnchorPoint: "A-73" -538.925 0 basemark 0
AnchorPoint: "A-72" -453.925 0 basemark 0
AnchorPoint: "A-71" -419.925 0 basemark 0
AnchorPoint: "A-70" -351.925 0 basemark 0
AnchorPoint: "A-54" -368.925 0 basemark 0
AnchorPoint: "A-53" -411.425 0 basemark 0
AnchorPoint: "A-52" -411.425 0 basemark 0
AnchorPoint: "A-51" -411.425 0 basemark 0
AnchorPoint: "A-54" -139.425 0 mark 0
AnchorPoint: "A-50" -402.925 0 basemark 0
AnchorPoint: "A-49" -326.425 0 basemark 0
AnchorPoint: "A-48" -368.925 0 basemark 0
AnchorPoint: "A-47" -300.925 0 basemark 0
AnchorPoint: "A-46" -317.925 0 basemark 0
AnchorPoint: "A-45" -394.425 0 basemark 0
AnchorPoint: "A-44" -394.425 0 basemark 0
AnchorPoint: "A-43" -368.925 0 basemark 0
AnchorPoint: "A-48" -139.425 0 mark 0
AnchorPoint: "A-4" -113.925 0 mark 0
LayerCount: 2
Fore
SplineSet
55 -572 m 1
 -18 -572 l 1
 -108 -182 l 1
 -35 -182 l 1
 55 -572 l 1
EndSplineSet
Validated: 1
LCarets2: 1 0 
MultipleSubs2: "Add hairspace after last low mark subtable" meteg hairspace
MultipleSubs2: "Add thinspace before narrow letter subtable" meteg thinspace
MultipleSubs2: "Add hairspace before low marked Qof" meteg hairspace
EndChar

StartChar: makaf
Encoding: 145 1470 52
Width: 631
GlyphClass: 2
Flags: W
HStem: 828 222<-139.086 314.764>
VStem: -166 513<849.61 1038.48>
AnchorPoint: "A-32" 320.02 0 basechar 0
AnchorPoint: "A-31" 320.02 0 basechar 0
AnchorPoint: "A-30" 405.02 0 basechar 0
AnchorPoint: "A-29" 405.02 0 basechar 0
AnchorPoint: "A-28" 473.02 0 basechar 0
AnchorPoint: "A-27" 48.0195 0 basechar 0
AnchorPoint: "A-26" 473.02 0 basechar 0
AnchorPoint: "A-25" 48.0195 0 basechar 0
AnchorPoint: "A-24" 320.02 0 basechar 0
AnchorPoint: "A-23" 320.02 0 basechar 0
LayerCount: 2
Fore
SplineSet
285 1050 m 1
 318 1050 344 1033 350 1005 c 0
 353 993 353 980 347 965 c 1
 340 925 318 865 287 828 c 1
 -91 828 l 1
 -138 828 -160 863 -166 887 c 0
 -169 900 -169 911 -166 914 c 1
 -160 980 -133 1015 -115 1050 c 1
 285 1050 l 1
EndSplineSet
Validated: 1
EndChar

StartChar: rafe
Encoding: 146 1471 53
Width: 0
GlyphClass: 4
Flags: W
HStem: 1224 94<-477 -110>
VStem: -498 409
AnchorPoint: "A-24" 0 0 mark 0
LayerCount: 2
Fore
SplineSet
-89 1224 m 1
 -477 1224 l 1
 -498 1318 l 1
 -110 1318 l 1
 -89 1224 l 1
EndSplineSet
Validated: 1
LCarets2: 1 0 
EndChar

StartChar: paseq
Encoding: 147 1472 54
Width: 589
GlyphClass: 2
Flags: W
VStem: -77 445
LayerCount: 2
Fore
SplineSet
368 -163 m 1
 245 -163 l 1
 -77 1230 l 1
 46 1230 l 1
 368 -163 l 1
EndSplineSet
Validated: 1
EndChar

StartChar: shindot
Encoding: 148 1473 55
Width: 0
GlyphClass: 4
Flags: W
HStem: 1222 164<32.9098 141.09>
VStem: 14 146<1239.27 1368.73>
AnchorPoint: "A-60" 58.2002 0 mark 0
LayerCount: 2
Fore
SplineSet
106 1222 m 256
 64 1222 28 1258 17 1304 c 256
 15 1312 14 1320 14 1327 c 0
 14 1363 36 1386 68 1386 c 256
 110 1386 146 1350 157 1304 c 256
 159 1296 160 1288 160 1281 c 0
 160 1245 138 1222 106 1222 c 256
EndSplineSet
Validated: 1
EndChar

StartChar: sindot
Encoding: 149 1474 56
Width: 0
GlyphClass: 4
Flags: W
HStem: 1222 164<-775.09 -666.91>
VStem: -794 146<1239.27 1368.73>
AnchorPoint: "A-60" -63 0 mark 0
LayerCount: 2
Fore
SplineSet
-702 1222 m 256
 -744 1222 -780 1258 -791 1304 c 256
 -793 1312 -794 1320 -794 1327 c 0
 -794 1363 -772 1386 -740 1386 c 256
 -698 1386 -662 1350 -651 1304 c 256
 -649 1296 -648 1288 -648 1281 c 0
 -648 1245 -670 1222 -702 1222 c 256
EndSplineSet
Validated: 1
EndChar

StartChar: sofpasuq
Encoding: 150 1475 57
Width: 490
GlyphClass: 2
Flags: W
VStem: -101 408
LayerCount: 2
Fore
SplineSet
-28 973 m 1
 100 864 146 864 150 844 c 0
 151 840 152 835 151 832 c 2
 120 751 l 1
 93 668 l 1
 91 665 89 663 85 663 c 0
 55 663 -58 744 -101 783 c 0
 -107 789 -108 795 -105 802 c 0
 -87 859 -69 917 -46 970 c 0
 -44 975 -36 978 -28 973 c 1
130 292 m 1
 257 183 301 183 307 164 c 0
 310 158 309 154 308 151 c 2
 277 70 l 1
 250 -13 l 1
 249 -16 246 -18 242 -18 c 0
 212 -18 99 63 56 102 c 0
 50 108 50 114 52 121 c 0
 70 178 89 236 111 289 c 0
 113 294 121 297 130 292 c 1
EndSplineSet
Validated: 1
EndChar

StartChar: upperdot
Encoding: 151 1476 58
Width: 0
GlyphClass: 4
Flags: W
HStem: 1674 323
VStem: -558 267
AnchorPoint: "A-58" -0.150391 0 mark 0
LayerCount: 2
Fore
SplineSet
-291 1831 m 1
 -386 1674 l 1
 -558 1835 l 1
 -465 1997 l 1
 -291 1831 l 1
EndSplineSet
Validated: 1
LCarets2: 1 0 
EndChar

StartChar: lowerdot
Encoding: 152 1477 59
Width: 0
GlyphClass: 4
Flags: W
HStem: -943 323
VStem: 47 266
AnchorPoint: "A-58" -0.150391 0 mark 0
LayerCount: 2
Fore
SplineSet
313 -786 m 1
 218 -943 l 1
 47 -782 l 1
 139 -620 l 1
 313 -786 l 1
EndSplineSet
Validated: 1
LCarets2: 1 0 
EndChar

StartChar: nunhapukha
Encoding: 153 1478 60
Width: 651
GlyphClass: 2
Flags: W
HStem: -54 228<351.459 526.254>
VStem: -94 404<849.6 1060.59> 50 178<222.194 537.214> 50 100<572.804 824.499>
AnchorPoint: "A-32" 355.725 0 basechar 0
AnchorPoint: "A-31" 355.725 0 basechar 0
AnchorPoint: "A-30" 500.225 0 basechar 0
AnchorPoint: "A-29" 500.225 0 basechar 0
AnchorPoint: "A-28" 500.225 0 basechar 0
AnchorPoint: "A-27" 202.725 0 basechar 0
AnchorPoint: "A-26" 466.225 0 basechar 0
AnchorPoint: "A-25" 32.7246 0 basechar 0
AnchorPoint: "A-24" 355.725 0 basechar 0
AnchorPoint: "A-23" 355.725 0 basechar 0
AnchorPoint: "A-2" 355.725 0 basechar 0
AnchorPoint: "A-1" 355.725 0 basechar 0
AnchorPoint: "A-0" 355.725 0 basechar 0
LayerCount: 2
Fore
SplineSet
-78 1088 m 1xc0
 -8 1070 54 1061 107 1061 c 0
 182 1061 240 1079 280 1116 c 1
 296 1050 310 985 310 923 c 0xc0
 310 897 307 872 302 848 c 1
 295 849 287 849 280 849 c 0
 231 849 187 831 150 788 c 1x90
 154 557 226 472 228 246 c 1xa0
 288 211 353 179 486 174 c 1
 536 127 572 76 572 14 c 0
 572 -7 567 -30 558 -54 c 1
 402 -28 253 8 124 76 c 1
 92 109 61 151 50 200 c 1x90
 49 208 50 216 50 224 c 0
 50 239 50 254 50 268 c 0xa0
 50 370 66 442 66 570 c 1
 56 630 50 678 50 719 c 0x90
 50 760 56 794 60 826 c 1
 47 822 34 821 21 821 c 0
 -12 821 -43 831 -74 842 c 1
 -78 896 -94 951 -94 1005 c 0
 -94 1033 -90 1060 -78 1088 c 1xc0
EndSplineSet
Validated: 1
EndChar

StartChar: qamatsqatan
Encoding: 154 1479 61
Width: 0
GlyphClass: 4
Flags: W
HStem: -255 71<-89 49.0979 79 190>
VStem: 57 37<-392.466 -257.877>
AnchorPoint: "A-18" -42.5 0 mark 0
AnchorPoint: "A-15" -42.5 0 mark 0
AnchorPoint: "A-12" -297.5 0 mark 0
AnchorPoint: "A-9" -148.75 0 mark 0
AnchorPoint: "A-50" 0 0 basemark 0
AnchorPoint: "A-49" -323 0 basemark 0
AnchorPoint: "A-48" -289 0 basemark 0
AnchorPoint: "A-47" 0 0 basemark 0
AnchorPoint: "A-46" 0 0 basemark 0
AnchorPoint: "A-45" 0 0 basemark 0
AnchorPoint: "A-44" 0 0 basemark 0
AnchorPoint: "A-43" 0 0 basemark 0
AnchorPoint: "A-5" 0 0 mark 0
LayerCount: 2
Back
SplineSet
41 -278 m 1xc0
 -84 -278 l 1
 -106 -184 l 1
 190 -184 l 1
 212 -278 l 1
 88 -278 l 1
 98 -320 l 1xc0
 98 -322 98 -322 99 -324 c 0
 106 -356 127 -436 141 -460 c 9
 198 -550 l 17
 194 -580 188 -610 168 -636 c 1
 154 -638 137 -638 123 -634 c 1
 92 -612 75 -582 59 -550 c 9xa0
 73 -460 l 17
 73 -458 74 -456 74 -453 c 0
 74 -424 55 -337 52 -326 c 0
 52 -322 l 9
 52 -322 44 -292 41 -278 c 1xc0
EndSplineSet
Fore
SplineSet
41 -255 m 1
 -89 -255 l 1
 -106 -184 l 1
 190 -184 l 1
 207 -255 l 1
 79 -255 l 1
 94 -320 l 1
 94 -322 94 -322 95 -324 c 0
 102 -356 122 -436 134 -460 c 9
 180 -535 l 17
 180 -565 179 -610 164 -636 c 1
 153 -638 139 -638 128 -634 c 1
 102 -612 82 -586 68 -554 c 9
 80 -460 l 17
 80 -459 80 -458 80 -456 c 0
 80 -431 60 -337 57 -326 c 0
 57 -322 l 9
 57 -322 44 -269 41 -255 c 1
EndSplineSet
Validated: 1
MultipleSubs2: "Add hairspace after last low mark subtable" qamatsqatan hairspace
MultipleSubs2: "Add thinspace before narrow letter subtable" qamatsqatan thinspace
MultipleSubs2: "Add hairspace before low marked Qof" qamatsqatan hairspace
EndChar

StartChar: alef
Encoding: 155 1488 62
Width: 1115
GlyphClass: 2
Flags: W
HStem: 51 209<332.411 482.781>
VStem: 63 103<370.893 634.025> 652 91<573.542 776.917>
AnchorPoint: "A-69" 628.975 0 basechar 0
AnchorPoint: "A-68" 628.975 0 basechar 0
AnchorPoint: "A-67" 628.975 0 basechar 0
AnchorPoint: "A-66" 628.975 0 basechar 0
AnchorPoint: "A-65" 628.975 0 basechar 0
AnchorPoint: "A-64" 628.975 0 basechar 0
AnchorPoint: "A-63" 628.975 0 basechar 0
AnchorPoint: "A-62" 628.975 0 basechar 0
AnchorPoint: "A-61" 628.975 0 basechar 0
AnchorPoint: "A-59" 123.225 0 basechar 0
AnchorPoint: "A-55" 922.225 0 basechar 0
AnchorPoint: "A-42" 650.225 0 basechar 0
AnchorPoint: "A-39" 628.975 0 basechar 0
AnchorPoint: "A-36" 628.975 0 basechar 0
AnchorPoint: "A-21" -242.275 0 basechar 0
AnchorPoint: "A-16" 628.975 0 basechar 0
AnchorPoint: "A-15" 628.975 0 basechar 0
AnchorPoint: "A-14" 628.975 0 basechar 0
AnchorPoint: "A-13" 628.975 0 basechar 0
AnchorPoint: "A-12" 628.975 0 basechar 0
AnchorPoint: "A-11" 628.975 0 basechar 0
AnchorPoint: "A-10" 628.975 0 basechar 0
AnchorPoint: "A-9" 628.975 0 basechar 0
AnchorPoint: "A-8" 628.975 0 basechar 0
AnchorPoint: "A-58" 628.975 0 basechar 0
AnchorPoint: "A-41" 628.975 0 basechar 0
AnchorPoint: "A-40" 628.975 0 basechar 0
AnchorPoint: "A-32" 628.975 0 basechar 0
AnchorPoint: "A-31" 628.975 0 basechar 0
AnchorPoint: "A-30" 628.975 0 basechar 0
AnchorPoint: "A-29" 628.975 0 basechar 0
AnchorPoint: "A-28" 535.475 0 basechar 0
AnchorPoint: "A-27" 628.975 0 basechar 0
AnchorPoint: "A-26" 922.225 0 basechar 0
AnchorPoint: "A-25" 250.725 0 basechar 0
AnchorPoint: "A-24" 628.975 0 basechar 0
AnchorPoint: "A-23" 628.975 0 basechar 0
AnchorPoint: "A-20" 157.225 0 basechar 0
AnchorPoint: "A-7" 628.975 0 basechar 0
AnchorPoint: "A-6" 628.975 0 basechar 0
AnchorPoint: "A-5" 628.975 0 basechar 0
AnchorPoint: "A-4" 628.975 0 basechar 0
AnchorPoint: "A-2" 628.975 0 basechar 0
AnchorPoint: "A-1" 628.975 0 basechar 0
AnchorPoint: "A-0" 628.975 0 basechar 0
LayerCount: 2
Fore
SplineSet
691 458 m 1
 803 355 875 305 1002 219 c 1
 1003 206 1003 192 1003 179 c 0
 1003 84 987 -9 983 -9 c 1
 691 212 507 384 324 594 c 1
 315 604 295 640 249 650 c 1
 207 650 166 598 166 514 c 0
 166 494 168 471 174 447 c 1
 202 324 338 260 407 260 c 0
 431 260 458 268 484 287 c 1
 497 127 498 51 498 51 c 17
 393 51 316 1 237 -49 c 9
 207 -5 l 17
 208 58 233 98 255 141 c 1
 177 201 99 302 81 383 c 1
 69 436 63 486 63 533 c 0
 63 646 94 742 129 827 c 1
 22 924 l 9
 123 1092 l 17
 244 895 427 710 588 552 c 1
 637 596 652 647 652 695 c 0
 652 718 648 740 644 760 c 1
 630 817 592 866 529 903 c 1
 541 975 552 1046 582 1123 c 1
 660 1044 748 989 839 943 c 1
 831 872 815 807 776 767 c 9
 726 775 l 17
 737 729 743 681 743 636 c 0
 743 564 727 498 691 458 c 1
EndSplineSet
Validated: 1
LCarets2: 1 90 
MultipleSubs2: "Add hairspace before low marked Qof" alef hairspace
Substitution2: "'jalt' Wide Letter Alternatives in Hebrew subtable" alef.wide
EndChar

StartChar: bet
Encoding: 156 1489 63
Width: 995
GlyphClass: 2
Flags: W
HStem: -75 226<140.733 564.973> 828 214<93.6174 494.584>
AnchorPoint: "A-69" 532.55 0 basechar 0
AnchorPoint: "A-68" 532.55 0 basechar 0
AnchorPoint: "A-67" 532.55 0 basechar 0
AnchorPoint: "A-66" 532.55 0 basechar 0
AnchorPoint: "A-65" 532.55 0 basechar 0
AnchorPoint: "A-64" 532.55 0 basechar 0
AnchorPoint: "A-63" 532.55 0 basechar 0
AnchorPoint: "A-62" 532.55 0 basechar 0
AnchorPoint: "A-61" 532.55 0 basechar 0
AnchorPoint: "A-59" 103.3 0 basechar 0
AnchorPoint: "A-55" 757.8 0 basechar 0
AnchorPoint: "A-42" 532.55 0 basechar 0
AnchorPoint: "A-39" 528.3 0 basechar 0
AnchorPoint: "A-36" 532.55 0 basechar 0
AnchorPoint: "A-21" -262.2 0 basechar 0
AnchorPoint: "A-16" 532.55 0 basechar 0
AnchorPoint: "A-15" 532.55 0 basechar 0
AnchorPoint: "A-14" 532.55 0 basechar 0
AnchorPoint: "A-13" 532.55 0 basechar 0
AnchorPoint: "A-12" 532.55 0 basechar 0
AnchorPoint: "A-11" 532.55 0 basechar 0
AnchorPoint: "A-10" 541.05 0 basechar 0
AnchorPoint: "A-9" 541.05 0 basechar 0
AnchorPoint: "A-8" 532.55 0 basechar 0
AnchorPoint: "A-58" 528.3 0 basechar 0
AnchorPoint: "A-41" 532.55 0 basechar 0
AnchorPoint: "A-40" 532.55 0 basechar 0
AnchorPoint: "A-32" 528.3 0 basechar 0
AnchorPoint: "A-31" 528.3 0 basechar 0
AnchorPoint: "A-30" 528.3 0 basechar 0
AnchorPoint: "A-29" 545.3 0 basechar 0
AnchorPoint: "A-28" 515.55 0 basechar 0
AnchorPoint: "A-27" 511.3 0 basechar 0
AnchorPoint: "A-26" 757.8 0 basechar 0
AnchorPoint: "A-25" 162.8 0 basechar 0
AnchorPoint: "A-24" 532.55 0 basechar 0
AnchorPoint: "A-23" 528.3 0 basechar 0
AnchorPoint: "A-20" 86.2998 0 basechar 0
AnchorPoint: "A-7" 532.55 0 basechar 0
AnchorPoint: "A-6" 532.55 0 basechar 0
AnchorPoint: "A-5" 532.55 0 basechar 0
AnchorPoint: "A-4" 532.55 0 basechar 0
AnchorPoint: "A-2" 528.3 0 basechar 0
AnchorPoint: "A-1" 528.3 0 basechar 0
AnchorPoint: "A-0" 528.3 0 basechar 0
LayerCount: 2
Fore
SplineSet
646 210 m 1
 527 722 l 1
 520 753 494 808 441 828 c 9
 61 828 l 25
 6 928 l 25
 -29 956 l 17
 -27 1034 -7 1099 25 1140 c 1
 64 1106 137 1042 219 1042 c 1
 245 1042 268 1042 289 1042 c 0
 350 1042 391 1043 445 1052 c 1
 573 1052 623 859 671 648 c 0
 676 629 680 609 685 590 c 0
 716 454 744 335 800 242 c 9
 910 262 l 17
 912 223 916 179 916 135 c 0
 916 92 912 50 901 12 c 1
 661 -22 453 -75 149 -75 c 1
 139 -31 135 10 135 50 c 0
 135 85 138 120 142 154 c 1
 161 152 181 151 205 151 c 0
 303 151 446 171 646 210 c 1
EndSplineSet
Validated: 1
LCarets2: 1 81 
MultipleSubs2: "Add hairspace before low marked Qof" bet hairspace
EndChar

StartChar: gimel
Encoding: 157 1490 64
Width: 672
GlyphClass: 2
Flags: W
VStem: 186 122<587.053 830.277>
AnchorPoint: "A-69" 358.3 0 basechar 0
AnchorPoint: "A-68" 332.8 0 basechar 0
AnchorPoint: "A-67" 358.3 0 basechar 0
AnchorPoint: "A-66" 358.3 0 basechar 0
AnchorPoint: "A-65" 358.3 0 basechar 0
AnchorPoint: "A-64" 358.3 0 basechar 0
AnchorPoint: "A-63" 358.3 0 basechar 0
AnchorPoint: "A-62" 358.3 0 basechar 0
AnchorPoint: "A-61" 358.3 0 basechar 0
AnchorPoint: "A-59" 52.2998 0 basechar 0
AnchorPoint: "A-55" 524.05 0 basechar 0
AnchorPoint: "A-42" 358.3 0 basechar 0
AnchorPoint: "A-39" 430.55 0 basechar 0
AnchorPoint: "A-36" 428 0 basechar 0
AnchorPoint: "A-22" -75.2002 0 basechar 0
AnchorPoint: "A-21" -313.2 0 basechar 0
AnchorPoint: "A-16" 358.3 0 basechar 0
AnchorPoint: "A-15" 358.3 0 basechar 0
AnchorPoint: "A-14" 358.3 0 basechar 0
AnchorPoint: "A-13" 358.3 0 basechar 0
AnchorPoint: "A-12" 358.3 0 basechar 0
AnchorPoint: "A-11" 358.3 0 basechar 0
AnchorPoint: "A-10" 358.3 0 basechar 0
AnchorPoint: "A-9" 358.3 0 basechar 0
AnchorPoint: "A-8" 358.3 0 basechar 0
AnchorPoint: "A-58" 430.55 0 basechar 0
AnchorPoint: "A-41" 219.991 10 basechar 0
AnchorPoint: "A-40" 358.3 0 basechar 0
AnchorPoint: "A-32" 430.55 0 basechar 0
AnchorPoint: "A-31" 430.55 0 basechar 0
AnchorPoint: "A-30" 583.55 0 basechar 0
AnchorPoint: "A-29" 583.55 0 basechar 0
AnchorPoint: "A-28" 464.55 0 basechar 0
AnchorPoint: "A-27" 277.55 0 basechar 0
AnchorPoint: "A-26" 524.05 0 basechar 0
AnchorPoint: "A-25" 154.3 0 basechar 0
AnchorPoint: "A-24" 428 0 basechar 0
AnchorPoint: "A-23" 430.55 0 basechar 0
AnchorPoint: "A-20" 128.8 0 basechar 0
AnchorPoint: "A-7" 358.3 0 basechar 0
AnchorPoint: "A-6" 358.3 0 basechar 0
AnchorPoint: "A-5" 358.3 0 basechar 0
AnchorPoint: "A-4" 358.3 0 basechar 0
AnchorPoint: "A-2" 430.55 0 basechar 0
AnchorPoint: "A-1" 430.55 0 basechar 0
AnchorPoint: "A-0" 430.55 0 basechar 0
LayerCount: 2
Fore
SplineSet
121 1050 m 1
 200 1028 326 1015 349 914 c 1
 350 909 351 904 351 899 c 0
 351 859 324 797 309 756 c 1
 308 749 308 742 308 736 c 0
 308 717 310 700 314 684 c 0
 323 645 342 612 355 574 c 1
 415 459 467 330 543 307 c 1
 584 277 599 213 610 165 c 1
 619 125 623 100 623 75 c 0
 623 54 621 34 618 7 c 1
 592 -38 588 -37 576 -52 c 1
 476 101 379 182 304 182 c 0
 198 182 179 83 119 -49 c 1
 79 -11 l 1
 67 42 60 87 60 127 c 0
 60 271 143 338 320 391 c 1
 281 453 232 568 217 631 c 0
 202 698 190 771 186 824 c 1
 126 836 86 835 -4 868 c 1
 -26 962 l 1
 -35 1001 l 1
 -27 1064 -0 1097 38 1128 c 1
 41 1119 91 1071 121 1050 c 1
EndSplineSet
Validated: 1
LCarets2: 1 54 
MultipleSubs2: "Add hairspace before narrowletter subtable subtable" hairspace gimel
MultipleSubs2: "Add hairspace before low marked Qof" gimel hairspace
EndChar

StartChar: dalet
Encoding: 158 1491 65
Width: 925
GlyphClass: 2
Flags: W
HStem: 827 209<-6.07767 423.387> 841 215<225.684 427>
VStem: 422 138<565.918 812.986> 656 83<7.05942 163.96>
AnchorPoint: "A-69" 581.25 0 basechar 0
AnchorPoint: "A-68" 513.25 0 basechar 0
AnchorPoint: "A-67" 411.25 0 basechar 0
AnchorPoint: "A-66" 581.25 0 basechar 0
AnchorPoint: "A-65" 496.25 0 basechar 0
AnchorPoint: "A-64" 411.25 0 basechar 0
AnchorPoint: "A-63" 581.25 0 basechar 0
AnchorPoint: "A-62" 496.25 0 basechar 0
AnchorPoint: "A-61" 411.25 0 basechar 0
AnchorPoint: "A-59" 96.75 0 basechar 0
AnchorPoint: "A-55" 779.059 -10 basechar 0
AnchorPoint: "A-42" 509 0 basechar 0
AnchorPoint: "A-39" 513.25 0 basechar 0
AnchorPoint: "A-36" 518.35 0 basechar 0
AnchorPoint: "A-21" -268.75 0 basechar 0
AnchorPoint: "A-19" 419.75 0 basechar 0
AnchorPoint: "A-18" 551.5 0 basechar 0
AnchorPoint: "A-17" 551.5 0 basechar 0
AnchorPoint: "A-16" 419.75 0 basechar 0
AnchorPoint: "A-15" 551.5 0 basechar 0
AnchorPoint: "A-14" 551.5 0 basechar 0
AnchorPoint: "A-13" 419.75 0 basechar 0
AnchorPoint: "A-12" 551.5 0 basechar 0
AnchorPoint: "A-11" 551.5 0 basechar 0
AnchorPoint: "A-10" 419.75 0 basechar 0
AnchorPoint: "A-9" 551.5 0 basechar 0
AnchorPoint: "A-8" 551.5 0 basechar 0
AnchorPoint: "A-58" 487.75 0 basechar 0
AnchorPoint: "A-41" 377.25 0 basechar 0
AnchorPoint: "A-40" 674.75 0 basechar 0
AnchorPoint: "A-32" 513.25 0 basechar 0
AnchorPoint: "A-31" 513.25 0 basechar 0
AnchorPoint: "A-30" 513.25 0 basechar 0
AnchorPoint: "A-29" 513.25 0 basechar 0
AnchorPoint: "A-28" 509 0 basechar 0
AnchorPoint: "A-27" 513.25 0 basechar 0
AnchorPoint: "A-26" 779.059 -10 basechar 0
AnchorPoint: "A-25" 79.75 0 basechar 0
AnchorPoint: "A-24" 518.35 0 basechar 0
AnchorPoint: "A-23" 513.25 0 basechar 0
AnchorPoint: "A-20" 11.75 0 basechar 0
AnchorPoint: "A-7" 504.75 0 basechar 0
AnchorPoint: "A-6" 560 0 basechar 0
AnchorPoint: "A-5" 679 0 basechar 0
AnchorPoint: "A-4" 679 0 basechar 0
AnchorPoint: "A-2" 513.25 0 basechar 0
AnchorPoint: "A-1" 513.25 0 basechar 0
AnchorPoint: "A-0" 513.25 0 basechar 0
LayerCount: 2
Fore
SplineSet
427 841 m 1x70
 344 828 269 827 183 827 c 1
 29 827 -25 842 -37 847 c 9
 -90 944 l 25
 -124 972 l 17
 -122 1050 -99 1099 -67 1140 c 1
 -28 1106 -9 1061 75 1046 c 1
 154 1038 138 1036 221 1036 c 0xb0
 320 1036 479 1042 578 1056 c 1
 624 997 656 927 673 852 c 1
 604 835 560 769 560 710 c 0
 560 702 561 693 563 685 c 0
 590 567 697 386 730 244 c 0
 735 220 739 196 739 173 c 1
 739 170 739 168 739 165 c 0
 739 110 719 48 685 -22 c 9
 656 0 l 17
 617 169 583 298 493 482 c 1
 487 506 456 588 451 609 c 0
 446 633 441 656 435 679 c 0
 427 712 422 745 422 781 c 0
 422 800 423 820 427 841 c 1x70
EndSplineSet
Validated: 1
LCarets2: 1 73 
MultipleSubs2: "Add hairspace before low marked Qof" dalet hairspace
Substitution2: "'jalt' Wide Letter Alternatives in Hebrew subtable" dalet.wide
EndChar

StartChar: he
Encoding: 159 1492 66
Width: 1099
GlyphClass: 2
Flags: W
HStem: 832 192<127.247 649.283> 1030 20G<678.5 750.5>
VStem: 165 80<372.865 575.054> 646 125<582.771 847.207> 875 82<0.274998 116.03>
AnchorPoint: "A-69" 613.925 0 basechar 0
AnchorPoint: "A-68" 613.925 0 basechar 0
AnchorPoint: "A-67" 613.925 0 basechar 0
AnchorPoint: "A-66" 613.925 0 basechar 0
AnchorPoint: "A-65" 613.925 0 basechar 0
AnchorPoint: "A-64" 613.925 0 basechar 0
AnchorPoint: "A-63" 613.925 0 basechar 0
AnchorPoint: "A-62" 613.925 0 basechar 0
AnchorPoint: "A-61" 613.925 0 basechar 0
AnchorPoint: "A-59" 116.675 0 basechar 0
AnchorPoint: "A-55" 898.675 0 basechar 0
AnchorPoint: "A-42" 613.925 0 basechar 0
AnchorPoint: "A-39" 618.175 0 basechar 0
AnchorPoint: "A-36" 612.225 0 basechar 0
AnchorPoint: "A-21" -248.825 0 basechar 0
AnchorPoint: "A-16" 613.925 0 basechar 0
AnchorPoint: "A-15" 613.925 0 basechar 0
AnchorPoint: "A-14" 613.925 0 basechar 0
AnchorPoint: "A-13" 613.925 0 basechar 0
AnchorPoint: "A-12" 613.925 0 basechar 0
AnchorPoint: "A-11" 613.925 0 basechar 0
AnchorPoint: "A-10" 613.925 0 basechar 0
AnchorPoint: "A-9" 613.925 0 basechar 0
AnchorPoint: "A-8" 613.925 0 basechar 0
AnchorPoint: "A-58" 618.175 0 basechar 0
AnchorPoint: "A-41" 584.175 0 basechar 0
AnchorPoint: "A-40" 613.925 0 basechar 0
AnchorPoint: "A-32" 618.175 0 basechar 0
AnchorPoint: "A-31" 618.175 0 basechar 0
AnchorPoint: "A-30" 618.175 0 basechar 0
AnchorPoint: "A-29" 618.175 0 basechar 0
AnchorPoint: "A-28" 528.925 0 basechar 0
AnchorPoint: "A-27" 618.175 0 basechar 0
AnchorPoint: "A-26" 898.675 0 basechar 0
AnchorPoint: "A-25" 184.675 0 basechar 0
AnchorPoint: "A-24" 612.225 0 basechar 0
AnchorPoint: "A-23" 618.175 0 basechar 0
AnchorPoint: "A-20" 116.675 0 basechar 0
AnchorPoint: "A-7" 613.925 0 basechar 0
AnchorPoint: "A-6" 613.925 0 basechar 0
AnchorPoint: "A-5" 613.925 0 basechar 0
AnchorPoint: "A-4" 613.925 0 basechar 0
AnchorPoint: "A-2" 618.175 0 basechar 0
AnchorPoint: "A-1" 618.175 0 basechar 0
AnchorPoint: "A-0" 618.175 0 basechar 0
LayerCount: 2
Fore
SplineSet
377 224 m 1
 370 148 356 18 335 -36 c 9
 282 -12 l 17
 250 67 204 187 185 268 c 0
 172 325 165 383 165 440 c 0
 165 554 192 663 245 746 c 1
 247 634 243 547 262 462 c 0
 268 438 l 0
 287 355 304 292 377 224 c 1
653 850 m 1
 570 837 486 832 400 832 c 0
 288 832 172 850 60 850 c 9
 4 952 l 25
 -30 980 l 17
 -28 1058 -5 1107 27 1148 c 1
 66 1114 103 1063 186 1048 c 1
 268 1031 350 1024 433 1024 c 0
 532 1024 629 1036 728 1050 c 1
 773 991 808 931 825 856 c 1
 786 825 771 788 771 746 c 0
 771 729 774 711 778 693 c 0
 805 575 915 380 948 238 c 0
 954 214 957 190 957 167 c 1
 957 163 957 159 957 156 c 0
 957 101 938 40 903 -28 c 9
 875 -7 l 17
 817 159 763 369 683 550 c 1
 677 574 672 596 668 617 c 0
 655 670 646 718 646 770 c 0
 646 795 648 821 653 850 c 1
EndSplineSet
Validated: 1
LCarets2: 1 88 
MultipleSubs2: "Add hairspace before low marked Qof" he hairspace
Substitution2: "'jalt' Wide Letter Alternatives in Hebrew subtable" he.wide
EndChar

StartChar: vav
Encoding: 160 1493 67
Width: 500
GlyphClass: 2
Flags: W
VStem: -137 523
AnchorPoint: "A-69" 276.25 0 basechar 0
AnchorPoint: "A-68" 263.5 0 basechar 0
AnchorPoint: "A-67" 310.25 0 basechar 0
AnchorPoint: "A-66" 276.25 0 basechar 0
AnchorPoint: "A-65" 208.25 0 basechar 0
AnchorPoint: "A-64" 276.25 0 basechar 0
AnchorPoint: "A-63" 276.25 0 basechar 0
AnchorPoint: "A-62" 208.25 0 basechar 0
AnchorPoint: "A-61" 276.25 0 basechar 0
AnchorPoint: "A-59" 68 0 basechar 0
AnchorPoint: "A-55" 399.5 0 basechar 0
AnchorPoint: "A-42" 361.25 0 basechar 0
AnchorPoint: "A-39" 306 0 basechar 0
AnchorPoint: "A-36" 306 0 basechar 0
AnchorPoint: "A-21" 170 0 basechar 0
AnchorPoint: "A-16" 306 0 basechar 0
AnchorPoint: "A-15" 314.5 0 basechar 0
AnchorPoint: "A-14" 344.25 0 basechar 0
AnchorPoint: "A-13" 314.5 0 basechar 0
AnchorPoint: "A-12" 361.25 0 basechar 0
AnchorPoint: "A-11" 361.25 0 basechar 0
AnchorPoint: "A-10" 314.5 0 basechar 0
AnchorPoint: "A-9" 361.25 0 basechar 0
AnchorPoint: "A-8" 361.25 0 basechar 0
AnchorPoint: "A-58" 306 0 basechar 0
AnchorPoint: "A-41" 68 0 basechar 0
AnchorPoint: "A-40" 301.75 0 basechar 0
AnchorPoint: "A-32" 306 0 basechar 0
AnchorPoint: "A-31" 306 0 basechar 0
AnchorPoint: "A-30" 442 0 basechar 0
AnchorPoint: "A-29" 493 0 basechar 0
AnchorPoint: "A-28" 480.25 0 basechar 0
AnchorPoint: "A-27" 153 0 basechar 0
AnchorPoint: "A-26" 399.5 0 basechar 0
AnchorPoint: "A-25" 85 0 basechar 0
AnchorPoint: "A-24" 306 0 basechar 0
AnchorPoint: "A-23" 306 0 basechar 0
AnchorPoint: "A-20" 170 0 basechar 0
AnchorPoint: "A-7" 314.5 0 basechar 0
AnchorPoint: "A-6" 314.5 0 basechar 0
AnchorPoint: "A-5" 361.25 0 basechar 0
AnchorPoint: "A-4" 361.25 0 basechar 0
AnchorPoint: "A-2" 306 0 basechar 0
AnchorPoint: "A-1" 306 0 basechar 0
AnchorPoint: "A-0" 306 0 basechar 0
LayerCount: 2
Fore
SplineSet
311 62 m 1
 287 166 149 684 135 747 c 1
 125 787 113 827 60 827 c 9
 -44 827 l 25
 -102 942 l 25
 -137 970 l 17
 -135 1048 -111 1097 -80 1138 c 1
 -41 1104 -28 1062 55 1047 c 1
 71 1044 l 1
 189 1044 249 807 301 579 c 0
 309 545 317 512 324 479 c 0
 347 380 370 273 386 203 c 1
 386 185 386 167 386 148 c 0
 386 89 383 30 359 -20 c 1
 311 62 l 1
EndSplineSet
Validated: 1
LCarets2: 1 39 
MultipleSubs2: "Add hairspace before narrowletter subtable subtable" hairspace vav
MultipleSubs2: "Add hairspace before low marked Qof" vav hairspace
EndChar

StartChar: zain
Encoding: 161 1494 68
Width: 517
GlyphClass: 2
Flags: W
AnchorPoint: "A-69" 199.139 0 basechar 0
AnchorPoint: "A-68" 182.139 0 basechar 0
AnchorPoint: "A-67" 199.139 0 basechar 0
AnchorPoint: "A-66" 199.139 0 basechar 0
AnchorPoint: "A-65" 199.139 0 basechar 0
AnchorPoint: "A-64" 199.139 0 basechar 0
AnchorPoint: "A-63" 199.139 0 basechar 0
AnchorPoint: "A-62" 199.139 0 basechar 0
AnchorPoint: "A-61" 199.139 0 basechar 0
AnchorPoint: "A-59" 37.6387 0 basechar 0
AnchorPoint: "A-55" 462.639 0 basechar 0
AnchorPoint: "A-42" 292.639 0 basechar 0
AnchorPoint: "A-39" 296.889 0 basechar 0
AnchorPoint: "A-36" 309.639 0 basechar 0
AnchorPoint: "A-22" -183.361 0 basechar 0
AnchorPoint: "A-21" -327.861 0 basechar 0
AnchorPoint: "A-16" 267.139 0 basechar 0
AnchorPoint: "A-15" 233.139 0 basechar 0
AnchorPoint: "A-14" 275.639 0 basechar 0
AnchorPoint: "A-13" 284.139 0 basechar 0
AnchorPoint: "A-12" 292.639 0 basechar 0
AnchorPoint: "A-11" 292.639 0 basechar 0
AnchorPoint: "A-10" 284.139 0 basechar 0
AnchorPoint: "A-9" 292.639 0 basechar 0
AnchorPoint: "A-8" 292.639 0 basechar 0
AnchorPoint: "A-58" 309.639 0 basechar 0
AnchorPoint: "A-41" -13.3613 0 basechar 0
AnchorPoint: "A-40" 241.639 0 basechar 0
AnchorPoint: "A-32" 309.639 0 basechar 0
AnchorPoint: "A-31" 309.639 0 basechar 0
AnchorPoint: "A-30" 411.639 0 basechar 0
AnchorPoint: "A-29" 428.639 0 basechar 0
AnchorPoint: "A-28" 449.889 0 basechar 0
AnchorPoint: "A-27" 224.639 0 basechar 0
AnchorPoint: "A-26" 462.639 0 basechar 0
AnchorPoint: "A-25" 63.1387 0 basechar 0
AnchorPoint: "A-24" 309.639 0 basechar 0
AnchorPoint: "A-23" 296.889 0 basechar 0
AnchorPoint: "A-20" -4.86133 0 basechar 0
AnchorPoint: "A-7" 284.139 0 basechar 0
AnchorPoint: "A-6" 284.139 0 basechar 0
AnchorPoint: "A-5" 292.639 0 basechar 0
AnchorPoint: "A-4" 292.639 0 basechar 0
AnchorPoint: "A-2" 296.889 0 basechar 0
AnchorPoint: "A-1" 296.889 0 basechar 0
AnchorPoint: "A-0" 296.889 0 basechar 0
LayerCount: 2
Fore
SplineSet
-123 1167 m 1
 47 1031 136 1004 256 952 c 1
 269 927 277 903 282 878 c 0
 290 843 293 809 293 774 c 0
 293 755 292 735 291 716 c 9
 132 784 l 17
 127 786 120 788 115 788 c 0
 106 788 99 783 96 768 c 1
 111 703 140 664 149 624 c 1
 222 442 282 409 320 242 c 0
 328 209 330 193 330 180 c 0
 330 163 326 150 326 106 c 9
 291 -20 l 17
 168 232 118 312 18 484 c 1
 16 494 13 505 11 517 c 0
 5 543 3 572 3 603 c 0
 3 666 12 738 20 816 c 1
 20 824 19 833 8 839 c 1
 -50 870 -73 875 -119 924 c 1
 -130 970 -137 1010 -137 1054 c 0
 -137 1087 -133 1123 -123 1167 c 1
EndSplineSet
Validated: 1
LCarets2: 1 46 
MultipleSubs2: "Add hairspace before narrowletter subtable subtable" hairspace zain
MultipleSubs2: "Add hairspace before low marked Qof" zain hairspace
EndChar

StartChar: het
Encoding: 162 1495 69
Width: 1142
GlyphClass: 2
Flags: W
HStem: 828 204<246.621 694.109>
VStem: 104 126<523.625 820.686> 280 91<-3.17808 193.078> 693 123<583.957 843.72> 917 80<-7.49626 45.168>
AnchorPoint: "A-69" 668.325 0 basechar 0
AnchorPoint: "A-68" 668.325 0 basechar 0
AnchorPoint: "A-67" 668.325 0 basechar 0
AnchorPoint: "A-66" 668.325 0 basechar 0
AnchorPoint: "A-65" 668.325 0 basechar 0
AnchorPoint: "A-64" 668.325 0 basechar 0
AnchorPoint: "A-63" 668.325 0 basechar 0
AnchorPoint: "A-62" 668.325 0 basechar 0
AnchorPoint: "A-61" 668.325 0 basechar 0
AnchorPoint: "A-59" 132.825 0 basechar 0
AnchorPoint: "A-55" 957.325 0 basechar 0
AnchorPoint: "A-42" 668.325 0 basechar 0
AnchorPoint: "A-39" 659.825 0 basechar 0
AnchorPoint: "A-36" 659.825 0 basechar 0
AnchorPoint: "A-21" -232.675 0 basechar 0
AnchorPoint: "A-16" 668.325 0 basechar 0
AnchorPoint: "A-15" 668.325 0 basechar 0
AnchorPoint: "A-14" 668.325 0 basechar 0
AnchorPoint: "A-13" 668.325 0 basechar 0
AnchorPoint: "A-12" 668.325 0 basechar 0
AnchorPoint: "A-11" 668.325 0 basechar 0
AnchorPoint: "A-10" 668.325 0 basechar 0
AnchorPoint: "A-9" 668.325 0 basechar 0
AnchorPoint: "A-8" 668.325 0 basechar 0
AnchorPoint: "A-58" 659.825 0 basechar 0
AnchorPoint: "A-41" 625.825 0 basechar 0
AnchorPoint: "A-40" 668.325 0 basechar 0
AnchorPoint: "A-32" 659.825 0 basechar 0
AnchorPoint: "A-31" 659.825 0 basechar 0
AnchorPoint: "A-30" 659.825 0 basechar 0
AnchorPoint: "A-29" 659.825 0 basechar 0
AnchorPoint: "A-28" 545.075 0 basechar 0
AnchorPoint: "A-27" 659.825 0 basechar 0
AnchorPoint: "A-26" 957.325 0 basechar 0
AnchorPoint: "A-25" 200.825 0 basechar 0
AnchorPoint: "A-24" 659.825 0 basechar 0
AnchorPoint: "A-23" 659.825 0 basechar 0
AnchorPoint: "A-20" 132.825 0 basechar 0
AnchorPoint: "A-7" 668.325 0 basechar 0
AnchorPoint: "A-6" 668.325 0 basechar 0
AnchorPoint: "A-5" 668.325 0 basechar 0
AnchorPoint: "A-4" 668.325 0 basechar 0
AnchorPoint: "A-3" 620 0 basechar 0
AnchorPoint: "A-2" 659.825 0 basechar 0
AnchorPoint: "A-1" 659.825 0 basechar 0
AnchorPoint: "A-0" 659.825 0 basechar 0
LayerCount: 2
Fore
SplineSet
111 813 m 1
 149 846 l 1
 116 846 82 852 54 852 c 9
 0 952 l 25
 -35 980 l 17
 -33 1058 -10 1107 22 1148 c 1
 61 1114 99 1075 182 1060 c 1
 264 1043 396 1032 479 1032 c 0
 578 1032 676 1042 775 1056 c 1
 821 997 853 927 870 852 c 1
 831 821 816 784 816 742 c 0
 816 725 819 707 823 689 c 0
 850 571 955 426 987 284 c 0
 993 260 997 236 997 213 c 1
 997 210 997 207 997 204 c 0
 997 144 979 30 945 -39 c 9
 917 -18 l 17
 906 31 895 77 885 123 c 0
 859 236 828 347 762 496 c 1
 757 520 732 584 727 605 c 0
 721 633 714 661 708 689 c 0
 700 723 693 757 693 794 c 0
 693 811 695 828 698 846 c 1
 615 833 531 828 445 828 c 0
 398 828 340 837 283 837 c 1
 245 807 230 761 230 714 c 0
 230 694 233 675 237 656 c 0
 264 538 329 368 362 226 c 0
 367 202 371 178 371 155 c 1
 371 153 371 151 371 149 c 0
 371 94 344 32 309 -39 c 9
 280 -18 l 17
 254 97 240 176 223 250 c 0
 206 323 182 422 142 513 c 1
 136 537 131 559 126 580 c 0
 114 634 104 682 104 735 c 0
 104 759 106 785 111 813 c 1
EndSplineSet
Validated: 1
LCarets2: 1 91 
MultipleSubs2: "Add hairspace before low marked Qof" het hairspace
EndChar

StartChar: tet
Encoding: 163 1496 70
Width: 1083
GlyphClass: 2
Flags: W
HStem: 907 186<416.476 608.664>
VStem: 313 88<795 945.5> 753 135<356.89 704.459>
AnchorPoint: "A-69" 574.25 0 basechar 0
AnchorPoint: "A-68" 574.25 0 basechar 0
AnchorPoint: "A-67" 574.25 0 basechar 0
AnchorPoint: "A-66" 574.25 0 basechar 0
AnchorPoint: "A-65" 574.25 0 basechar 0
AnchorPoint: "A-64" 574.25 0 basechar 0
AnchorPoint: "A-63" 574.25 0 basechar 0
AnchorPoint: "A-62" 574.25 0 basechar 0
AnchorPoint: "A-61" 574.25 0 basechar 0
AnchorPoint: "A-59" 72.75 0 basechar 0
AnchorPoint: "A-55" 888.75 0 basechar 0
AnchorPoint: "A-42" 574.25 0 basechar 0
AnchorPoint: "A-39" 574.25 0 basechar 0
AnchorPoint: "A-36" 574.25 0 basechar 0
AnchorPoint: "A-21" -292.75 0 basechar 0
AnchorPoint: "A-16" 574.25 0 basechar 0
AnchorPoint: "A-15" 574.25 0 basechar 0
AnchorPoint: "A-14" 574.25 0 basechar 0
AnchorPoint: "A-13" 574.25 0 basechar 0
AnchorPoint: "A-12" 574.25 0 basechar 0
AnchorPoint: "A-11" 574.25 0 basechar 0
AnchorPoint: "A-10" 574.25 0 basechar 0
AnchorPoint: "A-9" 574.25 0 basechar 0
AnchorPoint: "A-8" 574.25 0 basechar 0
AnchorPoint: "A-58" 574.25 0 basechar 0
AnchorPoint: "A-41" 531.75 0 basechar 0
AnchorPoint: "A-40" 574.25 0 basechar 0
AnchorPoint: "A-32" 574.25 0 basechar 0
AnchorPoint: "A-31" 574.25 0 basechar 0
AnchorPoint: "A-30" 574.25 0 basechar 0
AnchorPoint: "A-29" 574.25 0 basechar 0
AnchorPoint: "A-28" 485 0 basechar 0
AnchorPoint: "A-27" 574.25 0 basechar 0
AnchorPoint: "A-26" 888.75 0 basechar 0
AnchorPoint: "A-25" 123.75 0 basechar 0
AnchorPoint: "A-24" 574.25 0 basechar 0
AnchorPoint: "A-23" 574.25 0 basechar 0
AnchorPoint: "A-20" 55.75 0 basechar 0
AnchorPoint: "A-7" 574.25 0 basechar 0
AnchorPoint: "A-6" 574.25 0 basechar 0
AnchorPoint: "A-5" 574.25 0 basechar 0
AnchorPoint: "A-4" 574.25 0 basechar 0
AnchorPoint: "A-2" 574.25 0 basechar 0
AnchorPoint: "A-1" 574.25 0 basechar 0
AnchorPoint: "A-0" 574.25 0 basechar 0
LayerCount: 2
Fore
SplineSet
175 786 m 1
 176 771 179 754 183 736 c 0
 223 564 406 218 413 218 c 1
 435 218 458 214 479 214 c 0
 602 214 669 309 738 393 c 1
 747 403 753 430 753 469 c 0
 753 504 748 550 736 601 c 0
 706 732 665 866 532 902 c 1
 523 905 516 907 509 907 c 1
 457 907 401 883 401 801 c 0
 401 793 402 785 403 776 c 9
 327 795 l 17
 317 837 313 871 313 900 c 0
 313 991 355 1026 395 1060 c 1
 423 1082 471 1093 514 1093 c 0
 557 1093 608 1080 672 1048 c 1
 773 985 808 874 833 765 c 0
 841 732 847 700 854 671 c 0
 873 590 888 500 888 411 c 0
 888 333 876 257 846 190 c 1
 745 72 581 4 378 -18 c 1
 260 125 143 415 87 657 c 1
 87 674 89 681 89 695 c 0
 89 713 85 743 68 819 c 9
 -73 898 l 17
 -83 1006 l 1
 -106 1039 l 1
 -77 1091 -59 1138 -29 1174 c 1
 -12 1132 38 1091 88 1057 c 1
 160 1035 194 1006 209 942 c 1
 211 933 212 923 212 913 c 0
 212 867 191 819 175 786 c 1
EndSplineSet
Validated: 1
LCarets2: 1 85 
MultipleSubs2: "Add hairspace before low marked Qof" tet hairspace
EndChar

StartChar: yod
Encoding: 164 1497 71
Width: 491
GlyphClass: 2
Flags: W
HStem: 477 675
VStem: 171 71<505 705.916>
AnchorPoint: "A-69" 232.875 0 basechar 0
AnchorPoint: "A-68" 224.375 0 basechar 0
AnchorPoint: "A-67" 232.875 0 basechar 0
AnchorPoint: "A-66" 232.875 0 basechar 0
AnchorPoint: "A-65" 232.875 0 basechar 0
AnchorPoint: "A-64" 232.875 0 basechar 0
AnchorPoint: "A-63" 232.875 0 basechar 0
AnchorPoint: "A-62" 232.875 0 basechar 0
AnchorPoint: "A-61" 232.875 0 basechar 0
AnchorPoint: "A-59" 54.375 0 basechar 0
AnchorPoint: "A-55" 394.375 0 basechar 0
AnchorPoint: "A-42" 258.375 0 basechar 0
AnchorPoint: "A-39" 271.125 0 basechar 0
AnchorPoint: "A-36" 292.375 0 basechar 0
AnchorPoint: "A-22" -192.125 0 basechar 0
AnchorPoint: "A-21" -311.125 0 basechar 0
AnchorPoint: "A-16" 249.875 0 basechar 0
AnchorPoint: "A-15" 249.875 0 basechar 0
AnchorPoint: "A-14" 249.875 0 basechar 0
AnchorPoint: "A-13" 249.875 0 basechar 0
AnchorPoint: "A-12" 249.875 0 basechar 0
AnchorPoint: "A-11" 249.875 0 basechar 0
AnchorPoint: "A-10" 249.875 0 basechar 0
AnchorPoint: "A-9" 266.875 0 basechar 0
AnchorPoint: "A-8" 249.875 0 basechar 0
AnchorPoint: "A-58" 292.375 0 basechar 0
AnchorPoint: "A-41" -13.625 0 basechar 0
AnchorPoint: "A-40" 258.375 0 basechar 0
AnchorPoint: "A-32" 292.375 0 basechar 0
AnchorPoint: "A-31" 292.375 0 basechar 0
AnchorPoint: "A-30" 428.375 0 basechar 0
AnchorPoint: "A-29" 479.375 0 basechar 0
AnchorPoint: "A-28" 466.625 0 basechar 0
AnchorPoint: "A-27" 169.125 0 basechar 0
AnchorPoint: "A-26" 394.375 0 basechar 0
AnchorPoint: "A-25" 54.375 0 basechar 0
AnchorPoint: "A-24" 292.375 0 basechar 0
AnchorPoint: "A-23" 271.125 0 basechar 0
AnchorPoint: "A-20" -5.125 0 basechar 0
AnchorPoint: "A-7" 249.875 0 basechar 0
AnchorPoint: "A-6" 249.875 0 basechar 0
AnchorPoint: "A-5" 249.875 0 basechar 0
AnchorPoint: "A-4" 249.875 0 basechar 0
AnchorPoint: "A-2" 271.125 0 basechar 0
AnchorPoint: "A-1" 271.125 0 basechar 0
AnchorPoint: "A-0" 271.125 0 basechar 0
LayerCount: 2
Fore
SplineSet
-68 852 m 9
 -124 938 l 25
 -156 968 l 17
 -154 1046 -138 1111 -107 1152 c 1
 -68 1118 -18 1056 66 1041 c 1
 117 1026 108 1035 171 990 c 1
 215 957 231 898 244 840 c 0
 248 825 258 767 258 753 c 0
 258 651 255 622 242 477 c 9
 171 505 l 17
 157 567 153 623 143 669 c 1
 137 693 135 718 129 743 c 0
 116 801 82 852 -68 852 c 9
EndSplineSet
Validated: 1
LCarets2: 1 36 
MultipleSubs2: "Add hairspace before narrowletter subtable subtable" hairspace yod
MultipleSubs2: "Add hairspace before low marked Qof" yod hairspace
EndChar

StartChar: finalkaf
Encoding: 165 1498 72
Width: 909
GlyphClass: 2
Flags: W
HStem: 827 204<-15.6385 454.565>
VStem: 434 150<516.979 824.115> 723 82<-392.826 -176.772>
AnchorPoint: "A-69" 275.95 0 basechar 0
AnchorPoint: "A-68" 216.45 0 basechar 0
AnchorPoint: "A-67" 114.45 0 basechar 0
AnchorPoint: "A-66" 275.95 0 basechar 0
AnchorPoint: "A-65" 216.45 0 basechar 0
AnchorPoint: "A-64" 114.45 0 basechar 0
AnchorPoint: "A-63" 275.95 0 basechar 0
AnchorPoint: "A-62" 216.45 0 basechar 0
AnchorPoint: "A-61" 114.45 0 basechar 0
AnchorPoint: "A-59" 80.4502 0 basechar 0
AnchorPoint: "A-55" 760.45 0 basechar 0
AnchorPoint: "A-42" 199.45 0 basechar 0
AnchorPoint: "A-39" 496.95 0 basechar 0
AnchorPoint: "A-36" 502.05 0 basechar 0
AnchorPoint: "A-21" -285.05 0 basechar 0
AnchorPoint: "A-16" 122.95 0 basechar 0
AnchorPoint: "A-15" 224.95 0 basechar 0
AnchorPoint: "A-14" 343.95 0 basechar 0
AnchorPoint: "A-13" -21.5498 0 basechar 0
AnchorPoint: "A-12" 80.4502 0 basechar 0
AnchorPoint: "A-11" 199.45 0 basechar 0
AnchorPoint: "A-10" 122.95 0 basechar 0
AnchorPoint: "A-9" 224.95 0 basechar 0
AnchorPoint: "A-8" 343.95 0 basechar 0
AnchorPoint: "A-58" 471.45 0 basechar 0
AnchorPoint: "A-41" 488.45 0 basechar 0
AnchorPoint: "A-40" 386.45 0 basechar 0
AnchorPoint: "A-32" 496.95 0 basechar 0
AnchorPoint: "A-31" 496.95 0 basechar 0
AnchorPoint: "A-30" 496.95 0 basechar 0
AnchorPoint: "A-29" 496.95 0 basechar 0
AnchorPoint: "A-28" 492.7 0 basechar 0
AnchorPoint: "A-27" 496.95 0 basechar 0
AnchorPoint: "A-26" 760.45 0 basechar 0
AnchorPoint: "A-25" 80.4502 0 basechar 0
AnchorPoint: "A-24" 502.05 0 basechar 0
AnchorPoint: "A-23" 496.95 0 basechar 0
AnchorPoint: "A-20" 12.4502 0 basechar 0
AnchorPoint: "A-7" 207.95 0 basechar 0
AnchorPoint: "A-6" 275.95 0 basechar 0
AnchorPoint: "A-5" 369.45 0 basechar 0
AnchorPoint: "A-4" 386.45 0 basechar 0
AnchorPoint: "A-2" 496.95 0 basechar 0
AnchorPoint: "A-1" 496.95 0 basechar 0
AnchorPoint: "A-0" 496.95 0 basechar 0
LayerCount: 2
Fore
SplineSet
18 1055 m 1
 100 1038 182 1031 265 1031 c 0
 364 1031 463 1041 561 1055 c 1
 607 996 639 926 657 851 c 1
 612 816 584 777 584 729 c 0
 584 719 585 708 588 697 c 1
 592 627 603 563 617 502 c 0
 658 326 728 183 764 27 c 0
 771 -5 778 -37 781 -70 c 1
 788 -99 793 -126 796 -152 c 1
 802 -176 805 -200 805 -223 c 1
 805 -227 805 -231 805 -234 c 0
 805 -289 786 -350 752 -418 c 9
 723 -397 l 17
 717 -342 709 -292 699 -246 c 0
 648 -24 603 82 458 490 c 1
 452 514 447 536 442 557 c 0
 437 580 434 608 434 636 c 0
 434 705 447 783 458 845 c 1
 375 832 317 827 231 827 c 1
 121 840 55 841 -52 870 c 9
 -80 935 l 25
 -114 963 l 17
 -112 1041 -89 1090 -57 1131 c 1
 -46 1121 -25 1063 18 1055 c 1
EndSplineSet
Validated: 1
LCarets2: 1 72 
MultipleSubs2: "Add hairspace before low marked Qof" finalkaf hairspace
EndChar

StartChar: kaf
Encoding: 166 1499 73
Width: 953
GlyphClass: 2
Flags: W
HStem: -16 219<126.076 517.431> 827 194<42.9397 461.264>
VStem: 668 131<256 497.923>
AnchorPoint: "A-69" 463.65 0 basechar 0
AnchorPoint: "A-68" 463.65 0 basechar 0
AnchorPoint: "A-67" 463.65 0 basechar 0
AnchorPoint: "A-66" 463.65 0 basechar 0
AnchorPoint: "A-65" 463.65 0 basechar 0
AnchorPoint: "A-64" 463.65 0 basechar 0
AnchorPoint: "A-63" 463.65 0 basechar 0
AnchorPoint: "A-62" 463.65 0 basechar 0
AnchorPoint: "A-61" 463.65 0 basechar 0
AnchorPoint: "A-59" 72.6504 0 basechar 0
AnchorPoint: "A-55" 718.65 0 basechar 0
AnchorPoint: "A-42" 463.65 0 basechar 0
AnchorPoint: "A-39" 489.15 0 basechar 0
AnchorPoint: "A-36" 489.15 0 basechar 0
AnchorPoint: "A-21" -292.85 0 basechar 0
AnchorPoint: "A-16" 463.65 0 basechar 0
AnchorPoint: "A-15" 463.65 0 basechar 0
AnchorPoint: "A-14" 463.65 0 basechar 0
AnchorPoint: "A-13" 463.65 0 basechar 0
AnchorPoint: "A-12" 463.65 0 basechar 0
AnchorPoint: "A-11" 463.65 0 basechar 0
AnchorPoint: "A-10" 463.65 0 basechar 0
AnchorPoint: "A-9" 463.65 0 basechar 0
AnchorPoint: "A-8" 463.65 0 basechar 0
AnchorPoint: "A-58" 489.15 0 basechar 0
AnchorPoint: "A-41" 395.65 0 basechar 0
AnchorPoint: "A-40" 463.65 0 basechar 0
AnchorPoint: "A-32" 489.15 0 basechar 0
AnchorPoint: "A-31" 489.15 0 basechar 0
AnchorPoint: "A-30" 506.15 0 basechar 0
AnchorPoint: "A-29" 523.15 0 basechar 0
AnchorPoint: "A-28" 484.9 0 basechar 0
AnchorPoint: "A-27" 455.15 0 basechar 0
AnchorPoint: "A-26" 718.65 0 basechar 0
AnchorPoint: "A-25" 123.65 0 basechar 0
AnchorPoint: "A-24" 489.15 0 basechar 0
AnchorPoint: "A-23" 489.15 0 basechar 0
AnchorPoint: "A-20" 38.6504 0 basechar 0
AnchorPoint: "A-7" 463.65 0 basechar 0
AnchorPoint: "A-6" 463.65 0 basechar 0
AnchorPoint: "A-5" 463.65 0 basechar 0
AnchorPoint: "A-4" 463.65 0 basechar 0
AnchorPoint: "A-2" 489.15 0 basechar 0
AnchorPoint: "A-1" 489.15 0 basechar 0
AnchorPoint: "A-0" 489.15 0 basechar 0
LayerCount: 2
Fore
SplineSet
581 913 m 1
 657 740 747 561 783 406 c 0
 793 362 799 320 799 281 c 0
 799 231 790 185 768 145 c 1
 608 43 448 -16 129 -16 c 1
 126 29 123 68 123 106 c 0
 123 138 125 170 132 203 c 1
 304 203 576 207 658 334 c 1
 665 344 668 357 668 371 c 0
 668 380 666 390 664 400 c 0
 652 452 614 517 583 580 c 1
 524 682 493 814 368 827 c 9
 8 827 l 25
 -47 927 l 25
 -81 955 l 17
 -79 1033 -56 1082 -24 1123 c 1
 15 1089 40 1053 132 1025 c 1
 180 1017 211 1014 255 1014 c 0
 308 1014 357 1021 402 1021 c 0
 476 1021 537 1003 581 913 c 1
EndSplineSet
Validated: 1
LCarets2: 1 74 
MultipleSubs2: "Add hairspace before low marked Qof" kaf hairspace
Substitution2: "'jalt' Wide Letter Alternatives in Hebrew subtable" kaf.wide
EndChar

StartChar: lamed
Encoding: 167 1500 74
Width: 902
GlyphClass: 2
Flags: W
HStem: 836 210<-7.99904 492.248>
VStem: 458 139<37.7356 198.595>
AnchorPoint: "A-69" 369.325 0 basechar 0
AnchorPoint: "A-68" 343.825 0 basechar 0
AnchorPoint: "A-67" 369.325 0 basechar 0
AnchorPoint: "A-66" 369.325 0 basechar 0
AnchorPoint: "A-65" 343.825 0 basechar 0
AnchorPoint: "A-64" 369.325 0 basechar 0
AnchorPoint: "A-63" 369.325 0 basechar 0
AnchorPoint: "A-62" 343.825 0 basechar 0
AnchorPoint: "A-61" 369.325 0 basechar 0
AnchorPoint: "A-59" 105.825 0 basechar 0
AnchorPoint: "A-55" 768.825 0 basechar 0
AnchorPoint: "A-42" 454.325 0 basechar 0
AnchorPoint: "A-39" 573.325 0 basechar 0
AnchorPoint: "A-36" 632.825 0 basechar 0
AnchorPoint: "A-21" -259.675 0 basechar 0
AnchorPoint: "A-16" 454.325 0 basechar 0
AnchorPoint: "A-15" 454.325 0 basechar 0
AnchorPoint: "A-14" 454.325 0 basechar 0
AnchorPoint: "A-13" 454.325 0 basechar 0
AnchorPoint: "A-12" 454.325 0 basechar 0
AnchorPoint: "A-11" 454.325 0 basechar 0
AnchorPoint: "A-10" 462.825 0 basechar 0
AnchorPoint: "A-9" 471.325 0 basechar 0
AnchorPoint: "A-8" 462.825 0 basechar 0
AnchorPoint: "A-58" 488.325 0 basechar 0
AnchorPoint: "A-41" 318.325 0 basechar 0
AnchorPoint: "A-40" 454.325 0 basechar 0
AnchorPoint: "A-32" 811.325 0 basechar 0
AnchorPoint: "A-31" 658.325 0 basechar 0
AnchorPoint: "A-30" 326.825 0 basechar 0
AnchorPoint: "A-29" 301.325 0 basechar 0
AnchorPoint: "A-28" 263.075 0 basechar 0
AnchorPoint: "A-27" 513.825 0 basechar 0
AnchorPoint: "A-26" 768.825 0 basechar 0
AnchorPoint: "A-25" -81.1748 0 basechar 0
AnchorPoint: "A-24" 632.825 0 basechar 0
AnchorPoint: "A-23" 573.325 0 basechar 0
AnchorPoint: "A-20" -183.175 0 basechar 0
AnchorPoint: "A-7" 471.325 0 basechar 0
AnchorPoint: "A-6" 454.325 0 basechar 0
AnchorPoint: "A-5" 471.325 0 basechar 0
AnchorPoint: "A-4" 471.325 0 basechar 0
AnchorPoint: "A-2" 590.325 0 basechar 0
AnchorPoint: "A-1" 416.86 420 basechar 0
AnchorPoint: "A-0" 573.325 0 basechar 0
LayerCount: 2
Fore
SplineSet
427 277 m 1
 432 312 520 427 525 719 c 1
 525 724 523 729 522 734 c 0
 510 785 460 836 427 836 c 9
 67 836 l 17
 -33 836 -80 913 -103 1012 c 1
 -119 1081 -132 1154 -140 1228 c 1
 -140 1232 -140 1237 -140 1242 c 0
 -140 1278 -134 1331 -134 1377 c 0
 -134 1398 -135 1418 -139 1434 c 0
 -145 1459 -157 1475 -179 1475 c 1
 -191 1475 -204 1472 -220 1467 c 1
 -238 1467 -259 1478 -264 1497 c 0
 -265 1504 -265 1512 -262 1520 c 9
 -161 1672 l 17
 -157 1675 -151 1676 -146 1676 c 0
 -132 1676 -116 1668 -107 1656 c 1
 -97 1634 -90 1610 -84 1584 c 0
 -53 1453 -69 1285 -44 1180 c 1
 -32 1127 -2 1052 47 1052 c 1
 149 1052 388 1046 496 1046 c 1
 520 1041 536 1037 565 1013 c 1
 614 968 655 904 674 824 c 1
 665 665 540 376 528 266 c 0
 527 260 527 255 528 250 c 0
 534 226 559 207 587 200 c 1
 594 170 597 142 597 116 c 0
 597 66 586 23 574 -16 c 1
 511 11 458 92 458 93 c 1
 453 112 443 137 436 170 c 0
 430 193 426 220 426 251 c 0
 426 259 426 268 427 277 c 1
EndSplineSet
Validated: 1
LCarets2: 1 67 
MultipleSubs2: "Add hairspace before low marked Qof" lamed hairspace
MultipleSubs2: "Add thispace after Lamed subtable" lamed thinspace
Substitution2: "'jalt' Wide Letter Alternatives in Hebrew subtable" lamed.wide
EndChar

StartChar: finalmem
Encoding: 168 1501 75
Width: 1143
GlyphClass: 2
Flags: W
HStem: 838 201<182.25 677.777>
VStem: 108 71<608.381 830.586>
AnchorPoint: "A-69" 634.9 0 basechar 0
AnchorPoint: "A-68" 634.9 0 basechar 0
AnchorPoint: "A-67" 634.9 0 basechar 0
AnchorPoint: "A-66" 634.9 0 basechar 0
AnchorPoint: "A-65" 634.9 0 basechar 0
AnchorPoint: "A-64" 634.9 0 basechar 0
AnchorPoint: "A-63" 634.9 0 basechar 0
AnchorPoint: "A-62" 634.9 0 basechar 0
AnchorPoint: "A-61" 634.9 0 basechar 0
AnchorPoint: "A-59" 154.65 0 basechar 0
AnchorPoint: "A-55" 919.65 0 basechar 0
AnchorPoint: "A-42" 634.9 0 basechar 0
AnchorPoint: "A-39" 639.15 0 basechar 0
AnchorPoint: "A-36" 639.15 0 basechar 0
AnchorPoint: "A-21" -210.85 0 basechar 0
AnchorPoint: "A-16" 634.9 0 basechar 0
AnchorPoint: "A-15" 634.9 0 basechar 0
AnchorPoint: "A-14" 634.9 0 basechar 0
AnchorPoint: "A-13" 634.9 0 basechar 0
AnchorPoint: "A-12" 634.9 0 basechar 0
AnchorPoint: "A-11" 634.9 0 basechar 0
AnchorPoint: "A-10" 634.9 0 basechar 0
AnchorPoint: "A-9" 634.9 0 basechar 0
AnchorPoint: "A-8" 634.9 0 basechar 0
AnchorPoint: "A-58" 639.15 0 basechar 0
AnchorPoint: "A-41" 545.65 0 basechar 0
AnchorPoint: "A-40" 634.9 0 basechar 0
AnchorPoint: "A-32" 639.15 0 basechar 0
AnchorPoint: "A-31" 154.65 0 basechar 0
AnchorPoint: "A-30" 639.15 0 basechar 0
AnchorPoint: "A-29" 639.15 0 basechar 0
AnchorPoint: "A-28" 566.9 0 basechar 0
AnchorPoint: "A-27" 639.15 0 basechar 0
AnchorPoint: "A-26" 919.65 0 basechar 0
AnchorPoint: "A-25" 188.65 0 basechar 0
AnchorPoint: "A-24" 639.15 0 basechar 0
AnchorPoint: "A-23" 639.15 0 basechar 0
AnchorPoint: "A-20" 120.65 0 basechar 0
AnchorPoint: "A-7" 634.9 0 basechar 0
AnchorPoint: "A-6" 634.9 0 basechar 0
AnchorPoint: "A-5" 634.9 0 basechar 0
AnchorPoint: "A-4" 634.9 0 basechar 0
AnchorPoint: "A-3" 602 0 basechar 0
AnchorPoint: "A-2" 639.15 0 basechar 0
AnchorPoint: "A-1" 639.15 0 basechar 0
AnchorPoint: "A-0" 639.15 0 basechar 0
LayerCount: 2
Fore
SplineSet
837 310 m 17
 826 360 814 411 802 462 c 0
 778 567 751 650 700 764 c 1
 678 826 557 846 427 846 c 0
 339 846 248 837 179 826 c 1
 179 819 179 813 179 807 c 0
 179 759 186 722 198 666 c 0
 246 460 358 260 358 260 c 1
 373 219 406 187 445 187 c 0
 456 187 466 189 477 194 c 1
 625 254 837 310 837 310 c 17
11 852 m 9
 -45 976 l 25
 -80 1004 l 17
 -78 1082 -54 1131 -23 1172 c 1
 16 1138 53 1077 137 1062 c 1
 209 1044 277 1039 344 1039 c 0
 440 1039 534 1050 628 1050 c 1
 730 1050 739 989 764 928 c 1
 845 717 887 578 929 394 c 1
 938 378 946 362 972 346 c 1
 983 325 990 306 995 288 c 0
 999 268 1001 250 1001 232 c 0
 1001 206 998 181 998 156 c 9
 407 -56 l 17
 349 -56 310 -33 275 116 c 1
 205 290 163 427 139 533 c 0
 115 635 108 704 108 751 c 0
 108 818 123 838 123 838 c 1
 75 838 l 1
 57 838 14 852 11 852 c 9
EndSplineSet
Validated: 1
LCarets2: 1 83 
MultipleSubs2: "Add hairspace before low marked Qof" finalmem hairspace
Substitution2: "'jalt' Wide Letter Alternatives in Hebrew subtable" finalmem.wide
EndChar

StartChar: mem
Encoding: 169 1502 76
Width: 1088
GlyphClass: 2
Flags: W
VStem: 152 95<212.562 268.94> 795 155<95.5 410.548>
AnchorPoint: "A-69" 564.75 0 basechar 0
AnchorPoint: "A-68" 564.75 0 basechar 0
AnchorPoint: "A-67" 564.75 0 basechar 0
AnchorPoint: "A-66" 564.75 0 basechar 0
AnchorPoint: "A-65" 564.75 0 basechar 0
AnchorPoint: "A-64" 564.75 0 basechar 0
AnchorPoint: "A-63" 564.75 0 basechar 0
AnchorPoint: "A-62" 564.75 0 basechar 0
AnchorPoint: "A-61" 564.75 0 basechar 0
AnchorPoint: "A-59" 80.25 0 basechar 0
AnchorPoint: "A-55" 896.25 0 basechar 0
AnchorPoint: "A-42" 564.75 0 basechar 0
AnchorPoint: "A-39" 590.25 0 basechar 0
AnchorPoint: "A-36" 590.25 0 basechar 0
AnchorPoint: "A-21" -285.25 0 basechar 0
AnchorPoint: "A-16" 564.75 0 basechar 0
AnchorPoint: "A-15" 564.75 0 basechar 0
AnchorPoint: "A-14" 564.75 0 basechar 0
AnchorPoint: "A-13" 564.75 0 basechar 0
AnchorPoint: "A-12" 564.75 0 basechar 0
AnchorPoint: "A-11" 564.75 0 basechar 0
AnchorPoint: "A-10" 564.75 0 basechar 0
AnchorPoint: "A-9" 564.75 0 basechar 0
AnchorPoint: "A-8" 564.75 0 basechar 0
AnchorPoint: "A-58" 590.25 0 basechar 0
AnchorPoint: "A-41" 547.75 0 basechar 0
AnchorPoint: "A-40" 564.75 0 basechar 0
AnchorPoint: "A-32" 587.941 10 basechar 0
AnchorPoint: "A-31" 590.25 0 basechar 0
AnchorPoint: "A-30" 590.25 0 basechar 0
AnchorPoint: "A-29" 590.25 0 basechar 0
AnchorPoint: "A-28" 492.5 0 basechar 0
AnchorPoint: "A-27" 590.25 0 basechar 0
AnchorPoint: "A-26" 896.25 0 basechar 0
AnchorPoint: "A-25" 182.25 0 basechar 0
AnchorPoint: "A-24" 590.25 0 basechar 0
AnchorPoint: "A-23" 590.25 0 basechar 0
AnchorPoint: "A-20" 114.25 0 basechar 0
AnchorPoint: "A-7" 564.75 0 basechar 0
AnchorPoint: "A-6" 564.75 0 basechar 0
AnchorPoint: "A-5" 564.75 0 basechar 0
AnchorPoint: "A-4" 564.75 0 basechar 0
AnchorPoint: "A-2" 590.25 0 basechar 0
AnchorPoint: "A-1" 590.25 0 basechar 0
AnchorPoint: "A-0" 590.25 0 basechar 0
LayerCount: 2
Fore
SplineSet
48 1130 m 1
 87 1062 83 1045 238 955 c 1
 258 943 269 916 274 894 c 0
 278 877 277 866 277 863 c 0
 347 959 442 1037 544 1088 c 1
 749 1088 847 669 910 393 c 0
 912 385 l 0
 923 337 934 292 943 252 c 1
 947 233 950 215 950 198 c 0
 950 -7 629 -11 345 -42 c 1
 327 -19 317 4 312 27 c 0
 309 41 308 54 308 68 c 0
 308 102 316 137 326 171 c 1
 453 171 582 176 710 207 c 1
 761 225 795 260 795 330 c 0
 795 350 792 373 786 400 c 0
 783 413 778 431 774 451 c 0
 758 519 733 619 695 692 c 1
 668 742 635 788 584 824 c 1
 267 725 298 488 247 230 c 1
 230 207 213 184 152 149 c 1
 143 187 140 227 140 271 c 0
 140 401 172 554 200 719 c 1
 201 724 200 729 198 735 c 0
 190 773 142 848 -4 880 c 1
 0 949 l 1
 0 950 1 950 0 951 c 0
 -2 960 -16 969 -18 977 c 0
 -18 978 -18 978 -18 979 c 1
 1 1064 17 1087 48 1130 c 1
EndSplineSet
Validated: 1
LCarets2: 1 89 
MultipleSubs2: "Add hairspace before low marked Qof" mem hairspace
EndChar

StartChar: finalnun
Encoding: 170 1503 77
Width: 459
GlyphClass: 2
Flags: W
VStem: 32 119<490.141 767.846> 311 98<-309.937 -75.3999>
AnchorPoint: "A-69" -145.2 0 basechar 0
AnchorPoint: "A-68" -221.7 0 basechar 0
AnchorPoint: "A-67" -332.2 0 basechar 0
AnchorPoint: "A-66" -145.2 0 basechar 0
AnchorPoint: "A-65" -221.7 0 basechar 0
AnchorPoint: "A-64" -332.2 0 basechar 0
AnchorPoint: "A-63" -145.2 0 basechar 0
AnchorPoint: "A-62" -221.7 0 basechar 0
AnchorPoint: "A-61" -332.2 0 basechar 0
AnchorPoint: "A-59" 50.2998 0 basechar 0
AnchorPoint: "A-55" 381.8 0 basechar 0
AnchorPoint: "A-42" -187.7 0 basechar 0
AnchorPoint: "A-39" 288.3 0 basechar 0
AnchorPoint: "A-36" 288.3 0 basechar 0
AnchorPoint: "A-21" -315.2 0 basechar 0
AnchorPoint: "A-16" -315.2 0 basechar 0
AnchorPoint: "A-15" -221.7 0 basechar 0
AnchorPoint: "A-14" -98.4502 0 basechar 0
AnchorPoint: "A-13" -459.7 0 basechar 0
AnchorPoint: "A-12" -340.7 0 basechar 0
AnchorPoint: "A-11" -242.95 0 basechar 0
AnchorPoint: "A-10" -315.2 0 basechar 0
AnchorPoint: "A-9" -221.7 0 basechar 0
AnchorPoint: "A-8" -98.4502 0 basechar 0
AnchorPoint: "A-58" 288.3 0 basechar 0
AnchorPoint: "A-41" 75.7998 0 basechar 0
AnchorPoint: "A-40" -9.2002 0 basechar 0
AnchorPoint: "A-32" 288.3 0 basechar 0
AnchorPoint: "A-31" 288.3 0 basechar 0
AnchorPoint: "A-30" 441.3 0 basechar 0
AnchorPoint: "A-29" 492.3 0 basechar 0
AnchorPoint: "A-28" 462.55 0 basechar 0
AnchorPoint: "A-27" 118.3 0 basechar 0
AnchorPoint: "A-26" 381.8 0 basechar 0
AnchorPoint: "A-25" 50.2998 0 basechar 0
AnchorPoint: "A-24" 288.3 0 basechar 0
AnchorPoint: "A-23" 288.3 0 basechar 0
AnchorPoint: "A-20" -9.2002 0 basechar 0
AnchorPoint: "A-7" -204.7 0 basechar 0
AnchorPoint: "A-6" -170.7 0 basechar 0
AnchorPoint: "A-5" -60.2002 0 basechar 0
AnchorPoint: "A-4" 50.2998 0 basechar 0
AnchorPoint: "A-3" 50.2998 0 basechar 0
AnchorPoint: "A-2" 288.3 0 basechar 0
AnchorPoint: "A-1" 288.3 0 basechar 0
AnchorPoint: "A-0" 288.3 0 basechar 0
LayerCount: 2
Fore
SplineSet
187 151 m 1
 132 285 82 364 50 503 c 16
 39 552 32 595 32 634 c 0
 32 681 41 724 63 770 c 1
 18 806 -136 915 -136 915 c 17
 -119 1011 l 1
 -142 1044 l 1
 -134 1107 -103 1148 -65 1179 c 1
 -48 1137 -27 1095 23 1061 c 1
 104 1017 58 1041 149 999 c 1
 181 983 197 952 202 931 c 1
 203 919 203 907 203 895 c 0
 203 836 194 778 151 720 c 1
 152 697 156 673 162 647 c 0
 171 607 180 557 191 510 c 0
 199 477 207 445 216 419 c 0
 271 260 362 166 402 -10 c 0
 406 -28 409 -56 409 -90 c 0
 409 -160 396 -256 352 -337 c 9
 352 -337 316 -372 308 -394 c 1
 308 -392 307 -389 307 -385 c 0
 307 -370 311 -341 311 -303 c 0
 311 -268 308 -225 297 -178 c 1
 274 -76 210 86 187 151 c 1
EndSplineSet
Validated: 1
LCarets2: 1 36 
MultipleSubs2: "Add hairspace before narrowletter subtable subtable" hairspace finalnun
MultipleSubs2: "Add hairspace before low marked Qof" finalnun hairspace
EndChar

StartChar: nun
Encoding: 171 1504 78
Width: 609
GlyphClass: 2
Flags: W
VStem: -72 568
AnchorPoint: "A-69" 223.825 0 basechar 0
AnchorPoint: "A-68" 223.825 0 basechar 0
AnchorPoint: "A-67" 223.825 0 basechar 0
AnchorPoint: "A-66" 223.825 0 basechar 0
AnchorPoint: "A-65" 223.825 0 basechar 0
AnchorPoint: "A-64" 223.825 0 basechar 0
AnchorPoint: "A-63" 223.825 0 basechar 0
AnchorPoint: "A-62" 223.825 0 basechar 0
AnchorPoint: "A-61" 223.825 0 basechar 0
AnchorPoint: "A-59" 11.3252 0 basechar 0
AnchorPoint: "A-55" 478.825 0 basechar 0
AnchorPoint: "A-42" 283.325 0 basechar 0
AnchorPoint: "A-39" 334.325 0 basechar 0
AnchorPoint: "A-36" 351.325 0 basechar 0
AnchorPoint: "A-22" -141.675 0 basechar 0
AnchorPoint: "A-21" -332.925 0 basechar 0
AnchorPoint: "A-16" 283.325 0 basechar 0
AnchorPoint: "A-15" 283.325 0 basechar 0
AnchorPoint: "A-14" 283.325 0 basechar 0
AnchorPoint: "A-13" 283.325 0 basechar 0
AnchorPoint: "A-12" 283.325 0 basechar 0
AnchorPoint: "A-11" 283.325 0 basechar 0
AnchorPoint: "A-10" 283.325 0 basechar 0
AnchorPoint: "A-9" 283.325 0 basechar 0
AnchorPoint: "A-8" 283.325 0 basechar 0
AnchorPoint: "A-58" 351.325 0 basechar 0
AnchorPoint: "A-41" 79.3252 0 basechar 0
AnchorPoint: "A-40" 283.325 0 basechar 0
AnchorPoint: "A-32" 351.325 0 basechar 0
AnchorPoint: "A-31" 351.325 0 basechar 0
AnchorPoint: "A-30" 478.825 0 basechar 0
AnchorPoint: "A-29" 495.825 0 basechar 0
AnchorPoint: "A-28" 423.575 0 basechar 0
AnchorPoint: "A-27" 232.325 0 basechar 0
AnchorPoint: "A-26" 478.825 0 basechar 0
AnchorPoint: "A-25" 113.325 0 basechar 0
AnchorPoint: "A-24" 351.325 0 basechar 0
AnchorPoint: "A-23" 334.325 0 basechar 0
AnchorPoint: "A-20" 62.3252 0 basechar 0
AnchorPoint: "A-7" 283.325 0 basechar 0
AnchorPoint: "A-6" 283.325 0 basechar 0
AnchorPoint: "A-5" 283.325 0 basechar 0
AnchorPoint: "A-4" 283.325 0 basechar 0
AnchorPoint: "A-2" 334.325 0 basechar 0
AnchorPoint: "A-1" 334.325 0 basechar 0
AnchorPoint: "A-0" 334.325 0 basechar 0
LayerCount: 2
Fore
SplineSet
89 1068 m 1
 221 1001 261 930 261 930 c 17
 261 924 261 919 261 914 c 0
 261 872 251 860 251 835 c 0
 251 828 252 820 254 810 c 1
 256 782 260 756 267 729 c 0
 306 557 431 359 496 209 c 1
 496 209 497 195 497 176 c 0
 497 144 495 100 487 82 c 1
 373 -2 237 -17 106 -46 c 1
 82 -14 65 18 57 52 c 0
 54 63 53 75 53 86 c 0
 53 115 61 144 79 174 c 1
 160 174 236 195 305 245 c 9
 259 372 l 17
 207 520 203 631 120 813 c 1
 46 868 13 881 -57 912 c 1
 -50 986 l 1
 -72 1019 l 1
 -64 1082 -29 1127 9 1158 c 1
 25 1116 40 1102 89 1068 c 1
EndSplineSet
Validated: 1
LCarets2: 1 47 
MultipleSubs2: "Add hairspace before narrowletter subtable subtable" hairspace nun
MultipleSubs2: "Add hairspace before low marked Qof" nun hairspace
EndChar

StartChar: samekh
Encoding: 172 1505 79
Width: 1077
GlyphClass: 2
Flags: W
HStem: 806 220<202.493 647.58>
VStem: 110 85<543.654 776.275>
AnchorPoint: "A-69" 614.7 0 basechar 0
AnchorPoint: "A-68" 614.7 0 basechar 0
AnchorPoint: "A-67" 614.7 0 basechar 0
AnchorPoint: "A-66" 614.7 0 basechar 0
AnchorPoint: "A-65" 614.7 0 basechar 0
AnchorPoint: "A-64" 614.7 0 basechar 0
AnchorPoint: "A-63" 614.7 0 basechar 0
AnchorPoint: "A-62" 614.7 0 basechar 0
AnchorPoint: "A-61" 614.7 0 basechar 0
AnchorPoint: "A-59" 121.7 0 basechar 0
AnchorPoint: "A-55" 903.7 0 basechar 0
AnchorPoint: "A-42" 614.7 0 basechar 0
AnchorPoint: "A-39" 606.2 0 basechar 0
AnchorPoint: "A-36" 614.7 0 basechar 0
AnchorPoint: "A-21" -235.3 0 basechar 0
AnchorPoint: "A-16" 614.7 0 basechar 0
AnchorPoint: "A-15" 614.7 0 basechar 0
AnchorPoint: "A-14" 614.7 0 basechar 0
AnchorPoint: "A-13" 614.7 0 basechar 0
AnchorPoint: "A-12" 614.7 0 basechar 0
AnchorPoint: "A-11" 614.7 0 basechar 0
AnchorPoint: "A-10" 614.7 0 basechar 0
AnchorPoint: "A-9" 614.7 0 basechar 0
AnchorPoint: "A-8" 614.7 0 basechar 0
AnchorPoint: "A-58" 606.2 0 basechar 0
AnchorPoint: "A-41" 546.7 0 basechar 0
AnchorPoint: "A-40" 614.7 0 basechar 0
AnchorPoint: "A-32" 606.2 0 basechar 0
AnchorPoint: "A-31" 606.2 0 basechar 0
AnchorPoint: "A-30" 606.2 0 basechar 0
AnchorPoint: "A-29" 606.2 0 basechar 0
AnchorPoint: "A-28" 533.95 0 basechar 0
AnchorPoint: "A-27" 606.2 0 basechar 0
AnchorPoint: "A-26" 903.7 0 basechar 0
AnchorPoint: "A-25" 172.7 0 basechar 0
AnchorPoint: "A-24" 614.7 0 basechar 0
AnchorPoint: "A-23" 606.2 0 basechar 0
AnchorPoint: "A-20" 121.7 0 basechar 0
AnchorPoint: "A-7" 614.7 0 basechar 0
AnchorPoint: "A-6" 614.7 0 basechar 0
AnchorPoint: "A-5" 614.7 0 basechar 0
AnchorPoint: "A-4" 614.7 0 basechar 0
AnchorPoint: "A-2" 606.2 0 basechar 0
AnchorPoint: "A-1" 606.2 0 basechar 0
AnchorPoint: "A-0" 606.2 0 basechar 0
LayerCount: 2
Fore
SplineSet
580 823 m 1
 474 807 339 806 229 806 c 1
 205 789 195 741 195 709 c 0
 195 700 196 692 197 686 c 1
 234 523 262 407 466 200 c 1
 636 200 772 330 801 483 c 1
 767 633 614 818 580 823 c 1
140 1034 m 16
 188 1028 237 1026 285 1026 c 0
 415 1026 561 1040 612 1040 c 1
 722 919 819 787 876 543 c 1
 893 468 899 420 899 379 c 0
 899 327 889 287 881 216 c 1
 807 76 668 29 542 -42 c 9
 499 -35 l 17
 314 130 172 354 126 553 c 0
 118 589 112 623 110 658 c 1
 110 660 110 662 110 664 c 0
 110 694 151 763 164 810 c 1
 104 818 85 823 29 838 c 9
 -5 916 l 25
 -40 944 l 17
 -38 1022 -14 1071 17 1112 c 1
 43 1070 88 1041 140 1034 c 16
EndSplineSet
Validated: 1
LCarets2: 1 87 
MultipleSubs2: "Add hairspace before low marked Qof" samekh hairspace
EndChar

StartChar: ayin
Encoding: 173 1506 80
Width: 984
GlyphClass: 2
Flags: W
VStem: -87 297<846.292 978.477> 569 120<382.159 780.559>
AnchorPoint: "A-69" 498.125 0 basechar 0
AnchorPoint: "A-68" 498.125 0 basechar 0
AnchorPoint: "A-67" 498.125 0 basechar 0
AnchorPoint: "A-66" 498.125 0 basechar 0
AnchorPoint: "A-65" 498.125 0 basechar 0
AnchorPoint: "A-64" 498.125 0 basechar 0
AnchorPoint: "A-63" 498.125 0 basechar 0
AnchorPoint: "A-62" 498.125 0 basechar 0
AnchorPoint: "A-61" 498.125 0 basechar 0
AnchorPoint: "A-59" 64.625 0 basechar 0
AnchorPoint: "A-55" 855.125 0 basechar 0
AnchorPoint: "A-42" 498.125 0 basechar 0
AnchorPoint: "A-39" 523.625 0 basechar 0
AnchorPoint: "A-36" 523.625 0 basechar 0
AnchorPoint: "A-21" -300.875 0 basechar 0
AnchorPoint: "A-16" 532.125 0 basechar 0
AnchorPoint: "A-15" 498.125 0 basechar 0
AnchorPoint: "A-14" 498.125 0 basechar 0
AnchorPoint: "A-13" 532.125 0 basechar 0
AnchorPoint: "A-12" 498.125 0 basechar 0
AnchorPoint: "A-11" 498.125 0 basechar 0
AnchorPoint: "A-10" 532.125 0 basechar 0
AnchorPoint: "A-9" 498.125 0 basechar 0
AnchorPoint: "A-8" 498.125 0 basechar 0
AnchorPoint: "A-58" 523.625 0 basechar 0
AnchorPoint: "A-41" 362.125 0 basechar 0
AnchorPoint: "A-40" 498.125 0 basechar 0
AnchorPoint: "A-32" 523.625 0 basechar 0
AnchorPoint: "A-31" 523.625 0 basechar 0
AnchorPoint: "A-30" 523.625 0 basechar 0
AnchorPoint: "A-29" 523.625 0 basechar 0
AnchorPoint: "A-28" 476.875 0 basechar 0
AnchorPoint: "A-27" 523.625 0 basechar 0
AnchorPoint: "A-26" 855.125 0 basechar 0
AnchorPoint: "A-25" 124.125 0 basechar 0
AnchorPoint: "A-24" 523.625 0 basechar 0
AnchorPoint: "A-23" 523.625 0 basechar 0
AnchorPoint: "A-20" 47.625 0 basechar 0
AnchorPoint: "A-7" 464.125 0 basechar 0
AnchorPoint: "A-6" 532.125 0 basechar 0
AnchorPoint: "A-5" 498.125 0 basechar 0
AnchorPoint: "A-4" 498.125 0 basechar 0
AnchorPoint: "A-3" 520 60 basechar 0
AnchorPoint: "A-2" 523.625 0 basechar 0
AnchorPoint: "A-1" 523.625 0 basechar 0
AnchorPoint: "A-0" 523.625 0 basechar 0
LayerCount: 2
Fore
SplineSet
82 756 m 1
 15 784 11 760 -70 844 c 1
 -81 893 -87 936 -87 974 c 0
 -87 1022 -78 1062 -60 1096 c 1
 22 1040 113 998 210 964 c 1
 186 872 174 805 174 760 c 1
 219 565 382 436 413 305 c 0
 416 289 418 272 418 254 c 1
 528 303 569 481 569 664 c 0
 569 706 567 748 563 788 c 1
 496 819 444 818 387 892 c 1
 377 910 371 929 366 948 c 0
 362 964 361 980 361 996 c 0
 361 1046 379 1095 417 1128 c 1
 520 1017 618 1004 716 960 c 1
 689 796 l 9
 653 780 l 17
 678 673 689 580 689 498 c 0
 689 120 448 -17 182 -144 c 1
 160 -91 138 -38 126 11 c 0
 121 34 118 56 118 77 c 0
 118 94 120 109 124 124 c 1
 234 139 317 160 374 222 c 1
 298 346 120 530 87 673 c 0
 82 691 80 709 80 727 c 0
 80 737 81 746 82 756 c 1
EndSplineSet
Validated: 1
LCarets2: 1 78 
Substitution2: "Automatic Alternate Ayin Subtable" ayin.alt
MultipleSubs2: "Add hairspace before low marked Qof" ayin hairspace
Substitution2: "'salt' Stylistic Alternatives in Hebrew subtable" ayin.alt
EndChar

StartChar: finalpe
Encoding: 174 1507 81
Width: 907
GlyphClass: 2
Flags: W
HStem: 400 218<110.418 274.812>
VStem: -28 85<677.623 880.38> 10 293<461.245 617.512> 851 72<-341.876 -214.734>
AnchorPoint: "A-69" 406.35 0 basechar 0
AnchorPoint: "A-68" 312.85 0 basechar 0
AnchorPoint: "A-67" 219.35 0 basechar 0
AnchorPoint: "A-66" 406.35 0 basechar 0
AnchorPoint: "A-65" 312.85 0 basechar 0
AnchorPoint: "A-64" 219.35 0 basechar 0
AnchorPoint: "A-63" 406.35 0 basechar 0
AnchorPoint: "A-62" 312.85 0 basechar 0
AnchorPoint: "A-61" 219.35 0 basechar 0
AnchorPoint: "A-59" 117.35 0 basechar 0
AnchorPoint: "A-55" 754.85 0 basechar 0
AnchorPoint: "A-42" 338.35 0 basechar 0
AnchorPoint: "A-39" 542.35 0 basechar 0
AnchorPoint: "A-36" 542.35 0 basechar 0
AnchorPoint: "A-21" -248.15 0 basechar 0
AnchorPoint: "A-16" 193.85 0 basechar 0
AnchorPoint: "A-15" 321.35 0 basechar 0
AnchorPoint: "A-14" 431.85 0 basechar 0
AnchorPoint: "A-13" 83.3496 0 basechar 0
AnchorPoint: "A-12" 185.35 0 basechar 0
AnchorPoint: "A-11" 304.35 0 basechar 0
AnchorPoint: "A-10" 193.85 0 basechar 0
AnchorPoint: "A-9" 321.35 0 basechar 0
AnchorPoint: "A-8" 431.85 0 basechar 0
AnchorPoint: "A-58" 542.35 0 basechar 0
AnchorPoint: "A-41" 601.85 0 basechar 0
AnchorPoint: "A-40" 508.35 0 basechar 0
AnchorPoint: "A-32" 542.35 0 basechar 0
AnchorPoint: "A-31" 542.35 0 basechar 0
AnchorPoint: "A-30" 576.35 0 basechar 0
AnchorPoint: "A-29" 593.35 0 basechar 0
AnchorPoint: "A-28" 529.6 0 basechar 0
AnchorPoint: "A-27" 491.35 0 basechar 0
AnchorPoint: "A-26" 754.85 0 basechar 0
AnchorPoint: "A-25" 193.85 0 basechar 0
AnchorPoint: "A-24" 542.35 0 basechar 0
AnchorPoint: "A-23" 542.35 0 basechar 0
AnchorPoint: "A-20" 117.35 0 basechar 0
AnchorPoint: "A-7" 338.35 0 basechar 0
AnchorPoint: "A-6" 389.35 0 basechar 0
AnchorPoint: "A-5" 482.85 0 basechar 0
AnchorPoint: "A-4" 508.35 0 basechar 0
AnchorPoint: "A-2" 542.35 0 basechar 0
AnchorPoint: "A-1" 542.35 0 basechar 0
AnchorPoint: "A-0" 542.35 0 basechar 0
LayerCount: 2
Fore
SplineSet
99 1184 m 1xd0
 135 1116 185 1089 232 1056 c 1
 325 1015 457 1019 547 942 c 1
 663 845 745 507 824 166 c 0
 855 31 892 -123 921 -247 c 1
 922 -259 923 -269 923 -279 c 0
 923 -338 903 -366 851 -382 c 1
 849 -350 845 -331 840 -309 c 0
 838 -298 835 -285 831 -269 c 1
 798 -127 716 38 672 230 c 0
 663 269 660 309 650 352 c 1
 596 584 535 746 447 795 c 1
 344 872 262 901 162 901 c 1
 61 887 58 833 57 778 c 1xd0
 77 693 122 618 196 618 c 0
 215 618 238 624 262 636 c 1
 278 606 290 578 296 549 c 0
 301 529 303 509 303 490 c 0
 303 466 300 443 293 421 c 1
 263 410 228 400 186 400 c 0
 156 400 123 405 87 419 c 1
 87 419 30 481 14 549 c 0
 12 560 10 571 10 582 c 0xb0
 10 599 14 616 24 632 c 1
 6 672 -13 710 -22 750 c 0
 -26 766 -28 781 -28 797 c 0
 -28 842 -11 888 36 935 c 9
 -4 1001 l 17
 9 1092 34 1165 99 1184 c 1xd0
EndSplineSet
Validated: 1
LCarets2: 1 73 
MultipleSubs2: "Add hairspace before low marked Qof" finalpe hairspace
EndChar

StartChar: pe
Encoding: 175 1508 82
Width: 982
GlyphClass: 2
Flags: W
HStem: -40 213<111.813 531.268> 394 188<148.312 282.248> 869 287<61.484 259.5>
VStem: -28 103<641.343 855.296> 5 303<423.109 581.038>
AnchorPoint: "A-69" 485.65 0 basechar 0
AnchorPoint: "A-68" 485.65 0 basechar 0
AnchorPoint: "A-67" 485.65 0 basechar 0
AnchorPoint: "A-66" 485.65 0 basechar 0
AnchorPoint: "A-65" 485.65 0 basechar 0
AnchorPoint: "A-64" 485.65 0 basechar 0
AnchorPoint: "A-63" 485.65 0 basechar 0
AnchorPoint: "A-62" 485.65 0 basechar 0
AnchorPoint: "A-61" 485.65 0 basechar 0
AnchorPoint: "A-59" 69.1504 0 basechar 0
AnchorPoint: "A-55" 783.15 0 basechar 0
AnchorPoint: "A-42" 485.65 0 basechar 0
AnchorPoint: "A-39" 553.65 0 basechar 0
AnchorPoint: "A-36" 554.5 0 basechar 0
AnchorPoint: "A-21" -296.35 0 basechar 0
AnchorPoint: "A-16" 494.15 0 basechar 0
AnchorPoint: "A-15" 494.15 0 basechar 0
AnchorPoint: "A-14" 494.15 0 basechar 0
AnchorPoint: "A-13" 494.15 0 basechar 0
AnchorPoint: "A-12" 494.15 0 basechar 0
AnchorPoint: "A-11" 494.15 0 basechar 0
AnchorPoint: "A-10" 494.15 0 basechar 0
AnchorPoint: "A-9" 494.15 0 basechar 0
AnchorPoint: "A-8" 494.15 0 basechar 0
AnchorPoint: "A-58" 553.65 0 basechar 0
AnchorPoint: "A-41" 417.65 0 basechar 0
AnchorPoint: "A-40" 485.65 0 basechar 0
AnchorPoint: "A-32" 553.65 0 basechar 0
AnchorPoint: "A-31" 553.65 0 basechar 0
AnchorPoint: "A-30" 596.15 0 basechar 0
AnchorPoint: "A-29" 613.15 0 basechar 0
AnchorPoint: "A-28" 481.4 0 basechar 0
AnchorPoint: "A-27" 494.15 0 basechar 0
AnchorPoint: "A-26" 783.15 0 basechar 0
AnchorPoint: "A-25" 196.65 0 basechar 0
AnchorPoint: "A-24" 554.5 0 basechar 0
AnchorPoint: "A-23" 553.65 0 basechar 0
AnchorPoint: "A-20" 137.15 0 basechar 0
AnchorPoint: "A-7" 494.15 0 basechar 0
AnchorPoint: "A-6" 494.15 0 basechar 0
AnchorPoint: "A-5" 494.15 0 basechar 0
AnchorPoint: "A-4" 494.15 0 basechar 0
AnchorPoint: "A-2" 553.65 0 basechar 0
AnchorPoint: "A-1" 553.65 0 basechar 0
AnchorPoint: "A-0" 553.65 0 basechar 0
LayerCount: 2
Fore
SplineSet
8 1040 m 1xf0
 18 1077 37 1156 87 1156 c 0
 91 1156 95 1156 100 1154 c 1
 136 996 426 1052 556 972 c 1
 671 890 750 639 774 536 c 0
 807 393 827 268 832 141 c 1
 832 136 833 131 833 126 c 0
 833 85 817 70 803 38 c 1
 651 -30 335 -40 117 -40 c 1
 111 -12 105 25 105 63 c 0
 105 102 111 142 128 173 c 1
 357 173 571 210 715 282 c 1
 655 540 585 723 501 784 c 0
 410 850 342 869 177 869 c 1
 114 869 75 836 75 777 c 0xf0
 75 766 77 753 80 739 c 0
 90 696 120 625 147 608 c 0
 175 591 202 582 224 582 c 0
 248 582 267 591 283 608 c 1
 292 587 300 565 304 544 c 0
 307 533 308 522 308 511 c 0
 308 471 293 433 283 394 c 1
 112 394 l 1
 52 416 24 426 8 492 c 0
 6 502 5 513 5 523 c 0xe8
 5 548 11 574 24 602 c 1
 2 642 -14 678 -21 710 c 0
 -26 729 -28 747 -28 762 c 0
 -28 827 6 865 39 905 c 1
 0 962 l 1
 -1 966 0 970 0 976 c 0
 0 990 2 1011 8 1040 c 1xf0
EndSplineSet
Validated: 1
LCarets2: 1 75 
MultipleSubs2: "Add hairspace before low marked Qof" pe hairspace
EndChar

StartChar: finaltsadi
Encoding: 176 1509 83
Width: 894
GlyphClass: 2
Flags: W
VStem: 257 60<565 638.155> 448 62<-301.125 -236.17>
AnchorPoint: "A-69" 582.75 0 basechar 0
AnchorPoint: "A-68" 625.25 0 basechar 0
AnchorPoint: "A-67" 625.25 0 basechar 0
AnchorPoint: "A-66" 582.75 0 basechar 0
AnchorPoint: "A-65" 625.25 0 basechar 0
AnchorPoint: "A-64" 625.25 0 basechar 0
AnchorPoint: "A-63" 582.75 0 basechar 0
AnchorPoint: "A-62" 625.25 0 basechar 0
AnchorPoint: "A-61" 625.25 0 basechar 0
AnchorPoint: "A-59" 132.25 0 basechar 0
AnchorPoint: "A-55" 829.25 0 basechar 0
AnchorPoint: "A-42" 710.25 0 basechar 0
AnchorPoint: "A-39" 540.25 0 basechar 0
AnchorPoint: "A-36" 540.25 0 basechar 0
AnchorPoint: "A-21" -233.25 0 basechar 0
AnchorPoint: "A-16" 888.75 0 basechar 0
AnchorPoint: "A-15" 795.25 0 basechar 0
AnchorPoint: "A-14" 676.25 0 basechar 0
AnchorPoint: "A-13" 888.75 0 basechar 0
AnchorPoint: "A-12" 795.25 0 basechar 0
AnchorPoint: "A-11" 676.25 0 basechar 0
AnchorPoint: "A-10" 888.75 0 basechar 0
AnchorPoint: "A-9" 795.25 0 basechar 0
AnchorPoint: "A-8" 676.25 0 basechar 0
AnchorPoint: "A-58" 540.25 0 basechar 0
AnchorPoint: "A-41" 446.75 0 basechar 0
AnchorPoint: "A-40" 684.75 0 basechar 0
AnchorPoint: "A-32" 540.25 0 basechar 0
AnchorPoint: "A-31" 540.25 0 basechar 0
AnchorPoint: "A-30" 540.25 0 basechar 0
AnchorPoint: "A-29" 540.25 0 basechar 0
AnchorPoint: "A-28" 544.5 0 basechar 0
AnchorPoint: "A-27" 506.25 0 basechar 0
AnchorPoint: "A-26" 829.25 0 basechar 0
AnchorPoint: "A-25" 132.25 0 basechar 0
AnchorPoint: "A-24" 540.25 0 basechar 0
AnchorPoint: "A-23" 540.25 0 basechar 0
AnchorPoint: "A-20" 72.75 0 basechar 0
AnchorPoint: "A-7" 871.75 0 basechar 0
AnchorPoint: "A-6" 820.75 0 basechar 0
AnchorPoint: "A-5" 718.75 0 basechar 0
AnchorPoint: "A-4" 625.25 0 basechar 0
AnchorPoint: "A-3" 157.75 0 basechar 0
AnchorPoint: "A-2" 540.25 0 basechar 0
AnchorPoint: "A-1" 540.25 0 basechar 0
AnchorPoint: "A-0" 540.25 0 basechar 0
LayerCount: 2
Fore
SplineSet
212 984 m 1
 213 970 213 958 213 947 c 0
 213 853 196 829 185 776 c 1
 185 776 167 779 166 783 c 1
 173 753 169 768 176 735 c 0
 179 724 181 713 184 703 c 0
 198 643 212 593 257 565 c 1
 260 666 306 786 391 848 c 9
 311 927 l 17
 311 932 311 937 311 941 c 0
 311 1057 335 1134 398 1145 c 1
 461 1076 541 986 639 951 c 1
 626 888 626 841 593 762 c 1
 582 762 561 780 544 780 c 0
 531 780 517 782 504 782 c 0
 491 782 479 780 469 772 c 1
 411 747 379 717 355 658 c 16
 332 604 317 562 317 511 c 0
 317 488 320 463 327 434 c 8
 357 303 396 248 452 102 c 1
 464 53 483 9 492 -31 c 0
 503 -77 510 -131 510 -183 c 0
 510 -266 493 -346 448 -390 c 1
 443 -352 436 -313 427 -274 c 1
 399 -153 334 120 257 291 c 1
 180 452 108 646 66 828 c 1
 2 862 -64 892 -117 946 c 1
 -113 1014 -116 1068 -58 1163 c 1
 -5 1090 132 1086 212 984 c 1
EndSplineSet
Validated: 1
LCarets2: 1 71 
MultipleSubs2: "Add hairspace before low marked Qof" finaltsadi hairspace
EndChar

StartChar: tsadi
Encoding: 177 1510 84
Width: 958
GlyphClass: 2
Flags: W
HStem: -18 198<139.109 261.486>
VStem: -72 296<878.927 992.317> 369 78<564.628 715.875>
AnchorPoint: "A-69" 467.625 0 basechar 0
AnchorPoint: "A-68" 467.625 0 basechar 0
AnchorPoint: "A-67" 467.625 0 basechar 0
AnchorPoint: "A-66" 467.625 0 basechar 0
AnchorPoint: "A-65" 467.625 0 basechar 0
AnchorPoint: "A-64" 467.625 0 basechar 0
AnchorPoint: "A-63" 467.625 0 basechar 0
AnchorPoint: "A-62" 467.625 0 basechar 0
AnchorPoint: "A-61" 467.625 0 basechar 0
AnchorPoint: "A-59" 76.625 0 basechar 0
AnchorPoint: "A-55" 799.125 0 basechar 0
AnchorPoint: "A-42" 467.625 0 basechar 0
AnchorPoint: "A-39" 501.625 0 basechar 0
AnchorPoint: "A-36" 501.625 0 basechar 0
AnchorPoint: "A-21" -288.875 0 basechar 0
AnchorPoint: "A-16" 467.625 0 basechar 0
AnchorPoint: "A-15" 467.625 0 basechar 0
AnchorPoint: "A-14" 467.625 0 basechar 0
AnchorPoint: "A-13" 467.625 0 basechar 0
AnchorPoint: "A-12" 467.625 0 basechar 0
AnchorPoint: "A-11" 467.625 0 basechar 0
AnchorPoint: "A-10" 467.625 0 basechar 0
AnchorPoint: "A-9" 467.625 0 basechar 0
AnchorPoint: "A-8" 467.625 0 basechar 0
AnchorPoint: "A-58" 501.625 0 basechar 0
AnchorPoint: "A-41" 348.625 0 basechar 0
AnchorPoint: "A-40" 467.625 0 basechar 0
AnchorPoint: "A-32" 501.625 0 basechar 0
AnchorPoint: "A-31" 501.625 0 basechar 0
AnchorPoint: "A-30" 501.625 0 basechar 0
AnchorPoint: "A-29" 518.625 0 basechar 0
AnchorPoint: "A-28" 488.875 0 basechar 0
AnchorPoint: "A-27" 467.625 0 basechar 0
AnchorPoint: "A-26" 799.125 0 basechar 0
AnchorPoint: "A-25" 110.625 0 basechar 0
AnchorPoint: "A-24" 501.625 0 basechar 0
AnchorPoint: "A-23" 501.625 0 basechar 0
AnchorPoint: "A-20" 25.625 0 basechar 0
AnchorPoint: "A-7" 467.625 0 basechar 0
AnchorPoint: "A-6" 467.625 0 basechar 0
AnchorPoint: "A-5" 467.625 0 basechar 0
AnchorPoint: "A-4" 467.625 0 basechar 0
AnchorPoint: "A-2" 501.625 0 basechar 0
AnchorPoint: "A-1" 501.625 0 basechar 0
AnchorPoint: "A-0" 501.625 0 basechar 0
LayerCount: 2
Fore
SplineSet
478 479 m 9
 478 479 703 334 732 210 c 1
 732 205 733 200 733 195 c 0
 733 67 575 49 445 24 c 1
 300 0 263 -1 130 -18 c 1
 129 3 129 20 129 34 c 0
 129 84 134 101 146 180 c 1
 179 180 231 188 263 188 c 0
 361 188 447 202 552 252 c 9
 504 294 478 318 430 360 c 24
 373 410 334 433 286 490 c 1
 208 582 137 681 116 771 c 0
 114 781 112 790 109 800 c 1
 38 825 -4 851 -72 922 c 9
 -72 922 -71 1126 -23 1147 c 1
 39 1048 155 1000 222 980 c 1
 224 967 224 951 224 934 c 0
 224 894 221 846 221 814 c 0
 221 801 221 791 223 784 c 1
 187 792 l 1
 188 785 189 778 191 771 c 0
 211 685 283 609 369 564 c 1
 371 655 403 784 450 846 c 1
 424 885 418 860 363 923 c 1
 386 965 381 1039 456 1123 c 1
 535 1046 608 1005 704 930 c 1
 696 895 654 767 652 767 c 1
 619 767 609 783 574 793 c 1
 438 702 462 671 447 589 c 1
 445 565 445 545 449 528 c 0
 454 508 463 492 478 479 c 9
EndSplineSet
Validated: 1
LCarets2: 1 75 
MultipleSubs2: "Add hairspace before low marked Qof" tsadi hairspace
EndChar

StartChar: kof
Encoding: 178 1511 85
Width: 1011
GlyphClass: 2
Flags: W
HStem: 830 205<197.828 607.852>
VStem: 376 117<-255.643 -127.322>
AnchorPoint: "A-69" 572.825 0 basechar 0
AnchorPoint: "A-68" 572.825 0 basechar 0
AnchorPoint: "A-67" 572.825 0 basechar 0
AnchorPoint: "A-66" 572.825 0 basechar 0
AnchorPoint: "A-65" 572.825 0 basechar 0
AnchorPoint: "A-64" 572.825 0 basechar 0
AnchorPoint: "A-63" 572.825 0 basechar 0
AnchorPoint: "A-62" 572.825 0 basechar 0
AnchorPoint: "A-61" 572.825 0 basechar 0
AnchorPoint: "A-59" 113.825 0 basechar 0
AnchorPoint: "A-55" 895.825 0 basechar 0
AnchorPoint: "A-42" 768.325 0 basechar 0
AnchorPoint: "A-39" 598.325 0 basechar 0
AnchorPoint: "A-36" 598.325 0 basechar 0
AnchorPoint: "A-21" -251.675 0 basechar 0
AnchorPoint: "A-16" 802.325 0 basechar 0
AnchorPoint: "A-15" 708.825 0 basechar 0
AnchorPoint: "A-14" 606.825 0 basechar 0
AnchorPoint: "A-13" 802.325 0 basechar 0
AnchorPoint: "A-12" 708.825 0 basechar 0
AnchorPoint: "A-11" 606.825 0 basechar 0
AnchorPoint: "A-10" 810.825 0 basechar 0
AnchorPoint: "A-9" 802.325 0 basechar 0
AnchorPoint: "A-8" 742.825 0 basechar 0
AnchorPoint: "A-58" 598.325 0 basechar 0
AnchorPoint: "A-41" 453.825 0 basechar 0
AnchorPoint: "A-40" 623.825 0 basechar 0
AnchorPoint: "A-32" 598.325 0 basechar 0
AnchorPoint: "A-31" 598.325 0 basechar 0
AnchorPoint: "A-30" 598.325 0 basechar 0
AnchorPoint: "A-29" 598.325 0 basechar 0
AnchorPoint: "A-28" 526.075 0 basechar 0
AnchorPoint: "A-27" 598.325 0 basechar 0
AnchorPoint: "A-26" 895.825 0 basechar 0
AnchorPoint: "A-25" 156.325 0 basechar 0
AnchorPoint: "A-24" 598.325 0 basechar 0
AnchorPoint: "A-23" 598.325 0 basechar 0
AnchorPoint: "A-20" 96.8252 0 basechar 0
AnchorPoint: "A-7" 802.325 0 basechar 0
AnchorPoint: "A-6" 751.325 0 basechar 0
AnchorPoint: "A-5" 674.825 0 basechar 0
AnchorPoint: "A-4" 572.825 0 basechar 0
AnchorPoint: "A-2" 598.325 0 basechar 0
AnchorPoint: "A-1" 598.325 0 basechar 0
AnchorPoint: "A-0" 598.325 0 basechar 0
LayerCount: 2
Fore
SplineSet
-24 1144 m 1
 35 1052 195 1035 300 1035 c 0
 315 1035 329 1035 344 1035 c 0
 436 1035 532 1044 631 1059 c 1
 701 973 762 815 790 694 c 0
 802 644 808 591 808 538 c 0
 808 499 805 460 798 420 c 1
 644 360 583 238 539 106 c 1
 524 110 499 142 489 185 c 0
 487 194 486 202 485 211 c 1
 491 272 510 300 522 332 c 9
 705 589 l 17
 677 658 636 772 569 830 c 1
 462 830 295 824 193 803 c 9
 266 487 l 17
 321 245 435 109 486 -114 c 1
 491 -135 493 -155 493 -174 c 0
 493 -286 417 -361 376 -411 c 1
 372 -315 354 -221 327 -106 c 0
 272 134 183 399 132 621 c 1
 130 631 129 642 129 652 c 0
 129 717 167 789 172 818 c 1
 96 840 33 848 -41 897 c 1
 -54 956 -61 997 -61 1029 c 0
 -61 1075 -48 1105 -24 1144 c 1
EndSplineSet
Validated: 1
LCarets2: 1 85 
MultipleSubs2: "Add hairspace before low marked Qof" kof hairspace
EndChar

StartChar: resh
Encoding: 179 1512 86
Width: 931
GlyphClass: 2
Flags: W
HStem: 6 21G<726 789.5> 827 225<-15.95 510.92>
VStem: 735 83<19.7533 324.741>
AnchorPoint: "A-69" 691.2 0 basechar 0
AnchorPoint: "A-68" 606.2 0 basechar 0
AnchorPoint: "A-67" 521.2 0 basechar 0
AnchorPoint: "A-66" 691.2 0 basechar 0
AnchorPoint: "A-65" 606.2 0 basechar 0
AnchorPoint: "A-64" 521.2 0 basechar 0
AnchorPoint: "A-63" 691.2 0 basechar 0
AnchorPoint: "A-62" 606.2 0 basechar 0
AnchorPoint: "A-61" 521.2 0 basechar 0
AnchorPoint: "A-59" 104.7 0 basechar 0
AnchorPoint: "A-55" 767.7 0 basechar 0
AnchorPoint: "A-42" 614.7 0 basechar 0
AnchorPoint: "A-39" 487.2 0 basechar 0
AnchorPoint: "A-36" 487.2 0 basechar 0
AnchorPoint: "A-21" -260.8 0 basechar 0
AnchorPoint: "A-19" 538.2 0 basechar 0
AnchorPoint: "A-18" 614.7 0 basechar 0
AnchorPoint: "A-17" 657.2 0 basechar 0
AnchorPoint: "A-16" 538.2 0 basechar 0
AnchorPoint: "A-15" 614.7 0 basechar 0
AnchorPoint: "A-14" 657.2 0 basechar 0
AnchorPoint: "A-13" 512.7 0 basechar 0
AnchorPoint: "A-12" 589.2 0 basechar 0
AnchorPoint: "A-11" 631.7 0 basechar 0
AnchorPoint: "A-10" 538.2 0 basechar 0
AnchorPoint: "A-9" 614.7 0 basechar 0
AnchorPoint: "A-8" 657.2 0 basechar 0
AnchorPoint: "A-58" 487.2 0 basechar 0
AnchorPoint: "A-41" 487.2 0 basechar 0
AnchorPoint: "A-40" 699.7 0 basechar 0
AnchorPoint: "A-32" 487.2 0 basechar 0
AnchorPoint: "A-31" 487.2 0 basechar 0
AnchorPoint: "A-30" 487.2 0 basechar 0
AnchorPoint: "A-29" 487.2 0 basechar 0
AnchorPoint: "A-28" 516.95 0 basechar 0
AnchorPoint: "A-27" 487.2 0 basechar 0
AnchorPoint: "A-26" 767.7 0 basechar 0
AnchorPoint: "A-25" 104.7 0 basechar 0
AnchorPoint: "A-24" 487.2 0 basechar 0
AnchorPoint: "A-23" 487.2 0 basechar 0
AnchorPoint: "A-20" 28.2002 0 basechar 0
AnchorPoint: "A-7" 576.45 0 basechar 0
AnchorPoint: "A-6" 631.7 0 basechar 0
AnchorPoint: "A-5" 750.7 0 basechar 0
AnchorPoint: "A-4" 784.7 0 basechar 0
AnchorPoint: "A-2" 487.2 0 basechar 0
AnchorPoint: "A-1" 487.2 0 basechar 0
AnchorPoint: "A-0" 487.2 0 basechar 0
LayerCount: 2
Fore
SplineSet
561 690 m 1
 538 742 514 807 460 827 c 9
 -33 827 l 25
 -88 927 l 25
 -122 955 l 17
 -120 1033 -102 1100 -70 1141 c 1
 -32 1107 7 1067 90 1052 c 1
 463 1052 l 1
 596 1052 687 814 743 571 c 1
 789 374 l 1
 805 304 818 226 818 158 c 0
 818 92 806 36 773 6 c 9
 726 22 l 17
 732 46 735 71 735 98 c 0
 735 140 728 186 717 234 c 1
 685 372 637 517 561 690 c 1
EndSplineSet
Validated: 1
LCarets2: 1 72 
MultipleSubs2: "Add hairspace before low marked Qof" resh hairspace
Substitution2: "'jalt' Wide Letter Alternatives in Hebrew subtable" resh.wide
EndChar

StartChar: shin
Encoding: 180 1513 87
Width: 1324
GlyphClass: 2
Flags: W
VStem: 90 74<604.883 832.901> 420 104<241.007 730.108> 438 88<241.007 698.922>
AnchorPoint: "A-69" 688.575 0 basechar 0
AnchorPoint: "A-68" 688.575 0 basechar 0
AnchorPoint: "A-67" 688.575 0 basechar 0
AnchorPoint: "A-66" 688.575 0 basechar 0
AnchorPoint: "A-65" 688.575 0 basechar 0
AnchorPoint: "A-64" 688.575 0 basechar 0
AnchorPoint: "A-63" 688.575 0 basechar 0
AnchorPoint: "A-62" 688.575 0 basechar 0
AnchorPoint: "A-61" 688.575 0 basechar 0
AnchorPoint: "A-59" 123.325 0 basechar 0
AnchorPoint: "A-55" 1185.83 0 basechar 0
AnchorPoint: "A-42" 688.575 0 basechar 0
AnchorPoint: "A-39" 709.825 0 basechar 0
AnchorPoint: "A-36" 709.825 0 basechar 0
AnchorPoint: "A-21" -242.175 0 basechar 0
AnchorPoint: "A-16" 688.575 0 basechar 0
AnchorPoint: "A-15" 688.575 0 basechar 0
AnchorPoint: "A-14" 688.575 0 basechar 0
AnchorPoint: "A-13" 688.575 0 basechar 0
AnchorPoint: "A-12" 688.575 0 basechar 0
AnchorPoint: "A-11" 688.575 0 basechar 0
AnchorPoint: "A-10" 688.575 0 basechar 0
AnchorPoint: "A-9" 688.575 0 basechar 0
AnchorPoint: "A-8" 688.575 0 basechar 0
AnchorPoint: "A-58" 709.825 0 basechar 0
AnchorPoint: "A-41" 688.575 0 basechar 0
AnchorPoint: "A-40" 688.575 0 basechar 0
AnchorPoint: "A-32" 709.825 0 basechar 0
AnchorPoint: "A-31" 709.825 0 basechar 0
AnchorPoint: "A-30" 548.325 0 basechar 0
AnchorPoint: "A-29" 633.325 0 basechar 0
AnchorPoint: "A-28" 535.575 0 basechar 0
AnchorPoint: "A-27" 786.325 0 basechar 0
AnchorPoint: "A-26" 1185.83 0 basechar 0
AnchorPoint: "A-25" 165.825 0 basechar 0
AnchorPoint: "A-24" 709.825 0 basechar 0
AnchorPoint: "A-23" 709.825 0 basechar 0
AnchorPoint: "A-20" 55.3252 0 basechar 0
AnchorPoint: "A-7" 688.575 0 basechar 0
AnchorPoint: "A-6" 688.575 0 basechar 0
AnchorPoint: "A-5" 688.575 0 basechar 0
AnchorPoint: "A-4" 688.575 0 basechar 0
AnchorPoint: "A-2" 709.825 0 basechar 0
AnchorPoint: "A-1" 709.825 0 basechar 0
AnchorPoint: "A-0" 709.825 0 basechar 0
LayerCount: 2
Fore
SplineSet
67 1082 m 1xa0
 238 966 l 1
 242 959 l 1
 242 957 243 955 243 953 c 0
 243 917 201 818 175 799 c 1
 168 781 164 762 164 739 c 0
 164 727 165 714 168 700 c 0
 187 621 208 592 236 536 c 0
 264 481 328 336 380 270 c 0
 393 252 407 241 420 241 c 0xc0
 432 241 440 250 438 272 c 0xa0
 435 334 420 468 420 570 c 0
 420 587 419 604 420 619 c 0
 429 722 451 773 471 846 c 1
 361 908 l 1
 368 995 363 1026 460 1125 c 1
 479 1043 602 983 685 920 c 1
 684 877 669 797 652 768 c 1
 643 772 634 774 627 774 c 0
 606 774 597 759 591 755 c 1
 559 724 524 675 524 598 c 0
 524 597 524 596 524 595 c 2xc0
 526 208 l 1
 551 205 573 203 596 203 c 0
 707 203 775 324 795 398 c 2
 904 802 l 1
 758 925 l 1
 772 999 759 1066 836 1130 c 1
 839 1130 893 1035 926 1012 c 2
 1083 902 l 1
 1080 820 1073 802 1030 726 c 1
 1012 726 995 722 973 696 c 0
 962 683 950 677 946 637 c 2
 913 262 l 1
 873 238 l 1
 756 135 642 26 522 -20 c 1
 507 -31 492 -32 476 -30 c 1
 438 -30 401 -10 383 31 c 2
 112 588 l 1
 110 597 107 610 104 624 c 0
 97 653 90 687 90 710 c 0
 90 718 91 724 93 728 c 1
 93 737 94 745 94 754 c 0
 94 767 93 780 90 792 c 0
 86 809 79 826 67 842 c 1
 -71 926 l 1
 -72 932 -73 943 -73 958 c 0
 -73 981 -71 1014 -61 1048 c 0
 -49 1089 -26 1134 15 1169 c 1
 27 1117 67 1082 67 1082 c 1xa0
EndSplineSet
Validated: 1
LCarets2: 1 104 
MultipleSubs2: "Add hairspace before low marked Qof" shin hairspace
EndChar

StartChar: tav
Encoding: 181 1514 88
Width: 1116
GlyphClass: 2
Flags: W
HStem: 827 225<302.059 653.851>
VStem: 174 102<436.603 778.812> 937 68<41 122.706>
AnchorPoint: "A-69" 655.6 0 basechar 0
AnchorPoint: "A-68" 655.6 0 basechar 0
AnchorPoint: "A-67" 655.6 0 basechar 0
AnchorPoint: "A-66" 655.6 0 basechar 0
AnchorPoint: "A-65" 655.6 0 basechar 0
AnchorPoint: "A-64" 655.6 0 basechar 0
AnchorPoint: "A-63" 655.6 0 basechar 0
AnchorPoint: "A-62" 655.6 0 basechar 0
AnchorPoint: "A-61" 655.6 0 basechar 0
AnchorPoint: "A-59" 107.35 0 basechar 0
AnchorPoint: "A-55" 965.85 0 basechar 0
AnchorPoint: "A-42" 655.6 0 basechar 0
AnchorPoint: "A-39" 676.85 0 basechar 0
AnchorPoint: "A-36" 690.45 0 basechar 0
AnchorPoint: "A-21" -236.9 0 basechar 0
AnchorPoint: "A-16" 655.6 0 basechar 0
AnchorPoint: "A-15" 655.6 0 basechar 0
AnchorPoint: "A-14" 655.6 0 basechar 0
AnchorPoint: "A-13" 655.6 0 basechar 0
AnchorPoint: "A-12" 655.6 0 basechar 0
AnchorPoint: "A-11" 655.6 0 basechar 0
AnchorPoint: "A-10" 655.6 0 basechar 0
AnchorPoint: "A-9" 655.6 0 basechar 0
AnchorPoint: "A-8" 655.6 0 basechar 0
AnchorPoint: "A-58" 676.85 0 basechar 0
AnchorPoint: "A-41" 634.35 0 basechar 0
AnchorPoint: "A-40" 655.6 0 basechar 0
AnchorPoint: "A-32" 676.85 0 basechar 0
AnchorPoint: "A-31" 676.85 0 basechar 0
AnchorPoint: "A-30" 676.85 0 basechar 0
AnchorPoint: "A-29" 676.85 0 basechar 0
AnchorPoint: "A-28" 519.6 0 basechar 0
AnchorPoint: "A-27" 676.85 0 basechar 0
AnchorPoint: "A-26" 965.85 0 basechar 0
AnchorPoint: "A-25" 209.35 0 basechar 0
AnchorPoint: "A-24" 690.45 0 basechar 0
AnchorPoint: "A-23" 676.85 0 basechar 0
AnchorPoint: "A-20" 141.35 0 basechar 0
AnchorPoint: "A-7" 655.6 0 basechar 0
AnchorPoint: "A-6" 655.6 0 basechar 0
AnchorPoint: "A-5" 655.6 0 basechar 0
AnchorPoint: "A-4" 655.6 0 basechar 0
AnchorPoint: "A-2" 676.85 0 basechar 0
AnchorPoint: "A-1" 676.85 0 basechar 0
AnchorPoint: "A-0" 676.85 0 basechar 0
LayerCount: 2
Fore
SplineSet
203 1052 m 9
 594 1052 l 17
 706 1052 745 905 787 811 c 9
 1007 239 l 17
 1017 198 1020 160 1020 125 c 0
 1020 76 1013 31 1005 -11 c 9
 937 41 l 17
 933 68 929 96 922 125 c 0
 878 315 761 554 664 771 c 1
 642 802 612 827 571 827 c 9
 357 827 l 17
 337 827 311 809 299 775 c 1
 286 735 276 690 276 639 c 0
 276 606 280 571 289 533 c 0
 306 459 343 373 407 271 c 9
 455 271 l 25
 500 79 l 17
 408 22 315 -32 197 -63 c 1
 175 -10 144 37 132 93 c 0
 127 111 125 129 126 149 c 1
 186 176 247 190 306 241 c 1
 242 344 203 431 186 506 c 0
 178 541 174 574 174 605 c 0
 174 695 206 765 247 827 c 9
 41 863 l 17
 32 885 25 906 20 926 c 0
 14 953 11 981 11 1007 c 0
 11 1054 21 1097 43 1126 c 1
 100 1056 144 1052 203 1052 c 9
EndSplineSet
Validated: 1
LCarets2: 1 91 
MultipleSubs2: "Add hairspace before low marked Qof" tav hairspace
Substitution2: "'jalt' Wide Letter Alternatives in Hebrew subtable" tav.wide
EndChar

StartChar: geresh
Encoding: 185 1523 92
Width: 396
GlyphClass: 2
Flags: W
HStem: 685 452
VStem: -63 45<694.201 728.702>
LayerCount: 2
Fore
SplineSet
102 1100 m 1
 107 1086 110 1076 113 1060 c 1
 44 874 l 1
 -18 685 l 1
 -33 685 -49 691 -63 698 c 1
 -67 797 -69 893 -69 988 c 0
 -69 1030 -69 1071 -68 1112 c 0
 -68 1129 -60 1137 -45 1137 c 0
 -41 1137 -34 1136 -26 1134 c 2
 102 1100 l 1
EndSplineSet
Validated: 1
EndChar

StartChar: zerononjoin
Encoding: 189 8204 96
Width: 0
GlyphClass: 2
Flags: W
HStem: 1613 281
VStem: -570 330
LayerCount: 2
Fore
SplineSet
-545 1894 m 1
 -412 1786 l 1
 -331 1893 l 1
 -289 1860 l 1
 -372 1753 l 1
 -240 1646 l 1
 -266 1613 l 1
 -397 1719 l 1
 -480 1613 l 1
 -521 1646 l 1
 -439 1753 l 1
 -570 1860 l 1
 -545 1894 l 1
EndSplineSet
Validated: 1
EndChar

StartChar: zerojoin
Encoding: 190 8205 97
Width: 0
GlyphClass: 2
Flags: W
HStem: 1637 140<-581 -555 -221 -206> 1730 47<-555 -242>
VStem: -613 439
LayerCount: 2
Fore
SplineSet
-221 1637 m 1xa0
 -242 1730 l 1
 -555 1730 l 1x60
 -534 1637 l 1
 -581 1637 l 1xa0
 -613 1777 l 1x60
 -206 1777 l 1
 -174 1637 l 1
 -221 1637 l 1xa0
EndSplineSet
Validated: 1
EndChar

StartChar: lrm
Encoding: 191 8206 98
Width: 0
GlyphClass: 2
Flags: W
HStem: 1730 47<-553 -306>
VStem: -564 354
LayerCount: 2
Fore
SplineSet
-408 1860 m 1
 -383 1894 l 1
 -210 1753 l 1
 -318 1612 l 1
 -359 1646 l 1
 -294 1730 l 1
 -553 1730 l 1
 -564 1777 l 1
 -306 1777 l 1
 -408 1860 l 1
EndSplineSet
Validated: 1
EndChar

StartChar: rlm
Encoding: 192 8207 99
Width: 0
GlyphClass: 2
Flags: W
HStem: 1730 47<-502 -255>
VStem: -599 355
LayerCount: 2
Fore
SplineSet
-400 1647 m 1
 -425 1613 l 1
 -599 1754 l 1
 -490 1895 l 1
 -450 1861 l 1
 -514 1777 l 1
 -255 1777 l 1
 -244 1730 l 1
 -502 1730 l 1
 -400 1647 l 1
EndSplineSet
Validated: 1
EndChar

StartChar: quoteleft
Encoding: 193 8216 100
Width: 422
GlyphClass: 2
Flags: W
HStem: 932 549<-129 0>
VStem: -41 71<932.251 947>
LayerCount: 2
Fore
SplineSet
-16 1397 m 1
 30 958 l 2
 30 952 23 932 0 932 c 0
 -23 932 -39 942 -41 947 c 0
 -51 977 -60 1005 -69 1032 c 2
 -198 1366 l 1
 -201 1379 -204 1389 -205 1395 c 0
 -207 1405 -208 1415 -208 1423 c 0
 -208 1462 -182 1481 -129 1481 c 0
 -66 1481 -28 1453 -16 1397 c 1
EndSplineSet
Validated: 1
EndChar

StartChar: quoteright
Encoding: 194 8217 101
Width: 422
GlyphClass: 2
Flags: W
HStem: 932 549<-129 0>
VStem: -41 71<932.251 947>
LayerCount: 2
Fore
SplineSet
-16 1397 m 1
 30 958 l 2
 30 952 23 932 0 932 c 0
 -23 932 -39 942 -41 947 c 0
 -51 977 -60 1005 -69 1032 c 2
 -198 1366 l 1
 -201 1379 -204 1389 -205 1395 c 0
 -207 1405 -208 1415 -208 1423 c 0
 -208 1462 -182 1481 -129 1481 c 0
 -66 1481 -28 1453 -16 1397 c 1
EndSplineSet
Validated: 1
EndChar

StartChar: quotesinglbase
Encoding: 195 8218 102
Width: 422
GlyphClass: 2
Flags: W
HStem: -302 545<155 281>
VStem: 244 70<-301.991 -195.562>
LayerCount: 2
Fore
SplineSet
268 159 m 1
 314 -294 l 2
 314 -299 304 -302 281 -302 c 0
 258 -302 245 -299 244 -294 c 0
 237 -263 224 -233 215 -206 c 2
 85 128 l 1
 82 141 80 151 79 157 c 0
 77 167 76 176 76 184 c 0
 76 223 102 243 155 243 c 0
 218 243 255 215 268 159 c 1
EndSplineSet
Validated: 1
EndChar

StartChar: newshekel
Encoding: 199 8362 106
Width: 1389
VWidth: 2008
GlyphClass: 2
Flags: W
HStem: -64 283<737.424 845.299> 827 195<-62.1793 28 147.325 500.736> 1022 20G<578 627.889>
VStem: 16 129<553.442 826.082> 219 236<563.613 671.464> 503 133<628.131 838.987>
LayerCount: 2
Fore
SplineSet
-86 1084 m 1
 -41 1047 12 1025 55 1025 c 0
 149 1025 245 1022 339 1022 c 0
 439 1022 535 1025 621 1042 c 9
 683 862 l 17
 649 843 636 810 636 769 c 0
 636 748 639 726 645 702 c 0
 677 564 737 526 773 435 c 9
 695 230 l 17
 649 430 557 554 520 716 c 0
 511 755 504 796 503 840 c 1
 455 830 388 827 321 827 c 0
 266 827 211 827 163 827 c 1
 151 808 145 782 145 751 c 0
 145 723 150 691 158 656 c 0
 195 492 303 284 318 221 c 1
 295 150 262 84 228 22 c 1
 183 218 73 455 32 633 c 0
 22 678 16 719 16 754 c 0
 16 782 19 807 28 827 c 9
 -83 827 l 17
 -91 842 -98 860 -103 882 c 0
 -110 913 -113 948 -113 981 c 0
 -113 1033 -104 1077 -86 1084 c 1
245 777 m 1
 279 734 303 708 455 658 c 9
 464 537 l 17
 445 524 437 517 440 503 c 0
 450 461 461 419 482 384 c 0
 572 242 654 219 697 219 c 2
 803 219 l 2
 819 219 831 232 846 236 c 1
 948 318 947 338 971 385 c 9
 876 798 l 25
 734 849 l 17
 727 860 721 879 715 904 c 0
 708 933 703 970 703 1003 c 0
 703 1045 711 1081 731 1095 c 1
 754 1067 797 1042 858 1016 c 2
 963 971 l 9
 1004 794 l 17
 992 782 969 769 967 752 c 0
 964 734 963 716 963 698 c 0
 963 667 967 637 974 606 c 0
 990 536 1021 462 1043 367 c 9
 1033 286 l 17
 989 156 953 72 876 -16 c 0
 862 -38 834 -64 802 -64 c 0
 785 -64 767 -56 750 -37 c 0
 614 120 538 143 451 293 c 0
 405 391 405 451 339 536 c 1
 297 552 296 543 245 563 c 1
 238 576 232 594 228 610 c 0
 222 637 219 667 219 693 c 0
 219 738 227 774 245 777 c 1
EndSplineSet
Validated: 1
EndChar

StartChar: Euro
Encoding: 200 8364 107
Width: 1127
VWidth: 3029
GlyphClass: 2
Flags: W
HStem: -58 195<540.357 855.49> 194 20G<952.5 965> 354 135<404.63 824> 424 87<19.8481 63> 591 123<-14.2188 45 229 691.575> 1049 118<310.589 628.035>
VStem: 59 158<715.031 897.673>
LayerCount: 2
Fore
SplineSet
482 1167 m 0xde
 554 1167 635 1152 727 1118 c 1
 826 1045 844 1001 862 921 c 0
 867 903 871 883 876 861 c 1
 842 876 806 884 772 884 c 0
 738 884 706 876 672 864 c 1
 677 878 680 893 680 907 c 0
 680 916 679 925 677 933 c 0
 661 1002 585 1049 494 1049 c 0
 485 1049 474 1049 462 1049 c 0
 282 1049 217 930 217 777 c 0
 217 757 218 736 220 714 c 1
 310 714 399 713 488 713 c 0
 659 713 737 714 896 738 c 9
 889 574 l 17
 650 574 486 584 229 584 c 9
 244 521 l 17
 391 494 458 489 595 489 c 0
 683 489 751 487 847 487 c 9
 824 354 l 17xee
 616 354 490 386 274 421 c 1
 345 308 515 137 713 137 c 0
 784 137 857 158 929 211 c 1
 939 211 948 214 957 214 c 0
 973 214 986 209 991 188 c 0
 992 180 994 171 992 157 c 1
 940 15 824 -58 688 -58 c 0
 489 -58 249 97 96 424 c 9
 29 424 l 17
 27 434 25 442 23 449 c 0
 18 472 16 489 30 511 c 9
 63 511 l 25
 45 591 l 25
 8 591 l 17
 -3 611 -14 630 -19 651 c 0
 -21 660 -23 670 -19 681 c 1
 -5 693 9 704 59 714 c 1
 78 935 203 1167 482 1167 c 0xde
EndSplineSet
Validated: 1
EndChar

StartChar: dottedcircle
Encoding: 201 9676 108
Width: 1150
GlyphClass: 2
Flags: W
HStem: -12 143<557.362 659.751> 48 143<344.838 447.227 742.838 845.227> 222 143<156.362 258.751 850.362 952.751> 456 143<51.3616 153.751 847.362 949.751> 690 143<48.3616 150.751 742.362 844.751> 864 143<156.362 258.751 554.362 656.751> 924 143<341.362 443.751>
VStem: 39 128<464.467 590.387 697.001 822.875> 144 128<230.467 356.387 872.467 998.387> 332 128<56.4672 182.492 931.001 1056.88> 545 128<-3.53281 122.387 871.001 996.875> 730 128<56.4672 182.492 698.467 824.387> 838 128<230.467 356.387 463.001 588.875>
AnchorPoint: "A-69" 656.075 0 basechar 0
AnchorPoint: "A-68" 656.075 0 basechar 0
AnchorPoint: "A-67" 656.075 0 basechar 0
AnchorPoint: "A-66" 656.075 0 basechar 0
AnchorPoint: "A-65" 656.075 0 basechar 0
AnchorPoint: "A-64" 656.075 0 basechar 0
AnchorPoint: "A-63" 656.075 0 basechar 0
AnchorPoint: "A-62" 656.075 0 basechar 0
AnchorPoint: "A-61" 656.075 0 basechar 0
AnchorPoint: "A-59" 93.375 0 basechar 0
AnchorPoint: "A-55" 970.575 0 basechar 0
AnchorPoint: "A-42" 656.075 0 basechar 0
AnchorPoint: "A-39" 622.075 0 basechar 0
AnchorPoint: "A-36" 622.075 0 basechar 0
AnchorPoint: "A-21" -272.125 0 basechar 0
AnchorPoint: "A-16" 622.075 0 basechar 0
AnchorPoint: "A-15" 622.075 0 basechar 0
AnchorPoint: "A-14" 622.075 0 basechar 0
AnchorPoint: "A-13" 622.075 0 basechar 0
AnchorPoint: "A-12" 622.075 0 basechar 0
AnchorPoint: "A-11" 622.075 0 basechar 0
AnchorPoint: "A-10" 622.075 0 basechar 0
AnchorPoint: "A-9" 622.075 0 basechar 0
AnchorPoint: "A-8" 622.075 0 basechar 0
AnchorPoint: "A-60" 622.075 0 basechar 0
AnchorPoint: "A-58" 622.075 0 basechar 0
AnchorPoint: "A-41" 628.875 0 basechar 0
AnchorPoint: "A-40" 656.075 0 basechar 0
AnchorPoint: "A-32" 622.075 0 basechar 0
AnchorPoint: "A-31" 622.075 0 basechar 0
AnchorPoint: "A-30" 518.375 0 basechar 0
AnchorPoint: "A-29" 622.075 0 basechar 0
AnchorPoint: "A-28" 505.625 0 basechar 0
AnchorPoint: "A-27" 622.075 0 basechar 0
AnchorPoint: "A-26" 970.575 0 basechar 0
AnchorPoint: "A-25" 220.875 0 basechar 0
AnchorPoint: "A-24" 622.075 0 basechar 0
AnchorPoint: "A-23" 622.075 0 basechar 0
AnchorPoint: "A-20" 25.375 0 basechar 0
AnchorPoint: "A-7" 622.075 0 basechar 0
AnchorPoint: "A-6" 622.075 0 basechar 0
AnchorPoint: "A-5" 622.075 0 basechar 0
AnchorPoint: "A-4" 622.075 0 basechar 0
AnchorPoint: "A-3" 600 0 basechar 0
AnchorPoint: "A-2" 622.075 0 basechar 0
AnchorPoint: "A-1" 622.075 0 basechar 0
AnchorPoint: "A-0" 622.075 0 basechar 0
LayerCount: 2
Fore
SplineSet
42 527 m 0x3960
 40 537 39 546 39 554 c 0
 39 584 54 599 86 599 c 0
 127 599 152 575 163 527 c 0
 165 517 167 508 167 500 c 0
 167 471 151 456 119 456 c 0
 79 456 53 480 42 527 c 0x3960
838 527 m 0x3868
 836 537 835 546 835 554 c 0
 835 584 850 599 882 599 c 0
 923 599 948 575 959 527 c 0
 961 517 963 508 963 500 c 0
 963 471 947 456 915 456 c 0
 875 456 849 480 838 527 c 0x3868
332 995 m 0
 330 1005 329 1014 329 1022 c 0
 329 1052 344 1067 376 1067 c 0
 417 1067 442 1043 453 995 c 0
 455 985 457 976 457 968 c 0
 457 939 441 924 409 924 c 0x3a60
 369 924 343 948 332 995 c 0
548 59 m 0
 546 69 545 78 545 86 c 0
 545 116 560 131 592 131 c 0
 633 131 658 107 669 59 c 0
 671 49 673 40 673 32 c 0
 673 3 657 -12 625 -12 c 0xb860
 585 -12 559 12 548 59 c 0
733 761 m 0
 731 771 730 780 730 788 c 0
 730 818 745 833 777 833 c 0
 818 833 843 809 854 761 c 0
 856 751 858 742 858 734 c 0x3870
 858 705 842 690 810 690 c 0
 770 690 744 714 733 761 c 0
841 293 m 0
 839 303 838 312 838 320 c 0
 838 350 853 365 885 365 c 0
 926 365 951 341 962 293 c 0
 964 283 966 274 966 266 c 0x3868
 966 237 950 222 918 222 c 0
 878 222 852 246 841 293 c 0
39 761 m 0x3960
 37 771 36 780 36 788 c 0
 36 818 51 833 83 833 c 0
 124 833 149 809 160 761 c 0
 162 751 164 742 164 734 c 0
 164 705 148 690 116 690 c 0
 76 690 50 714 39 761 c 0x3960
147 293 m 0
 145 303 144 312 144 320 c 0
 144 350 159 365 191 365 c 0
 232 365 257 341 268 293 c 0
 270 283 272 274 272 266 c 0x38e0
 272 237 256 222 224 222 c 0
 184 222 158 246 147 293 c 0
147 935 m 0
 145 945 144 954 144 962 c 0
 144 992 159 1007 191 1007 c 0
 232 1007 257 983 268 935 c 0
 270 925 272 916 272 908 c 0
 272 879 256 864 224 864 c 0x3ce0
 184 864 158 888 147 935 c 0
545 935 m 0
 543 945 542 954 542 962 c 0
 542 992 557 1007 589 1007 c 0
 630 1007 655 983 666 935 c 0
 668 925 670 916 670 908 c 0
 670 879 654 864 622 864 c 0
 582 864 556 888 545 935 c 0
336 119 m 0
 333 130 332 139 332 148 c 0
 332 177 348 191 379 191 c 0
 420 191 445 167 457 119 c 0
 459 109 460 101 460 93 c 0
 460 63 445 48 412 48 c 0x7860
 372 48 346 72 336 119 c 0
734 119 m 0
 731 130 730 139 730 148 c 0
 730 177 746 191 777 191 c 0
 818 191 843 167 855 119 c 0
 857 109 858 101 858 93 c 0x7870
 858 63 843 48 810 48 c 0
 770 48 744 72 734 119 c 0
EndSplineSet
Validated: 1
LCarets2: 1 93 
MultipleSubs2: "Add hairspace before low marked Qof" dottedcircle hairspace
EndChar

StartChar: jsvarika
Encoding: 203 64286 110
Width: 0
GlyphClass: 4
Flags: W
HStem: 1188 202
VStem: -500 372
AnchorPoint: "A-55" -187 0 mark 0
AnchorPoint: "A-57" -425 0 basemark 0
AnchorPoint: "A-56" 0 0 basemark 0
AnchorPoint: "A-57" 0 0 mark 0
AnchorPoint: "A-24" 0 0 mark 0
LayerCount: 2
Fore
SplineSet
-274 1188 m 1
 -324 1215 -400 1301 -500 1361 c 1
 -504 1377 l 1
 -504 1382 -501 1387 -500 1390 c 1
 -489 1387 -373 1324 -296 1283 c 1
 -241 1322 -201 1348 -136 1374 c 1
 -133 1371 -129 1366 -128 1361 c 1
 -125 1345 l 1
 -188 1307 -242 1208 -274 1188 c 1
EndSplineSet
Validated: 1
LCarets2: 1 0 
EndChar

StartChar: ayin.alt
Encoding: 205 64288 112
Width: 970
GlyphClass: 2
Flags: W
HStem: -14 198<96.4902 405.081>
VStem: -49 297<872.292 1004.48> 636 99<312.93 805.099>
AnchorPoint: "A-69" 493.15 0 basechar 0
AnchorPoint: "A-68" 493.15 0 basechar 0
AnchorPoint: "A-67" 493.15 0 basechar 0
AnchorPoint: "A-66" 493.15 0 basechar 0
AnchorPoint: "A-65" 493.15 0 basechar 0
AnchorPoint: "A-64" 493.15 0 basechar 0
AnchorPoint: "A-63" 493.15 0 basechar 0
AnchorPoint: "A-62" 493.15 0 basechar 0
AnchorPoint: "A-61" 493.15 0 basechar 0
AnchorPoint: "A-59" 76.6504 0 basechar 0
AnchorPoint: "A-55" 875.65 0 basechar 0
AnchorPoint: "A-42" 493.15 0 basechar 0
AnchorPoint: "A-39" 561.15 0 basechar 0
AnchorPoint: "A-36" 561.15 0 basechar 0
AnchorPoint: "A-21" -288.85 0 basechar 0
AnchorPoint: "A-16" 493.15 0 basechar 0
AnchorPoint: "A-15" 493.15 0 basechar 0
AnchorPoint: "A-14" 493.15 0 basechar 0
AnchorPoint: "A-13" 493.15 0 basechar 0
AnchorPoint: "A-12" 493.15 0 basechar 0
AnchorPoint: "A-11" 493.15 0 basechar 0
AnchorPoint: "A-10" 493.15 0 basechar 0
AnchorPoint: "A-9" 493.15 0 basechar 0
AnchorPoint: "A-8" 493.15 0 basechar 0
AnchorPoint: "A-58" 561.15 0 basechar 0
AnchorPoint: "A-41" 374.15 0 basechar 0
AnchorPoint: "A-40" 493.15 0 basechar 0
AnchorPoint: "A-32" 561.15 0 basechar 0
AnchorPoint: "A-31" 76.6504 0 basechar 0
AnchorPoint: "A-30" 561.15 0 basechar 0
AnchorPoint: "A-29" 561.15 0 basechar 0
AnchorPoint: "A-28" 488.9 0 basechar 0
AnchorPoint: "A-27" 561.15 0 basechar 0
AnchorPoint: "A-26" 875.65 0 basechar 0
AnchorPoint: "A-25" 144.65 0 basechar 0
AnchorPoint: "A-24" 561.15 0 basechar 0
AnchorPoint: "A-23" 561.15 0 basechar 0
AnchorPoint: "A-20" 76.6504 0 basechar 0
AnchorPoint: "A-7" 493.15 0 basechar 0
AnchorPoint: "A-6" 493.15 0 basechar 0
AnchorPoint: "A-5" 493.15 0 basechar 0
AnchorPoint: "A-4" 493.15 0 basechar 0
AnchorPoint: "A-3" 580 40 basechar 0
AnchorPoint: "A-2" 561.15 0 basechar 0
AnchorPoint: "A-1" 561.15 0 basechar 0
AnchorPoint: "A-0" 561.15 0 basechar 0
LayerCount: 2
Fore
SplineSet
120 782 m 1
 53 810 49 786 -32 870 c 1
 -43 919 -49 962 -49 1000 c 0
 -49 1048 -40 1088 -22 1122 c 1
 60 1066 151 1024 248 990 c 1
 224 898 212 831 212 786 c 1
 257 591 409 441 439 310 c 0
 442 299 451 274 455 254 c 0
 457 246 458 239 458 234 c 1
 593 234 636 372 636 532 c 0
 636 626 621 728 601 814 c 1
 534 845 482 844 425 918 c 1
 415 936 409 955 404 974 c 0
 400 990 399 1006 399 1022 c 0
 399 1072 417 1121 455 1154 c 1
 558 1043 656 1030 754 986 c 1
 727 822 l 9
 691 806 l 17
 719 683 735 569 735 469 c 0
 735 289 685 150 571 71 c 1
 495 16 376 -14 241 -14 c 1
 200 -14 159 -14 117 -14 c 1
 95 39 91 20 80 69 c 0
 73 101 62 156 62 195 c 0
 62 206 63 216 65 224 c 1
 151 210 220 184 291 184 c 0
 329 184 366 191 407 212 c 1
 331 336 158 556 125 699 c 0
 120 717 118 735 118 753 c 0
 118 763 119 772 120 782 c 1
EndSplineSet
Validated: 1
LCarets2: 1 77 
MultipleSubs2: "Add hairspace before low marked Qof" ayin.alt hairspace
EndChar

StartChar: alef.wide
Encoding: 206 64289 113
Width: 1673
GlyphClass: 2
Flags: W
HStem: 52 209<382.411 532.781>
VStem: 113 103<371.893 634.497> 1163 97<592.194 773.254>
AnchorPoint: "A-69" 927.6 0 basechar 0
AnchorPoint: "A-68" 927.6 0 basechar 0
AnchorPoint: "A-67" 927.6 0 basechar 0
AnchorPoint: "A-66" 927.6 0 basechar 0
AnchorPoint: "A-65" 927.6 0 basechar 0
AnchorPoint: "A-64" 927.6 0 basechar 0
AnchorPoint: "A-63" 927.6 0 basechar 0
AnchorPoint: "A-62" 927.6 0 basechar 0
AnchorPoint: "A-61" 927.6 0 basechar 0
AnchorPoint: "A-59" 137.1 0 basechar 0
AnchorPoint: "A-55" 1454.6 0 basechar 0
AnchorPoint: "A-42" 927.6 0 basechar 0
AnchorPoint: "A-39" 910.6 0 basechar 0
AnchorPoint: "A-36" 910.6 0 basechar 0
AnchorPoint: "A-21" -228.4 0 basechar 0
AnchorPoint: "A-16" 927.6 0 basechar 0
AnchorPoint: "A-15" 927.6 0 basechar 0
AnchorPoint: "A-14" 927.6 0 basechar 0
AnchorPoint: "A-13" 927.6 0 basechar 0
AnchorPoint: "A-12" 927.6 0 basechar 0
AnchorPoint: "A-11" 927.6 0 basechar 0
AnchorPoint: "A-10" 927.6 0 basechar 0
AnchorPoint: "A-9" 927.6 0 basechar 0
AnchorPoint: "A-8" 927.6 0 basechar 0
AnchorPoint: "A-58" 910.6 0 basechar 0
AnchorPoint: "A-41" 1182.6 0 basechar 0
AnchorPoint: "A-40" 927.6 0 basechar 0
AnchorPoint: "A-32" 910.6 0 basechar 0
AnchorPoint: "A-31" 910.6 0 basechar 0
AnchorPoint: "A-30" 655.6 0 basechar 0
AnchorPoint: "A-29" 740.6 0 basechar 0
AnchorPoint: "A-28" 549.35 0 basechar 0
AnchorPoint: "A-27" 1080.6 0 basechar 0
AnchorPoint: "A-26" 1454.6 0 basechar 0
AnchorPoint: "A-25" 264.6 0 basechar 0
AnchorPoint: "A-24" 910.6 0 basechar 0
AnchorPoint: "A-23" 910.6 0 basechar 0
AnchorPoint: "A-20" 145.6 0 basechar 0
AnchorPoint: "A-7" 927.6 0 basechar 0
AnchorPoint: "A-6" 927.6 0 basechar 0
AnchorPoint: "A-5" 927.6 0 basechar 0
AnchorPoint: "A-4" 927.6 0 basechar 0
AnchorPoint: "A-3" 990 -450 basechar 0
AnchorPoint: "A-2" 910.6 0 basechar 0
AnchorPoint: "A-1" 910.6 0 basechar 0
AnchorPoint: "A-0" 910.6 0 basechar 0
LayerCount: 2
Fore
SplineSet
1068 534 m 1
 1123 583 1163 653 1163 723 c 0
 1163 787 1130 851 1045 900 c 1
 1058 972 1068 1043 1098 1120 c 1
 1177 1041 1265 984 1356 938 c 1
 1348 867 1331 804 1293 764 c 9
 1243 772 l 17
 1254 726 1260 678 1260 633 c 0
 1260 561 1244 495 1208 455 c 1
 1365 378 1410 345 1539 258 c 1
 1539 251 1540 243 1540 235 c 0
 1540 130 1504 -12 1500 -12 c 1
 1350 219 1126 299 788 435 c 1
 778 445 345 641 299 651 c 1
 257 651 216 599 216 516 c 0
 216 495 218 473 224 448 c 0
 252 325 388 261 457 261 c 0
 481 261 508 269 534 288 c 1
 546 128 548 52 548 52 c 17
 443 52 366 2 287 -48 c 9
 257 -4 l 17
 257 59 283 99 305 142 c 1
 226 202 149 303 130 384 c 0
 118 436 113 486 113 532 c 0
 113 646 143 743 179 828 c 1
 71 925 l 9
 164 1144 l 17
 389 734 878 591 1068 534 c 1
EndSplineSet
Validated: 1
LCarets2: 1 137 
MultipleSubs2: "Add hairspace before low marked Qof" alef.wide hairspace
EndChar

StartChar: dalet.wide
Encoding: 207 64290 114
Width: 1550
GlyphClass: 2
Flags: W
HStem: 825 201<45.1223 1026.39> 1033 20G<1132.5 1205>
VStem: 1026 138<641.396 809.986> 1260 83<4.05942 160.96>
AnchorPoint: "A-69" 1194.22 0 basechar 0
AnchorPoint: "A-68" 1109.22 0 basechar 0
AnchorPoint: "A-67" 1024.22 0 basechar 0
AnchorPoint: "A-66" 1194.22 0 basechar 0
AnchorPoint: "A-65" 1109.22 0 basechar 0
AnchorPoint: "A-64" 1024.22 0 basechar 0
AnchorPoint: "A-63" 1194.22 0 basechar 0
AnchorPoint: "A-62" 1109.22 0 basechar 0
AnchorPoint: "A-61" 1024.22 0 basechar 0
AnchorPoint: "A-59" 123.225 0 basechar 0
AnchorPoint: "A-55" 1296.22 0 basechar 0
AnchorPoint: "A-42" 1092.22 0 basechar 0
AnchorPoint: "A-39" 820.225 0 basechar 0
AnchorPoint: "A-36" 820.225 0 basechar 0
AnchorPoint: "A-21" -242.275 0 basechar 0
AnchorPoint: "A-19" 1015.72 0 basechar 0
AnchorPoint: "A-18" 1143.22 0 basechar 0
AnchorPoint: "A-17" 1134.72 0 basechar 0
AnchorPoint: "A-16" 1015.72 0 basechar 0
AnchorPoint: "A-15" 1143.22 0 basechar 0
AnchorPoint: "A-14" 1134.72 0 basechar 0
AnchorPoint: "A-13" 888.225 0 basechar 0
AnchorPoint: "A-12" 1015.72 0 basechar 0
AnchorPoint: "A-11" 1007.22 0 basechar 0
AnchorPoint: "A-10" 1015.72 0 basechar 0
AnchorPoint: "A-9" 1143.22 0 basechar 0
AnchorPoint: "A-8" 1134.72 0 basechar 0
AnchorPoint: "A-58" 803.225 0 basechar 0
AnchorPoint: "A-41" 973.225 0 basechar 0
AnchorPoint: "A-40" 1279.22 0 basechar 0
AnchorPoint: "A-32" 820.225 0 basechar 0
AnchorPoint: "A-31" 820.225 0 basechar 0
AnchorPoint: "A-30" 565.225 0 basechar 0
AnchorPoint: "A-29" 650.225 0 basechar 0
AnchorPoint: "A-28" 535.475 0 basechar 0
AnchorPoint: "A-27" 990.225 0 basechar 0
AnchorPoint: "A-26" 1296.22 0 basechar 0
AnchorPoint: "A-25" 106.225 0 basechar 0
AnchorPoint: "A-24" 820.225 0 basechar 0
AnchorPoint: "A-23" 820.225 0 basechar 0
AnchorPoint: "A-20" 38.2246 0 basechar 0
AnchorPoint: "A-7" 1104.97 0 basechar 0
AnchorPoint: "A-6" 1160.22 0 basechar 0
AnchorPoint: "A-5" 1287.72 0 basechar 0
AnchorPoint: "A-4" 1287.72 0 basechar 0
AnchorPoint: "A-3" 700 0 basechar 0
AnchorPoint: "A-2" 820.225 0 basechar 0
AnchorPoint: "A-1" 820.225 0 basechar 0
AnchorPoint: "A-0" 820.225 0 basechar 0
LayerCount: 2
Fore
SplineSet
1031 838 m 1
 948 825 308 825 222 825 c 0
 68 825 11 840 0 845 c 9
 -51 942 l 25
 -86 970 l 17
 -84 1048 -60 1097 -29 1138 c 1
 10 1104 30 1059 113 1044 c 1
 193 1036 484 1026 567 1026 c 0
 666 1026 1083 1039 1182 1053 c 1
 1228 994 1260 924 1277 849 c 1
 1208 832 1164 766 1164 707 c 0
 1164 699 1165 690 1167 682 c 0
 1198 546 1341 315 1343 170 c 1
 1343 167 1343 165 1343 162 c 0
 1343 107 1323 45 1289 -25 c 9
 1260 -3 l 17
 1221 166 1187 295 1096 479 c 1
 1091 503 1060 585 1055 606 c 2
 1039 676 l 2
 1031 709 1026 742 1026 778 c 0
 1026 797 1027 817 1031 838 c 1
EndSplineSet
Validated: 1
LCarets2: 1 123 
MultipleSubs2: "Add hairspace before low marked Qof" dalet.wide hairspace
EndChar

StartChar: he.wide
Encoding: 208 64291 115
Width: 1655
GlyphClass: 2
Flags: W
HStem: 831 188<129.833 1217.2> 1023 20G<1273.5 1346>
VStem: 165 80<372.865 575.054> 1241 128<567.119 841.756> 1470 83<-5.94058 109.03>
AnchorPoint: "A-69" 918.875 0 basechar 0
AnchorPoint: "A-68" 918.875 0 basechar 0
AnchorPoint: "A-67" 918.875 0 basechar 0
AnchorPoint: "A-66" 918.875 0 basechar 0
AnchorPoint: "A-65" 918.875 0 basechar 0
AnchorPoint: "A-64" 918.875 0 basechar 0
AnchorPoint: "A-63" 918.875 0 basechar 0
AnchorPoint: "A-62" 918.875 0 basechar 0
AnchorPoint: "A-61" 918.875 0 basechar 0
AnchorPoint: "A-59" 136.875 0 basechar 0
AnchorPoint: "A-55" 1479.88 0 basechar 0
AnchorPoint: "A-42" 918.875 0 basechar 0
AnchorPoint: "A-39" 918.875 0 basechar 0
AnchorPoint: "A-36" 918.875 0 basechar 0
AnchorPoint: "A-21" -228.625 0 basechar 0
AnchorPoint: "A-16" 901.875 0 basechar 0
AnchorPoint: "A-15" 901.875 0 basechar 0
AnchorPoint: "A-14" 901.875 0 basechar 0
AnchorPoint: "A-13" 901.875 0 basechar 0
AnchorPoint: "A-12" 901.875 0 basechar 0
AnchorPoint: "A-11" 901.875 0 basechar 0
AnchorPoint: "A-10" 901.875 0 basechar 0
AnchorPoint: "A-9" 901.875 0 basechar 0
AnchorPoint: "A-8" 901.875 0 basechar 0
AnchorPoint: "A-58" 918.875 0 basechar 0
AnchorPoint: "A-41" 1156.88 0 basechar 0
AnchorPoint: "A-40" 918.875 0 basechar 0
AnchorPoint: "A-32" 918.875 0 basechar 0
AnchorPoint: "A-31" 918.875 0 basechar 0
AnchorPoint: "A-30" 663.875 0 basechar 0
AnchorPoint: "A-29" 748.875 0 basechar 0
AnchorPoint: "A-28" 549.125 0 basechar 0
AnchorPoint: "A-27" 1088.88 0 basechar 0
AnchorPoint: "A-26" 1479.88 0 basechar 0
AnchorPoint: "A-25" 204.875 0 basechar 0
AnchorPoint: "A-24" 918.875 0 basechar 0
AnchorPoint: "A-23" 918.875 0 basechar 0
AnchorPoint: "A-20" 136.875 0 basechar 0
AnchorPoint: "A-7" 901.875 0 basechar 0
AnchorPoint: "A-6" 901.875 0 basechar 0
AnchorPoint: "A-5" 901.875 0 basechar 0
AnchorPoint: "A-4" 901.875 0 basechar 0
AnchorPoint: "A-3" 901.875 0 basechar 0
AnchorPoint: "A-2" 918.875 0 basechar 0
AnchorPoint: "A-1" 918.875 0 basechar 0
AnchorPoint: "A-0" 918.875 0 basechar 0
LayerCount: 2
Fore
SplineSet
377 224 m 1
 370 148 356 18 335 -36 c 9
 282 -12 l 17
 250 67 204 187 185 268 c 0
 172 325 165 383 165 440 c 0
 165 554 192 663 245 746 c 1
 247 634 243 547 262 462 c 2
 268 438 l 2
 287 355 304 292 377 224 c 1
56 1129 m 1
 153 1044 139 1019 416 1019 c 0
 527 1019 646 1023 693 1023 c 0
 792 1023 1224 1029 1323 1043 c 1
 1369 984 1404 924 1421 849 c 1
 1384 819 1369 781 1369 736 c 0
 1369 579 1551 346 1553 160 c 1
 1553 157 1553 155 1553 152 c 0
 1553 97 1533 35 1499 -35 c 9
 1470 -14 l 17
 1413 152 1358 362 1279 543 c 1
 1263 610 l 2
 1251 664 1241 712 1241 765 c 0
 1241 789 1243 815 1248 843 c 1
 1176 832 852 831 711 831 c 2
 89 831 l 9
 32 933 l 25
 0 961 l 17
 2 1039 25 1088 56 1129 c 1
EndSplineSet
Validated: 1
LCarets2: 1 137 
MultipleSubs2: "Add hairspace before low marked Qof" he.wide hairspace
EndChar

StartChar: kaf.wide
Encoding: 209 64292 116
Width: 1510
GlyphClass: 2
Flags: W
HStem: -21 219<185.076 741.749> 832 183<192.465 1044.17>
VStem: 1254 128<261.5 494.113>
AnchorPoint: "A-69" 766.525 0 basechar 0
AnchorPoint: "A-68" 766.525 0 basechar 0
AnchorPoint: "A-67" 766.525 0 basechar 0
AnchorPoint: "A-66" 766.525 0 basechar 0
AnchorPoint: "A-65" 766.525 0 basechar 0
AnchorPoint: "A-64" 766.525 0 basechar 0
AnchorPoint: "A-63" 766.525 0 basechar 0
AnchorPoint: "A-62" 766.525 0 basechar 0
AnchorPoint: "A-61" 766.525 0 basechar 0
AnchorPoint: "A-59" 120.525 0 basechar 0
AnchorPoint: "A-55" 1293.53 0 basechar 0
AnchorPoint: "A-42" 766.525 0 basechar 0
AnchorPoint: "A-39" 800.525 0 basechar 0
AnchorPoint: "A-36" 800.525 0 basechar 0
AnchorPoint: "A-21" -244.975 0 basechar 0
AnchorPoint: "A-16" 766.525 0 basechar 0
AnchorPoint: "A-15" 766.525 0 basechar 0
AnchorPoint: "A-14" 766.525 0 basechar 0
AnchorPoint: "A-13" 766.525 0 basechar 0
AnchorPoint: "A-12" 766.525 0 basechar 0
AnchorPoint: "A-11" 766.525 0 basechar 0
AnchorPoint: "A-10" 766.525 0 basechar 0
AnchorPoint: "A-9" 766.525 0 basechar 0
AnchorPoint: "A-8" 766.525 0 basechar 0
AnchorPoint: "A-58" 800.525 0 basechar 0
AnchorPoint: "A-41" 979.025 0 basechar 0
AnchorPoint: "A-40" 766.525 0 basechar 0
AnchorPoint: "A-32" 800.525 0 basechar 0
AnchorPoint: "A-31" 800.525 0 basechar 0
AnchorPoint: "A-30" 630.525 0 basechar 0
AnchorPoint: "A-29" 630.525 0 basechar 0
AnchorPoint: "A-28" 532.775 0 basechar 0
AnchorPoint: "A-27" 970.525 0 basechar 0
AnchorPoint: "A-26" 1293.53 0 basechar 0
AnchorPoint: "A-25" 171.525 0 basechar 0
AnchorPoint: "A-24" 800.525 0 basechar 0
AnchorPoint: "A-23" 800.525 0 basechar 0
AnchorPoint: "A-20" 103.525 0 basechar 0
AnchorPoint: "A-7" 766.525 0 basechar 0
AnchorPoint: "A-6" 766.525 0 basechar 0
AnchorPoint: "A-5" 766.525 0 basechar 0
AnchorPoint: "A-4" 766.525 0 basechar 0
AnchorPoint: "A-3" 783.525 0 basechar 0
AnchorPoint: "A-2" 800.525 0 basechar 0
AnchorPoint: "A-1" 800.525 0 basechar 0
AnchorPoint: "A-0" 800.525 0 basechar 0
LayerCount: 2
Fore
SplineSet
1164 918 m 1
 1256 709 1382 470 1382 287 c 0
 1382 236 1372 190 1350 150 c 1
 1191 48 507 -21 188 -21 c 1
 185 24 182 63 182 101 c 0
 182 133 184 165 191 198 c 1
 228 198 l 2
 455 198 1169 202 1246 321 c 0
 1252 330 1254 342 1254 355 c 0
 1254 427 1183 550 1166 585 c 1
 1106 687 1076 819 951 832 c 9
 66 832 l 25
 10 934 l 25
 -24 962 l 17
 -22 1040 2 1089 33 1130 c 1
 72 1096 97 1060 190 1032 c 1
 238 1024 582 1015 626 1015 c 0
 679 1015 940 1026 985 1026 c 0
 1059 1026 1120 1008 1164 918 c 1
EndSplineSet
Validated: 1
LCarets2: 1 121 
MultipleSubs2: "Add hairspace before low marked Qof" kaf.wide hairspace
EndChar

StartChar: lamed.wide
Encoding: 210 64293 117
Width: 1418
GlyphClass: 2
Flags: W
HStem: 812 216<13.8923 682.926> 832 210<326.074 980.113>
VStem: 912 102<203.207 373.389>
AnchorPoint: "A-69" 903.75 0 basechar 0
AnchorPoint: "A-68" 903.75 0 basechar 0
AnchorPoint: "A-67" 903.75 0 basechar 0
AnchorPoint: "A-66" 903.75 0 basechar 0
AnchorPoint: "A-65" 903.75 0 basechar 0
AnchorPoint: "A-64" 903.75 0 basechar 0
AnchorPoint: "A-63" 903.75 0 basechar 0
AnchorPoint: "A-62" 903.75 0 basechar 0
AnchorPoint: "A-61" 903.75 0 basechar 0
AnchorPoint: "A-59" 113.25 0 basechar 0
AnchorPoint: "A-55" 1260.75 0 basechar 0
AnchorPoint: "A-42" 988.75 0 basechar 0
AnchorPoint: "A-39" 776.25 0 basechar 0
AnchorPoint: "A-36" 776.25 0 basechar 0
AnchorPoint: "A-21" -252.25 0 basechar 0
AnchorPoint: "A-16" 988.75 0 basechar 0
AnchorPoint: "A-15" 988.75 0 basechar 0
AnchorPoint: "A-14" 988.75 0 basechar 0
AnchorPoint: "A-13" 861.25 0 basechar 0
AnchorPoint: "A-12" 861.25 0 basechar 0
AnchorPoint: "A-11" 861.25 0 basechar 0
AnchorPoint: "A-10" 988.75 0 basechar 0
AnchorPoint: "A-9" 988.75 0 basechar 0
AnchorPoint: "A-8" 988.75 0 basechar 0
AnchorPoint: "A-58" 750.75 0 basechar 0
AnchorPoint: "A-41" 852.75 0 basechar 0
AnchorPoint: "A-40" 988.75 0 basechar 0
AnchorPoint: "A-32" 835.75 0 basechar 0
AnchorPoint: "A-31" 776.25 0 basechar 0
AnchorPoint: "A-30" 334.25 0 basechar 0
AnchorPoint: "A-29" 308.75 0 basechar 0
AnchorPoint: "A-28" 270.5 0 basechar 0
AnchorPoint: "A-27" 946.25 0 basechar 0
AnchorPoint: "A-26" 1260.75 0 basechar 0
AnchorPoint: "A-25" -73.75 0 basechar 0
AnchorPoint: "A-24" 776.25 0 basechar 0
AnchorPoint: "A-23" 776.25 0 basechar 0
AnchorPoint: "A-20" -174.9 0 basechar 0
AnchorPoint: "A-7" 988.75 0 basechar 0
AnchorPoint: "A-6" 988.75 0 basechar 0
AnchorPoint: "A-5" 988.75 0 basechar 0
AnchorPoint: "A-4" 988.75 0 basechar 0
AnchorPoint: "A-3" 725.25 0 basechar 0
AnchorPoint: "A-2" 776.25 0 basechar 0
AnchorPoint: "A-1" 776.25 0 basechar 0
AnchorPoint: "A-0" 776.25 0 basechar 0
LayerCount: 2
Fore
SplineSet
916 273 m 1x60
 928 339 1010 422 1014 715 c 1
 1013 750 962 832 916 832 c 9x60
 93 812 l 17
 -7 812 -54 889 -77 988 c 0
 -93 1057 -107 1130 -114 1204 c 1
 -114 1209 -114 1215 -114 1220 c 0
 -114 1258 -108 1310 -108 1355 c 0
 -108 1408 -117 1451 -153 1451 c 0
 -165 1451 -178 1448 -194 1443 c 1
 -219 1443 -239 1461 -239 1482 c 0
 -239 1487 -238 1491 -236 1496 c 9
 -135 1648 l 17
 -131 1651 -125 1652 -120 1652 c 0
 -106 1652 -91 1644 -82 1632 c 1
 -21 1500 -47 1277 -19 1156 c 0
 -7 1103 24 1028 73 1028 c 0xa0
 175 1028 876 1042 984 1042 c 1
 1084 1021 1145 898 1163 820 c 1
 1154 658 1014 336 1014 256 c 0
 1014 252 1016 249 1017 246 c 0
 1023 222 1048 203 1076 196 c 1
 1083 166 1086 138 1086 112 c 0
 1086 62 1075 19 1063 -20 c 1
 1000 7 947 88 946 89 c 1
 936 112 912 150 912 220 c 0
 912 236 913 254 916 273 c 1x60
EndSplineSet
Validated: 1
LCarets2: 1 113 
MultipleSubs2: "Add hairspace before low marked Qof" lamed.wide hairspace
MultipleSubs2: "Add thispace after Lamed subtable" lamed.wide thinspace
EndChar

StartChar: finalmem.wide
Encoding: 211 64294 118
Width: 1648
GlyphClass: 2
Flags: W
HStem: -63 243<359.784 484.462> 831 203<213.367 1109.22>
VStem: 95 70<603.846 822.577>
AnchorPoint: "A-69" 880.3 0 basechar 0
AnchorPoint: "A-68" 880.3 0 basechar 0
AnchorPoint: "A-67" 880.3 0 basechar 0
AnchorPoint: "A-66" 880.3 0 basechar 0
AnchorPoint: "A-65" 880.3 0 basechar 0
AnchorPoint: "A-64" 880.3 0 basechar 0
AnchorPoint: "A-63" 880.3 0 basechar 0
AnchorPoint: "A-62" 880.3 0 basechar 0
AnchorPoint: "A-61" 880.3 0 basechar 0
AnchorPoint: "A-59" 132.3 0 basechar 0
AnchorPoint: "A-55" 1458.3 0 basechar 0
AnchorPoint: "A-42" 880.3 0 basechar 0
AnchorPoint: "A-39" 897.3 0 basechar 0
AnchorPoint: "A-36" 897.3 0 basechar 0
AnchorPoint: "A-21" -233.2 0 basechar 0
AnchorPoint: "A-16" 880.3 0 basechar 0
AnchorPoint: "A-15" 880.3 0 basechar 0
AnchorPoint: "A-14" 880.3 0 basechar 0
AnchorPoint: "A-13" 880.3 0 basechar 0
AnchorPoint: "A-12" 880.3 0 basechar 0
AnchorPoint: "A-11" 880.3 0 basechar 0
AnchorPoint: "A-10" 880.3 0 basechar 0
AnchorPoint: "A-9" 880.3 0 basechar 0
AnchorPoint: "A-8" 880.3 0 basechar 0
AnchorPoint: "A-58" 897.3 0 basechar 0
AnchorPoint: "A-41" 1101.3 0 basechar 0
AnchorPoint: "A-40" 880.3 0 basechar 0
AnchorPoint: "A-32" 897.3 0 basechar 0
AnchorPoint: "A-31" 897.3 0 basechar 0
AnchorPoint: "A-30" 642.3 0 basechar 0
AnchorPoint: "A-29" 642.3 0 basechar 0
AnchorPoint: "A-28" 544.55 0 basechar 0
AnchorPoint: "A-27" 1067.3 0 basechar 0
AnchorPoint: "A-26" 1458.3 0 basechar 0
AnchorPoint: "A-25" 166.3 0 basechar 0
AnchorPoint: "A-24" 897.3 0 basechar 0
AnchorPoint: "A-23" 897.3 0 basechar 0
AnchorPoint: "A-20" 98.2998 0 basechar 0
AnchorPoint: "A-7" 880.3 0 basechar 0
AnchorPoint: "A-6" 880.3 0 basechar 0
AnchorPoint: "A-5" 880.3 0 basechar 0
AnchorPoint: "A-4" 880.3 0 basechar 0
AnchorPoint: "A-3" 897.3 0 basechar 0
AnchorPoint: "A-2" 897.3 0 basechar 0
AnchorPoint: "A-1" 897.3 0 basechar 0
AnchorPoint: "A-0" 897.3 0 basechar 0
LayerCount: 2
Fore
SplineSet
1375 270 m 17
 1340 422 l 2
 1315 527 1288 610 1237 724 c 1
 1216 786 884 841 754 841 c 0
 666 841 233 830 165 819 c 1
 165 813 165 807 165 802 c 0
 165 579 344 253 344 253 c 0
 359 212 391 180 430 180 c 0
 441 180 452 182 463 187 c 0
 611 247 1375 270 1375 270 c 17
-37 1165 m 1
 82 1061 -14 1034 671 1034 c 0
 767 1034 1071 1010 1165 1010 c 0
 1267 1010 1276 949 1301 888 c 1
 1383 677 1424 538 1466 354 c 1
 1475 338 1484 322 1509 306 c 1
 1533 261 1537 229 1537 195 c 0
 1537 171 1535 147 1535 116 c 9
 393 -63 l 17
 335 -63 295 -40 261 109 c 1
 123 452 95 642 95 740 c 0
 95 807 108 831 108 831 c 2
 60 831 l 2
 42 831 -0 845 -3 845 c 9
 -60 969 l 25
 -94 997 l 17
 -92 1075 -68 1124 -37 1165 c 1
EndSplineSet
Validated: 1
LCarets2: 1 132 
MultipleSubs2: "Add hairspace before low marked Qof" finalmem.wide hairspace
EndChar

StartChar: resh.wide
Encoding: 212 64295 119
Width: 1493
GlyphClass: 2
Flags: W
HStem: 8 21G<1275 1338.5> 829 225<32.3093 1060.92>
VStem: 1282 85<21.0656 339.67>
AnchorPoint: "A-69" 1240.35 0 basechar 0
AnchorPoint: "A-68" 1155.35 0 basechar 0
AnchorPoint: "A-67" 1070.35 0 basechar 0
AnchorPoint: "A-66" 1240.35 0 basechar 0
AnchorPoint: "A-65" 1155.35 0 basechar 0
AnchorPoint: "A-64" 1070.35 0 basechar 0
AnchorPoint: "A-63" 1240.35 0 basechar 0
AnchorPoint: "A-62" 1155.35 0 basechar 0
AnchorPoint: "A-61" 1070.35 0 basechar 0
AnchorPoint: "A-59" 118.35 0 basechar 0
AnchorPoint: "A-55" 1316.85 0 basechar 0
AnchorPoint: "A-42" 1163.85 0 basechar 0
AnchorPoint: "A-39" 772.85 0 basechar 0
AnchorPoint: "A-36" 772.85 0 basechar 0
AnchorPoint: "A-21" -247.15 0 basechar 0
AnchorPoint: "A-19" 1078.85 0 basechar 0
AnchorPoint: "A-18" 1155.35 0 basechar 0
AnchorPoint: "A-17" 1206.35 0 basechar 0
AnchorPoint: "A-16" 1078.85 0 basechar 0
AnchorPoint: "A-15" 1155.35 0 basechar 0
AnchorPoint: "A-14" 1206.35 0 basechar 0
AnchorPoint: "A-13" 951.35 0 basechar 0
AnchorPoint: "A-12" 1027.85 0 basechar 0
AnchorPoint: "A-11" 1078.85 0 basechar 0
AnchorPoint: "A-10" 1078.85 0 basechar 0
AnchorPoint: "A-9" 1155.35 0 basechar 0
AnchorPoint: "A-8" 1206.35 0 basechar 0
AnchorPoint: "A-58" 772.85 0 basechar 0
AnchorPoint: "A-41" 1036.35 0 basechar 0
AnchorPoint: "A-40" 1248.85 0 basechar 0
AnchorPoint: "A-32" 772.85 0 basechar 0
AnchorPoint: "A-31" 772.85 0 basechar 0
AnchorPoint: "A-30" 517.85 0 basechar 0
AnchorPoint: "A-29" 602.85 0 basechar 0
AnchorPoint: "A-28" 530.6 0 basechar 0
AnchorPoint: "A-27" 942.85 0 basechar 0
AnchorPoint: "A-26" 1316.85 0 basechar 0
AnchorPoint: "A-25" 118.35 0 basechar 0
AnchorPoint: "A-24" 772.85 0 basechar 0
AnchorPoint: "A-23" 772.85 0 basechar 0
AnchorPoint: "A-20" 41.8496 0 basechar 0
AnchorPoint: "A-7" 1129.85 0 basechar 0
AnchorPoint: "A-6" 1180.85 0 basechar 0
AnchorPoint: "A-5" 1299.85 0 basechar 0
AnchorPoint: "A-4" 1333.85 0 basechar 0
AnchorPoint: "A-3" 750 0 basechar 0
AnchorPoint: "A-2" 772.85 0 basechar 0
AnchorPoint: "A-1" 772.85 0 basechar 0
AnchorPoint: "A-0" 772.85 0 basechar 0
LayerCount: 2
Fore
SplineSet
1275 24 m 17
 1280 44 1282 68 1282 94 c 0
 1282 229 1220 441 1110 692 c 0
 1087 744 1063 809 1010 829 c 9
 8 834 l 25
 -47 934 l 25
 -81 962 l 17
 -79 1040 -61 1107 -29 1148 c 1
 10 1114 48 1074 132 1059 c 1
 1013 1054 l 2
 1146 1054 1237 816 1293 573 c 2
 1338 376 l 2
 1354 306 1367 228 1367 160 c 0
 1367 94 1355 38 1322 8 c 9
 1275 24 l 17
EndSplineSet
Validated: 1
LCarets2: 1 118 
MultipleSubs2: "Add hairspace before low marked Qof" resh.wide hairspace
EndChar

StartChar: tav.wide
Encoding: 213 64296 120
Width: 1763
GlyphClass: 2
Flags: W
HStem: 831 225<332.059 1286.85>
VStem: 204 103<438.317 782.014> 1569 68<46 128.661>
AnchorPoint: "A-69" 1001.67 0 basechar 0
AnchorPoint: "A-68" 1001.67 0 basechar 0
AnchorPoint: "A-67" 1001.67 0 basechar 0
AnchorPoint: "A-66" 1001.67 0 basechar 0
AnchorPoint: "A-65" 1001.67 0 basechar 0
AnchorPoint: "A-64" 1001.67 0 basechar 0
AnchorPoint: "A-63" 1001.67 0 basechar 0
AnchorPoint: "A-62" 1001.67 0 basechar 0
AnchorPoint: "A-61" 1001.67 0 basechar 0
AnchorPoint: "A-59" 143.175 0 basechar 0
AnchorPoint: "A-55" 1596.67 0 basechar 0
AnchorPoint: "A-42" 1001.67 0 basechar 0
AnchorPoint: "A-39" 993.175 0 basechar 0
AnchorPoint: "A-36" 993.175 0 basechar 0
AnchorPoint: "A-21" -201.075 0 basechar 0
AnchorPoint: "A-16" 1001.67 0 basechar 0
AnchorPoint: "A-15" 1001.67 0 basechar 0
AnchorPoint: "A-14" 1001.67 0 basechar 0
AnchorPoint: "A-13" 1001.67 0 basechar 0
AnchorPoint: "A-12" 1001.67 0 basechar 0
AnchorPoint: "A-11" 1001.67 0 basechar 0
AnchorPoint: "A-10" 1001.67 0 basechar 0
AnchorPoint: "A-9" 1001.67 0 basechar 0
AnchorPoint: "A-8" 1001.67 0 basechar 0
AnchorPoint: "A-58" 993.175 0 basechar 0
AnchorPoint: "A-41" 1256.67 0 basechar 0
AnchorPoint: "A-40" 1001.67 0 basechar 0
AnchorPoint: "A-32" 993.175 0 basechar 0
AnchorPoint: "A-31" 993.175 0 basechar 0
AnchorPoint: "A-30" 738.175 0 basechar 0
AnchorPoint: "A-29" 823.175 0 basechar 0
AnchorPoint: "A-28" 555.425 0 basechar 0
AnchorPoint: "A-27" 1163.17 0 basechar 0
AnchorPoint: "A-26" 1596.67 0 basechar 0
AnchorPoint: "A-25" 245.175 0 basechar 0
AnchorPoint: "A-24" 993.175 0 basechar 0
AnchorPoint: "A-23" 993.175 0 basechar 0
AnchorPoint: "A-20" 177.175 0 basechar 0
AnchorPoint: "A-7" 1001.67 0 basechar 0
AnchorPoint: "A-6" 1001.67 0 basechar 0
AnchorPoint: "A-5" 1001.67 0 basechar 0
AnchorPoint: "A-4" 1001.67 0 basechar 0
AnchorPoint: "A-3" 990 0 basechar 0
AnchorPoint: "A-2" 993.175 0 basechar 0
AnchorPoint: "A-1" 993.175 0 basechar 0
AnchorPoint: "A-0" 993.175 0 basechar 0
LayerCount: 2
Fore
SplineSet
336 245 m 1
 243 392 204 508 204 607 c 0
 204 690 232 762 277 831 c 9
 71 867 l 17
 49 920 40 969 40 1010 c 0
 40 1066 56 1109 73 1130 c 1
 130 1060 174 1056 233 1056 c 10
 1227 1057 l 18
 1339 1057 1378 910 1420 816 c 9
 1640 244 l 17
 1650 203 1653 166 1653 131 c 0
 1653 81 1646 37 1637 -6 c 9
 1569 46 l 17
 1545 246 1435 467 1297 776 c 1
 1275 807 1245 831 1204 831 c 10
 387 831 l 18
 367 831 341 813 329 779 c 0
 314 733 307 688 307 642 c 0
 307 522 357 402 438 275 c 9
 486 275 l 25
 530 83 l 17
 438 26 345 -28 227 -59 c 1
 200 9 156 67 156 148 c 0
 156 149 156 151 156 153 c 1
 216 180 277 194 336 245 c 1
EndSplineSet
Validated: 1
LCarets2: 1 143 
MultipleSubs2: "Add hairspace before low marked Qof" tav.wide hairspace
EndChar

StartChar: hebrewplussign
Encoding: 214 64297 121
Width: 1016
VWidth: 2008
GlyphClass: 2
Flags: W
HStem: 335 124<-104 295 414 849>
LayerCount: 2
Fore
SplineSet
-104 335 m 1
 -133 459 l 1
 295 459 l 1
 192 905 l 1
 311 905 l 1
 414 459 l 1
 849 459 l 1
 878 335 l 1
 -104 335 l 1
EndSplineSet
Validated: 1
EndChar

StartChar: aleflamed
Encoding: 247 64335 154
Width: 1082
GlyphClass: 3
Flags: W
HStem: 1459 206<-287.972 -158.849>
AnchorPoint: "A-63" 900 0 basechar 0
AnchorPoint: "A-62" 1060 0 basechar 0
AnchorPoint: "A-61" 1120 0 basechar 0
AnchorPoint: "A-20" 180 0 basechar 0
AnchorPoint: "A-7" 662 0 basechar 0
AnchorPoint: "A-6" 760 0 basechar 0
AnchorPoint: "A-5" 710 0 basechar 0
AnchorPoint: "A-4" 660 0 basechar 0
LayerCount: 2
Fore
SplineSet
-205 1665 m 1
 -107 1587 -61 1532 -22 1423 c 1
 6 1301 24 1121 45 1031 c 1
 93 823 443 526 522 526 c 1
 539 596 560 691 560 757 c 0
 560 772 559 786 556 798 c 0
 546 841 524 876 488 900 c 1
 475 904 460 923 455 945 c 1
 453 947 453 949 452 952 c 0
 451 958 450 965 450 973 c 0
 450 1024 473 1116 506 1130 c 1
 601 1043 698 961 789 945 c 9
 760 769 l 25
 672 794 l 25
 587 473 l 25
 900 244 l 17
 926 198 944 155 953 117 c 0
 956 102 958 87 958 73 c 0
 958 35 944 4 912 -17 c 1
 588 371 313 385 58 738 c 1
 12 794 -40 917 -40 917 c 0
 -48 939 -56 964 -61 989 c 0
 -82 1080 -95 1258 -100 1276 c 0
 -126 1392 -135 1399 -197 1449 c 16
 -204 1455 -212 1459 -220 1459 c 1
 -224 1460 -227 1459 -231 1459 c 0
 -250 1459 -267 1447 -289 1428 c 1
 -302 1438 -318 1464 -322 1482 c 1
 -329 1511 -332 1535 -332 1556 c 0
 -332 1642 -279 1665 -205 1665 c 1
EndSplineSet
Validated: 1
Ligature2: "'ccmp' Alef Lamed Ligature subtable" alef cgj lamed
Ligature2: "'ccmp' Alef Lamed Ligature subtable" alef .null lamed
LCarets2: 2 0 0 
MultipleSubs2: "Add thispace after Lamed subtable" aleflamed thinspace
Ligature2: "'ccmp' Alef Lamed Ligature subtable" alef zerojoin lamed
EndChar

StartChar: hatafsegol_meteg
Encoding: 258 -1 164
Width: 0
GlyphClass: 4
Flags: W
HStem: -587 164<-110.253 -3.12414 354.47 461.876> -333 164<-286.876 -180.317 -51.0902 55.8759 296.317 402.876>
VStem: -306 145<-316.163 -186.269> -129 145<-570.919 -439.451> -70 145<-315.731 -185.081> 277 145<-315.731 -185.837> 336 145<-570.919 -439.314>
AnchorPoint: "A-48" 76.5 0 basemark 0
AnchorPoint: "A-47" 76.5 0 basemark 0
AnchorPoint: "A-46" 102 0 basemark 0
AnchorPoint: "A-45" -510 0 basemark 0
AnchorPoint: "A-44" -510 0 basemark 0
AnchorPoint: "A-43" -493 0 basemark 0
AnchorPoint: "A-7" 0 0 mark 0
LayerCount: 2
Fore
SplineSet
287 -575 m 1xe0
 215 -575 l 1
 125 -185 l 1
 197 -185 l 1
 287 -575 l 1xe0
428 -587 m 256
 386 -587 349 -551 339 -505 c 256
 337 -496 336 -488 336 -480 c 0
 336 -445 357 -423 390 -423 c 256
 431 -423 467 -459 478 -505 c 256
 480 -514 481 -522 481 -529 c 0xe2
 481 -564 460 -587 428 -587 c 256
369 -333 m 256
 327 -333 291 -297 280 -251 c 256
 278 -242 277 -234 277 -227 c 0
 277 -192 298 -169 331 -169 c 256
 372 -169 408 -205 419 -251 c 256
 421 -260 422 -268 422 -275 c 0xe4
 422 -310 401 -333 369 -333 c 256
-16 -169 m 256
 25 -169 61 -205 72 -251 c 256
 74 -260 75 -268 75 -275 c 0
 75 -310 54 -333 22 -333 c 256
 -20 -333 -56 -297 -67 -251 c 256
 -69 -243 -70 -235 -70 -228 c 0xe8
 -70 -192 -48 -169 -16 -169 c 256
-75 -423 m 256
 -34 -423 2 -459 13 -505 c 256
 15 -514 16 -522 16 -529 c 0
 16 -564 -5 -587 -37 -587 c 256
 -79 -587 -116 -551 -126 -505 c 256
 -128 -496 -129 -488 -129 -481 c 0xf0
 -129 -445 -107 -423 -75 -423 c 256
-253 -169 m 256
 -211 -169 -175 -205 -164 -251 c 256
 -162 -260 -161 -268 -161 -275 c 0
 -161 -310 -182 -333 -215 -333 c 256
 -256 -333 -292 -297 -303 -251 c 256
 -305 -242 -306 -234 -306 -227 c 0
 -306 -192 -285 -169 -253 -169 c 256
EndSplineSet
Validated: 1
Ligature2: "'ccmp' Hataf CGJ Meteg substitutions subtable" hatafsegol cgj meteg
Ligature2: "'ccmp' Hataf CGJ Meteg substitutions subtable" hatafsegol zerojoin meteg
Ligature2: "'ccmp' Hataf CGJ Meteg substitutions subtable" hatafsegol .null meteg
LCarets2: 2 0 0 
MultipleSubs2: "Add hairspace after last low mark subtable" hatafsegol_meteg hairspace
MultipleSubs2: "Add thinspace before narrow letter subtable" hatafsegol_meteg thinspace
MultipleSubs2: "Add hairspace before low marked Qof" hatafsegol_meteg hairspace
EndChar

StartChar: hatafpatah_meteg
Encoding: 259 -1 165
Width: 0
GlyphClass: 4
Flags: W
HStem: -587 164<321.747 430.09> -333 164<262.91 371.09> -286 94<-256 21>
VStem: 244 146<-315.731 -186.269> 303 146<-570.919 -440.269>
AnchorPoint: "A-48" 43.0254 0 basemark 0
AnchorPoint: "A-47" 43.0254 0 basemark 0
AnchorPoint: "A-46" 68.5254 0 basemark 0
AnchorPoint: "A-45" -492.475 0 basemark 0
AnchorPoint: "A-44" -492.475 0 basemark 0
AnchorPoint: "A-43" -492.475 0 basemark 0
AnchorPoint: "A-7" 0.525391 0 mark 0
LayerCount: 2
Fore
SplineSet
43 -286 m 1xa0
 -256 -286 l 1
 -278 -192 l 1
 21 -192 l 1
 43 -286 l 1xa0
254 -575 m 1
 182 -575 l 1
 92 -185 l 1
 164 -185 l 1
 254 -575 l 1
395 -587 m 256
 353 -587 316 -551 306 -505 c 256
 304 -496 303 -488 303 -481 c 0
 303 -445 325 -423 357 -423 c 256
 399 -423 435 -459 446 -505 c 256
 448 -513 449 -521 449 -528 c 0x88
 449 -564 427 -587 395 -587 c 256
336 -333 m 256xd0
 294 -333 258 -297 247 -251 c 256
 245 -243 244 -235 244 -228 c 0
 244 -192 266 -169 298 -169 c 256
 340 -169 376 -205 387 -251 c 256
 389 -259 390 -267 390 -274 c 0
 390 -310 368 -333 336 -333 c 256xd0
EndSplineSet
Validated: 1
Ligature2: "'ccmp' Hataf CGJ Meteg substitutions subtable" hatafpatah cgj meteg
Ligature2: "'ccmp' Hataf CGJ Meteg substitutions subtable" hatafpatah .null meteg
Ligature2: "'ccmp' Hataf CGJ Meteg substitutions subtable" hatafpatah zerojoin meteg
LCarets2: 2 1 0 
MultipleSubs2: "Add hairspace after last low mark subtable" hatafpatah_meteg hairspace
MultipleSubs2: "Add thinspace before narrow letter subtable" hatafpatah_meteg thinspace
MultipleSubs2: "Add hairspace before low marked Qof" hatafpatah_meteg hairspace
EndChar

StartChar: hatafqamats_meteg
Encoding: 260 -1 166
Width: 0
GlyphClass: 4
Flags: W
HStem: -587 164<321.747 428.876> -333 164<262.91 369.876> -284 94<-258 -124.002 -89 16>
VStem: -130 138<-562.094 -472.96> -124 43<-384.608 -284> 244 145<-315.731 -185.081> 303 145<-570.919 -439.451>
AnchorPoint: "A-48" 42.7998 0 basemark 0
AnchorPoint: "A-47" 42.7998 0 basemark 0
AnchorPoint: "A-46" 68.2998 0 basemark 0
AnchorPoint: "A-45" -492.7 0 basemark 0
AnchorPoint: "A-44" -492.7 0 basemark 0
AnchorPoint: "A-43" -492.7 0 basemark 0
AnchorPoint: "A-7" 0.299805 0 mark 0
LayerCount: 2
Fore
SplineSet
-130 -284 m 1xb0
 -258 -284 l 1
 -280 -190 l 1
 16 -190 l 1
 38 -284 l 1
 -89 -284 l 1
 -82 -318 l 1
 -81 -319 -81 -320 -81 -321 c 0xa8
 -74 -353 -63 -382 -48 -406 c 9
 8 -496 l 17
 3 -526 -3 -555 -22 -581 c 1
 -36 -584 -50 -584 -64 -580 c 1
 -95 -558 -114 -528 -130 -496 c 9xb0
 -116 -406 l 17
 -115 -403 -115 -399 -115 -394 c 0
 -115 -371 -122 -333 -124 -322 c 0
 -124 -319 l 9xa8
 -124 -319 -127 -297 -130 -284 c 1xb0
253 -576 m 1
 181 -576 l 1
 91 -186 l 1
 163 -186 l 1
 253 -576 l 1
395 -587 m 256
 353 -587 316 -551 306 -505 c 256
 304 -496 303 -488 303 -481 c 0
 303 -445 325 -423 357 -423 c 256
 398 -423 434 -459 445 -505 c 256
 447 -514 448 -522 448 -529 c 0x82
 448 -564 427 -587 395 -587 c 256
336 -333 m 256xc4
 294 -333 258 -297 247 -251 c 256
 245 -243 244 -235 244 -228 c 0
 244 -192 266 -169 298 -169 c 256
 339 -169 375 -205 386 -251 c 256
 388 -260 389 -268 389 -275 c 0
 389 -310 368 -333 336 -333 c 256xc4
EndSplineSet
Validated: 1
Ligature2: "'ccmp' Hataf CGJ Meteg substitutions subtable" hatafqamats cgj meteg
Ligature2: "'ccmp' Hataf CGJ Meteg substitutions subtable" hatafqamats .null meteg
Ligature2: "'ccmp' Hataf CGJ Meteg substitutions subtable" hatafqamats zerojoin meteg
LCarets2: 2 0 0 
MultipleSubs2: "Add hairspace after last low mark subtable" hatafqamats_meteg hairspace
MultipleSubs2: "Add thinspace before narrow letter subtable" hatafqamats_meteg thinspace
MultipleSubs2: "Add hairspace before low marked Qof" hatafqamats_meteg hairspace
EndChar

StartChar: exclam
Encoding: 2 33 167
Width: 473
Flags: W
VStem: -206 569
LayerCount: 2
Fore
SplineSet
-206 1210 m 25
 17 1396 l 25
 184 534 l 25
 51 434 l 25
 -206 1210 l 25
203 271 m 17
 241 205 299 152 363 103 c 9
 231 0 l 17
 227 -2 221 -3 215 -3 c 0
 187 -3 149 14 118 52 c 1
 99 76 83 97 78 118 c 0
 77 122 76 126 76 130 c 0
 76 146 84 163 102 182 c 9
 203 271 l 17
EndSplineSet
Validated: 1
EndChar

StartChar: quotedbl
Encoding: 3 34 168
Width: 721
Flags: W
HStem: 982 447
VStem: -224 168<1327.87 1408.88> -147 103<995 1061.13> 103 168<1327.87 1408.88> 180 103<995 1061.13>
LayerCount: 2
Fore
SplineSet
271 1429 m 1x90
 283 995 l 1
 180 982 l 1x88
 103 1407 l 1
 271 1429 l 1x90
-56 1429 m 1xc0
 -44 995 l 1
 -147 982 l 1xa0
 -224 1407 l 1
 -56 1429 l 1xc0
EndSplineSet
Validated: 1
EndChar

StartChar: numbersign
Encoding: 4 35 169
Width: 1135
Flags: W
HStem: 0 21G<143.653 287 460.653 605> 403 144<-93 137 280 450 598 823> 889 143<-100 127 273 443 588 815>
VStem: 127 144<1032 1435> 137 143<0 403 547 889> 436 143<1032 1435> 450 144<170.872 403 547 889 1032 1309.69> 461 144<0 403>
LayerCount: 2
Fore
SplineSet
815 1032 m 1xf4
 818 889 l 1
 588 889 l 1
 594 547 l 1xe2
 823 547 l 1
 827 403 l 1
 598 403 l 1
 605 0 l 1
 461 0 l 1
 454 403 l 1
 280 403 l 1
 287 0 l 1
 144 0 l 1
 137 403 l 1
 -93 403 l 1
 -95 547 l 1
 137 547 l 1xe9
 130 889 l 1
 -100 889 l 1
 -104 1032 l 1
 127 1032 l 1
 118 1435 l 1
 262 1435 l 1
 271 1032 l 1
 443 1032 l 1
 436 1435 l 1
 579 1435 l 1
 586 1032 l 1
 815 1032 l 1xf4
445 889 m 1
 273 889 l 1
 280 547 l 1xea
 450 547 l 1
 445 889 l 1
EndSplineSet
Validated: 1
EndChar

StartChar: dollar
Encoding: 5 36 170
Width: 1156
Flags: W
VStem: -155 193<934 1190> 720 207<332.087 460.804>
LayerCount: 2
Fore
SplineSet
445 607 m 9
 570 114 l 17
 666 128 720 194 720 296 c 0
 720 322 717 350 710 380 c 9
 682 501 574 602 445 607 c 9
200 1357 m 17
 189 1357 178 1358 170 1358 c 0
 165 1358 161 1358 157 1357 c 1
 95 1351 38 1284 38 1190 c 0
 38 1172 40 1153 45 1133 c 0
 48 1123 51 1113 54 1103 c 1
 89 969 246 915 319 898 c 9
 200 1357 l 17
-145 934 m 1
 -152 964 -155 993 -155 1020 c 0
 -155 1227 33 1344 183 1428 c 9
 150 1574 l 25
 216 1626 l 25
 254 1450 l 17
 296 1458 335 1462 371 1462 c 0
 536 1462 638 1384 676 1322 c 1
 646 1291 605 1267 552 1252 c 9
 552 1252 533 1220 487 1194 c 1
 423 1260 364 1338 280 1356 c 9
 399 858 l 17
 547 814 645 778 780 722 c 1
 841 678 901 633 920 548 c 0
 921 544 922 540 923 536 c 1
 926 521 927 506 927 490 c 0
 927 316 745 118 603 26 c 9
 645 -158 l 25
 570 -214 l 25
 531 -8 l 17
 496 -19 457 -25 414 -25 c 0
 240 -25 23 63 -9 180 c 1
 -15 207 -10 213 -5 218 c 9
 194 358 l 17
 290 185 394 154 498 126 c 9
 375 650 l 17
 239 699 122 711 -34 792 c 1
 -106 840 -126 864 -145 934 c 1
EndSplineSet
Validated: 1
EndChar

StartChar: percent
Encoding: 6 37 171
Width: 1886
Flags: W
HStem: 0 21G<384.052 475> 20 78<1202.61 1462.09> 520 78<115.531 375.092> 813 103<1082.09 1284.89> 1313 103<-5.09429 197.278>
VStem: -200 107<964.16 1025.22> 479 96<722.63 974.315> 887 107<464.16 524.873> 1566 96<222.63 480.971>
LayerCount: 2
Fore
SplineSet
1003 790 m 9x7f80
 984 810 l 17
 1080 870 1130 916 1250 916 c 27
 1434 916 1604 750 1646 566 c 16
 1657 519 1662 472 1662 427 c 0
 1662 203 1531 20 1296 20 c 11
 1111 20 940 187 897 372 c 17
 896 375 896 378 895 381 c 0
 890 404 887 426 887 445 c 0
 887 545 949 605 994 678 c 1
 995 636 1001 594 1011 552 c 0
 1066 314 1249 98 1426 98 c 1
 1522 98 1566 178 1566 271 c 0
 1566 296 1563 321 1557 346 c 1
 1556 352 1554 359 1553 365 c 0
 1550 377 1547 389 1545 400 c 0
 1485 660 1299 813 1119 813 c 0
 1079 813 1040 805 1003 790 c 9x7f80
-85 1290 m 9
 -103 1310 l 17
 -7 1370 42 1416 162 1416 c 27
 346 1416 516 1250 559 1066 c 16
 570 1019 575 972 575 927 c 0
 575 703 444 520 209 520 c 11
 24 520 -148 687 -190 872 c 17
 -191 875 -192 878 -192 881 c 0
 -198 904 -200 926 -200 946 c 0
 -200 1045 -139 1105 -93 1178 c 1
 -92 1136 -87 1094 -77 1052 c 0
 -22 814 162 598 339 598 c 1
 435 598 479 678 479 771 c 0
 479 796 476 821 470 846 c 1
 468 852 467 859 465 865 c 0
 463 877 460 889 457 900 c 0
 397 1160 212 1313 32 1313 c 0
 -8 1313 -47 1305 -85 1290 c 9
996 1372 m 25
 1085 1394 l 25
 475 16 l 25
 375 0 l 25xbf80
 996 1372 l 25
EndSplineSet
Validated: 1
EndChar

StartChar: ampersand
Encoding: 7 38 172
Width: 1598
Flags: W
HStem: 0 170<415.977 697.375> 668 143<213.703 751 983 1179> 1236 101<170.604 390.74>
VStem: -152 169<951.638 1085> -29 181<315 512> 855 158<288 581>
LayerCount: 2
Fore
SplineSet
501 668 m 2xec
 267 668 152 635 152 512 c 0
 152 493 155 472 160 449 c 0
 201 272 464 170 617 170 c 2
 689 170 l 2
 787 182 855 208 855 288 c 0
 855 301 854 315 850 330 c 2
 772 668 l 1
 501 668 l 2xec
197 1236 m 0
 132 1236 17 1201 17 1085 c 0xf4
 17 1071 19 1054 23 1037 c 0
 32 997 75 876 220 837 c 0
 308 813 352 811 501 811 c 2
 751 811 l 1
 733 888 l 1
 915 1012 l 1
 959 822 l 1
 1314 822 l 1
 1179 668 l 1
 983 662 l 1
 1002 581 l 2
 1009 549 1013 520 1013 493 c 0
 1013 397 966 317 852 189 c 0
 733 54 664 0 536 0 c 0
 401 0 28 91 -24 315 c 0
 -27 329 -29 343 -29 357 c 0xec
 -29 442 34 520 125 599 c 2
 185 650 l 1
 91 693 l 2
 27 725 -118 793 -148 924 c 0
 -151 937 -152 949 -152 961 c 0xf4
 -152 1074 -35 1174 69 1243 c 2
 180 1298 l 2
 252 1324 306 1337 373 1337 c 0
 388 1337 405 1336 421 1335 c 0
 607 1330 652 1239 653 1236 c 1
 488 1115 l 1
 403 1202 319 1236 197 1236 c 0
EndSplineSet
Validated: 1
EndChar

StartChar: quotesingle
Encoding: 8 39 173
Width: 394
Flags: W
HStem: 982 447
VStem: -224 168<1327.87 1408.88> -147 103<995 1061.13>
LayerCount: 2
Fore
SplineSet
-56 1429 m 1xc0
 -44 995 l 1
 -147 982 l 1xa0
 -224 1407 l 1
 -56 1429 l 1xc0
EndSplineSet
Validated: 1
EndChar

StartChar: parenleft
Encoding: 9 40 174
Width: 609
Flags: W
VStem: -130 150<755.952 1409>
LayerCount: 2
Fore
SplineSet
75 1530 m 17
 36 1386 20 1249 20 1120 c 0
 20 997 35 882 59 775 c 0
 153 370 387 83 484 -40 c 9
 342 -190 l 17
 108 84 -23 369 -85 635 c 0
 -117 772 -130 905 -130 1028 c 0
 -130 1185 -108 1328 -76 1448 c 9
 75 1530 l 17
EndSplineSet
Validated: 1
EndChar

StartChar: parenright
Encoding: 10 41 175
Width: 506
Flags: W
VStem: 126 149<-50.0264 605.709>
LayerCount: 2
Fore
SplineSet
71 -168 m 17
 110 -24 126 112 126 241 c 0
 126 364 111 480 86 587 c 0
 -7 992 -241 1279 -339 1402 c 9
 -196 1552 l 17
 38 1278 169 993 230 727 c 0
 262 589 275 456 275 332 c 0
 275 176 254 34 222 -86 c 9
 71 -168 l 17
EndSplineSet
Validated: 1
EndChar

StartChar: asterisk
Encoding: 11 42 176
Width: 656
Flags: W
HStem: 513 165<-118 -62.9045> 802 20G<23.3548 122.5>
VStem: -137 548
LayerCount: 2
Fore
SplineSet
109 574 m 1
 47 636 -5 705 -32 791 c 9
 124 822 l 17
 121 800 119 778 119 756 c 0
 119 720 123 685 131 648 c 0
 136 626 143 602 152 579 c 1
 181 644 226 700 298 733 c 9
 411 587 l 17
 400 588 390 588 379 588 c 0
 307 588 241 573 184 539 c 1
 263 518 340 483 412 418 c 9
 326 297 l 17
 287 378 231 450 157 510 c 1
 158 505 159 501 160 496 c 0
 168 462 173 427 173 393 c 0
 173 355 167 318 154 282 c 9
 -13 353 l 17
 47 399 90 457 111 533 c 1
 66 516 18 504 -36 504 c 0
 -62 504 -89 507 -118 513 c 9
 -137 678 l 17
 -59 625 22 588 109 574 c 1
EndSplineSet
Validated: 1
EndChar

StartChar: plus
Encoding: 12 43 177
Width: 873
Flags: W
HStem: 522 117<-147 162 307 616>
LayerCount: 2
Fore
SplineSet
643 522 m 1
 307 522 l 1
 385 186 l 1
 267 186 l 1
 189 522 l 1
 -147 522 l 1
 -174 639 l 1
 162 639 l 1
 85 975 l 1
 203 975 l 1
 280 639 l 1
 616 639 l 1
 643 522 l 1
EndSplineSet
Validated: 1
EndChar

StartChar: comma
Encoding: 13 44 178
Width: 374
Flags: W
HStem: -118 409
VStem: 77 145<12.1031 101.289>
LayerCount: 2
Fore
SplineSet
50 -118 m 25
 20 -86 l 17
 44 -71 77 -41 77 4 c 0
 77 11 78 18 77 26 c 0
 67 69 25 123 -69 188 c 1
 -33 229 8 265 58 291 c 1
 130 253 200 206 220 120 c 1
 221 115 222 110 222 104 c 0
 222 68 196 32 176 10 c 9
 50 -118 l 25
EndSplineSet
Validated: 1
EndChar

StartChar: hyphen
Encoding: 14 45 179
Width: 904
Flags: W
HStem: 522 117<-64 699>
LayerCount: 2
Fore
SplineSet
-64 522 m 1
 -91 639 l 1
 699 639 l 1
 726 522 l 1
 -64 522 l 1
EndSplineSet
Validated: 1
EndChar

StartChar: period
Encoding: 15 46 180
Width: 351
Flags: W
HStem: 4 271
VStem: -69 284
LayerCount: 2
Fore
SplineSet
56 275 m 17
 94 209 152 156 215 107 c 9
 84 4 l 17
 80 2 74 0 68 0 c 0
 40 0 2 18 -29 56 c 1
 -48 80 -64 101 -69 122 c 0
 -70 126 -69 129 -69 133 c 0
 -69 149 -61 166 -43 186 c 9
 56 275 l 17
EndSplineSet
Validated: 1
EndChar

StartChar: slash
Encoding: 16 47 181
Width: 1276
Flags: W
LayerCount: 2
Fore
SplineSet
639 1452 m 25
 807 1452 l 25
 104 -24 l 25
 -61 -24 l 25
 639 1452 l 25
EndSplineSet
Validated: 1
EndChar

StartChar: zero
Encoding: 17 48 182
Width: 1234
VWidth: 2368
Flags: W
HStem: 0 227<475.391 596.635> 1181 173<241.484 516.5>
VStem: -37 192<601 873.5> 783 173<506.672 627.843>
LayerCount: 2
Fore
SplineSet
138 1120 m 9
 104 1154 l 17
 170 1268 250 1352 401 1354 c 1
 632 1343 878 1037 951 768 c 1
 954 753 956 735 956 717 c 0
 956 480 701 12 482 0 c 1
 305 0 76 245 -18 487 c 1
 -20 495 -22 503 -24 510 c 0
 -33 548 -37 584 -37 618 c 0
 -37 817 101 938 179 1005 c 1
 164 940 155 896 155 851 c 0
 155 814 161 776 172 726 c 1
 173 722 174 717 176 712 c 0
 232 469 424 227 619 227 c 0
 623 227 628 227 633 227 c 1
 731 230 788 330 788 440 c 0
 788 458 786 477 783 496 c 1
 783 499 l 0
 725 751 448 1181 249 1181 c 0
 208 1181 170 1162 138 1120 c 9
EndSplineSet
Validated: 1
EndChar

StartChar: one
Encoding: 18 49 183
Width: 677
VWidth: 2366
Flags: W
HStem: 1103 250<-104.5 180.5>
VStem: -183 663
LayerCount: 2
Fore
SplineSet
147 1353 m 1
 214 1353 223 1267 243 1194 c 9
 480 198 l 25
 258 28 l 25
 94 738 l 17
 63 860 -15 1103 -97 1103 c 0
 -112 1103 -127 1094 -143 1074 c 9
 -183 1095 l 17
 -143 1153 63 1351 147 1353 c 1
EndSplineSet
Validated: 1
EndChar

StartChar: two
Encoding: 19 50 184
Width: 932
VWidth: 2365
Flags: W
HStem: 24 258<303.624 662.946> 61 209<267.096 649.468> 1178 192<1.53372 158.275>
VStem: 363 185<674.156 926.263>
LayerCount: 2
Fore
SplineSet
-179 1156 m 17x70
 -153 1224 5 1365 145 1370 c 1
 372 1363 500 1164 536 1011 c 0
 536 1009 537 1006 537 1004 c 1
 545 970 548 939 548 910 c 0
 548 810 538 736 492 648 c 1
 418 496 266 270 266 270 c 25x70
 798 282 l 25
 655 24 l 17xb0
 537 45 418 61 298 61 c 0
 225 61 150 55 77 40 c 9
 9 96 l 17
 94 251 363 439 363 727 c 0
 363 751 362 774 358 799 c 1
 356 807 354 815 352 825 c 0
 323 949 242 1096 157 1137 c 1
 114 1166 68 1178 26 1178 c 0
 -37 1178 -93 1155 -128 1126 c 9
 -179 1156 l 17x70
EndSplineSet
Validated: 1
EndChar

StartChar: three
Encoding: 20 51 185
Width: 887
VWidth: 2373
Flags: W
HStem: 1183 178<-50.5 203.5>
VStem: 461 223<250.915 440.048>
LayerCount: 2
Fore
SplineSet
-149 1138 m 9
 -168 1160 l 17
 -122 1192 -1 1361 138 1361 c 3
 269 1361 414 1269 444 1138 c 17
 448 1120 450 1104 450 1088 c 0
 450 973 344 920 273 834 c 1
 478 783 632 671 675 487 c 17
 681 459 684 432 684 407 c 0
 684 154 387 37 246 -71 c 9
 232 -54 l 17
 339 25 461 141 461 276 c 0
 461 290 460 305 457 320 c 1
 455 329 453 337 451 345 c 0
 393 597 213 652 10 662 c 1
 64 713 232 742 232 928 c 0
 232 938 233 949 232 960 c 1
 231 964 229 968 228 972 c 0
 202 1083 85 1183 -29 1183 c 0
 -72 1183 -112 1169 -149 1138 c 9
EndSplineSet
Validated: 1
EndChar

StartChar: four
Encoding: 21 52 186
Width: 1146
VWidth: 2365
Flags: W
HStem: 10 21G<600.357 628.766> 402 208<212.152 484>
VStem: -54 207<506 809>
LayerCount: 2
Fore
SplineSet
333 1390 m 9
 356 1370 l 17
 282 1204 153 989 153 809 c 0
 153 785 156 761 161 738 c 1
 190 610 322 610 484 610 c 9
 407 945 l 25
 589 1099 l 25
 699 622 l 25
 950 657 l 25
 845 442 l 25
 729 422 l 25
 788 164 l 25
 605 10 l 25
 514 402 l 25
 172 402 l 17
 70 402 -27 415 -48 506 c 1
 -52 523 -54 541 -54 561 c 0
 -54 820 262 1290 333 1390 c 9
EndSplineSet
Validated: 1
EndChar

StartChar: five
Encoding: 22 53 187
Width: 873
VWidth: 2374
Flags: W
HStem: 1073 249<78.2042 454.75>
VStem: 379 192<246.989 440.447>
LayerCount: 2
Fore
SplineSet
86 1356 m 17
 181 1333 271 1322 359 1322 c 0
 429 1322 497 1329 564 1342 c 9
 574 1300 l 17
 520 1164 462 1073 303 1073 c 0
 237 1073 154 1088 46 1123 c 9
 49 981 l 17
 207 951 507 737 561 502 c 1
 568 472 571 444 571 416 c 0
 571 188 352 34 185 -80 c 9
 151 -43 l 17
 206 14 379 154 379 289 c 0
 379 300 378 312 375 323 c 1
 305 626 88 687 -121 790 c 9
 86 1356 l 17
EndSplineSet
Validated: 1
EndChar

StartChar: six
Encoding: 23 54 188
Width: 1039
VWidth: 2367
Flags: W
HStem: 7 162<373.5 630.5>
VStem: -32 177<592.823 843.98> 697 162<269 538>
LayerCount: 2
Fore
SplineSet
359 1358 m 9
 376 1341 l 17
 291 1209 145 1062 145 824 c 0
 145 778 151 728 163 675 c 1
 204 500 408 169 601 169 c 3
 660 169 697 211 697 269 c 0
 697 279 695 290 693 301 c 1
 649 491 468 684 340 721 c 1
 390 788 439 861 547 861 c 3
 685 861 833 621 852 538 c 1
 857 516 859 495 859 473 c 0
 859 237 586 7 460 7 c 1
 287 7 43 207 -16 462 c 1
 -27 509 -32 555 -32 601 c 0
 -32 985 313 1307 359 1358 c 9
EndSplineSet
Validated: 1
EndChar

StartChar: seven
Encoding: 24 55 189
Width: 861
VWidth: 2365
Flags: W
HStem: 1032 252<40.4162 391.999>
LayerCount: 2
Fore
SplineSet
-15 1361 m 17
 64 1301 170 1284 274 1284 c 0
 377 1284 478 1301 547 1310 c 9
 582 1281 l 17
 508 1070 383 741 383 417 c 0
 383 336 391 256 409 178 c 9
 193 32 l 25
 394 1032 l 17
 363 1032 311 1032 251 1032 c 0
 98 1032 -113 1044 -207 1131 c 9
 -15 1361 l 17
EndSplineSet
Validated: 1
EndChar

StartChar: eight
Encoding: 25 56 190
Width: 1047
VWidth: 2368
Flags: W
HStem: 4 153<260 498.5> 1186 171<262.5 496.5>
VStem: -103 187<938 1128> 18 198<214 462> 431 192<932 1174> 623 192<313 535>
LayerCount: 2
Fore
SplineSet
288 649 m 1xdc
 253 599 216 539 216 462 c 0
 216 444 218 425 223 405 c 8
 251 285 340 157 460 157 c 3
 537 157 623 229 623 313 c 0
 623 322 622 332 620 341 c 0
 584 498 409 625 288 649 c 1xdc
217 1172 m 1
 242 1279 368 1357 452 1357 c 1
 541 1357 601 1283 619 1203 c 1
 622 1192 623 1180 623 1168 c 0
 623 1016 427 814 427 814 c 1
 557 763 773 706 812 535 c 1
 814 526 815 517 815 508 c 0
 815 325 455 4 330 4 c 1
 190 4 55 89 27 214 c 1
 20 242 18 268 18 292 c 0xdc
 18 471 180 547 251 671 c 1
 165 708 -63 780 -100 938 c 1
 -102 948 -103 958 -103 968 c 0
 -103 1104 86 1273 138 1295 c 9
 153 1269 l 17
 104 1224 84 1176 84 1128 c 0xec
 84 1115 86 1101 89 1087 c 0
 118 963 273 851 403 836 c 1
 422 871 431 911 431 953 c 0
 431 976 428 999 423 1021 c 0
 403 1110 344 1186 271 1186 c 0
 254 1186 235 1181 217 1172 c 1
EndSplineSet
Validated: 1
EndChar

StartChar: nine
Encoding: 26 57 191
Width: 1093
VWidth: 2366
Flags: W
HStem: 12 21G<375.39 430.5> 518 144<128.5 383> 1210 158<115.5 387.5>
VStem: -111 169<897.5 1124.5> 606 182<519.599 761.73>
LayerCount: 2
Fore
SplineSet
439 688 m 1
 403 638 330 518 204 518 c 17
 53 518 -75 721 -105 851 c 1
 -109 869 -111 888 -111 907 c 0
 -111 1121 143 1368 284 1368 c 3
 491 1368 722 1106 774 881 c 1
 784 838 788 795 788 753 c 0
 788 395 470 72 391 12 c 9
 359 53 l 17
 449 159 606 355 606 562 c 0
 606 591 603 621 596 650 c 0
 538 902 341 1210 148 1210 c 3
 83 1210 58 1156 58 1093 c 0
 58 1073 60 1052 65 1032 c 0
 92 912 236 662 371 662 c 0
 395 662 417 670 439 688 c 1
EndSplineSet
Validated: 1
EndChar

StartChar: colon
Encoding: 27 58 192
Width: 437
Flags: W
HStem: 0 21G<140 157>
VStem: -139 440
LayerCount: 2
Fore
SplineSet
142 275 m 17
 180 209 238 156 301 107 c 9
 170 4 l 17
 166 2 160 0 154 0 c 0
 126 0 88 18 57 56 c 1
 38 80 22 101 17 122 c 0
 16 126 15 130 15 134 c 0
 15 150 23 167 41 186 c 9
 142 275 l 17
-14 948 m 17
 24 882 83 829 146 780 c 9
 15 677 l 17
 10 675 6 673 0 673 c 0
 -28 673 -68 691 -98 729 c 1
 -118 753 -134 774 -139 795 c 0
 -140 799 -139 803 -139 806 c 0
 -139 823 -133 840 -114 859 c 9
 -14 948 l 17
EndSplineSet
Validated: 1
EndChar

StartChar: semicolon
Encoding: 28 59 193
Width: 475
Flags: W
VStem: 179 146<-4 114>
LayerCount: 2
Fore
SplineSet
-20 949 m 17
 18 883 76 830 140 781 c 9
 8 678 l 17
 4 676 -2 674 -8 674 c 0
 -36 674 -74 692 -105 730 c 1
 -124 754 -140 775 -145 796 c 0
 -146 800 -146 804 -146 807 c 0
 -146 824 -139 841 -121 860 c 9
 -20 949 l 17
154 -124 m 25
 122 -92 l 17
 147 -78 179 -49 179 -4 c 0
 179 4 178 12 176 20 c 0
 167 62 128 116 33 182 c 1
 70 222 111 258 161 284 c 1
 232 246 303 200 323 114 c 1
 324 109 325 103 325 98 c 0
 325 61 300 25 278 4 c 9
 154 -124 l 25
EndSplineSet
Validated: 1
EndChar

StartChar: less
Encoding: 29 60 194
Width: 1079
Flags: W
LayerCount: 2
Fore
SplineSet
940 22 m 1
 -146 452 l 1
 -177 584 l 1
 711 1015 l 1
 743 874 l 1
 4 518 l 1
 908 162 l 1
 940 22 l 1
EndSplineSet
Validated: 1
EndChar

StartChar: equal
Encoding: 30 61 195
Width: 1149
Flags: W
HStem: 226 146<0 954> 664 147<-100 853>
LayerCount: 2
Fore
SplineSet
887 664 m 1
 -100 664 l 1
 -134 811 l 1
 853 811 l 1
 887 664 l 1
988 226 m 1
 0 226 l 1
 -33 372 l 1
 954 372 l 1
 988 226 l 1
EndSplineSet
Validated: 1
EndChar

StartChar: greater
Encoding: 31 62 196
Width: 1134
Flags: W
LayerCount: 2
Fore
SplineSet
921 452 m 1
 33 22 l 1
 0 162 l 1
 739 518 l 1
 -164 874 l 1
 -196 1015 l 1
 890 584 l 1
 921 452 l 1
EndSplineSet
Validated: 1
EndChar

